<svg width="168.398" height="177.501" xml:space="preserve" xmlns="http://www.w3.org/2000/svg"><path d="m140.11 158.49-2.69-17.88 13.57 7.34c-2.94 4.43-6.431 8.85-10.51 12.96zM149.38 6.75h22.87l-.86 11.9zM156.32 81.84l-5.91-39.2 18.51 10-2.52 34.65z" fill="#1F76BD" style="color:#000;display:inline;overflow:visible;visibility:visible;fill:#0098df;fill-opacity:1;fill-rule:nonzero;stroke-width:1;stroke-linecap:butt;stroke-linejoin:miter;stroke-miterlimit:4;stroke-dasharray:none;stroke-dashoffset:0;stroke-opacity:1;marker:none;enable-background:accumulate" transform="translate(-4.927 -5.75)"/><path fill="#1F76BD" style="color:#000;display:inline;overflow:visible;visibility:visible;fill:#0098df;fill-opacity:1;fill-rule:nonzero;stroke-width:1;stroke-linecap:butt;stroke-linejoin:miter;stroke-miterlimit:4;stroke-dasharray:none;stroke-dashoffset:0;stroke-opacity:1;marker:none;enable-background:accumulate" d="m131.7 102.72-5.61-37.21 30.23 16.33 5.61 37.21zM107.66 124.53l-5.71-37.89 29.75 16.08 5.72 37.89zM89.14 79.72V45.54l7.2 3.89 5.61 37.21z" transform="translate(-4.927 -5.75)"/><path style="fill:#0098df;fill-opacity:1" fill="#1F76BD" d="m96.34 49.43-5.92-39.2 29.76 16.08 5.91 39.2z" transform="translate(-4.927 -5.75)"/><path fill="#1F76BD" style="color:#000;display:inline;overflow:visible;visibility:visible;fill:#0098df;fill-opacity:1;fill-rule:nonzero;stroke-width:1;stroke-linecap:butt;stroke-linejoin:miter;stroke-miterlimit:4;stroke-dasharray:none;stroke-dashoffset:0;stroke-opacity:1;marker:none;enable-background:accumulate" d="m120.18 26.31-2.95-19.56h27.76l5.42 35.89z" transform="translate(-4.927 -5.75)"/><path fill="#fff" d="M145.483 36.89 140.063 1h4.39l22.01 11.9-2.47 33.99zM161.473 81.54l-1.9 26.21c0 1.41-.31 3.63-.98 6.42l-1.59-.87-5.61-37.21zM157.003 113.3l.65 4.34c-2.01 6.771-5.72 15.7-11.59 24.561l-13.57-7.34-5.72-37.891z"/><path fill="#fff" d="m121.163 59.76-5.91-39.2 30.23 16.33 5.91 39.2zM132.493 134.86l2.69 17.88c-4.471-3.23-19.521-14.771-32.2-32.32l-.25-1.64zM97.023 80.89l-5.61-37.21 29.75 16.08 5.61 37.21zM85.493 4.48 84.973 1h27.33l2.95 19.56zM97.023 80.89l5.71 37.89-1.46-.79c-8.22-11.94-15.14-26.45-17.06-42.86v-1.16z"/><path fill="#fff" d="M84.213 39.79V3.78l1.28.7 5.92 39.2z"/><path d="M136.503 153.67s-.47-.31-1.32-.93c-4.47-3.23-19.52-14.771-32.2-32.32-.58-.79-1.15-1.6-1.71-2.43-8.22-11.94-15.14-26.45-17.06-42.86V1" stroke-linejoin="round" stroke-linecap="round" stroke-width=".5" stroke="#000" fill="none"/><g fill="none" stroke="#000" stroke-width="2" stroke-linejoin="round"><path style="stroke-width:1;stroke-dasharray:none" d="m117.231 6.75 23.178 153.707M144.994 6.75l17.59 116.646M89.871 6.554l23.75 157.501M87.054 8.405l81.866 44.24M149.759 6.958l21.961 11.867M86.039 43.862 166.4 87.289M85.171 77.575l78.35 42.34M96.481 118.49l54.099 29.236" transform="translate(-4.927 -5.75)"/></g><path fill="#BC2C26" d="m141.43 159.42.261.25c-11.83 12.45-28.96 22.47-52.94 22.58-23.98.1-40.98-10.05-52.68-22.67l.78-.16s46.79-31.42 52.29-78.54c5.499 47.12 52.289 78.54 52.289 78.54z" style="fill:#ed1c24;fill-opacity:1" transform="translate(-4.927 -5.75)"/><path d="M89.14 6.75v74.13c-5.5 47.12-52.29 78.54-52.29 78.54l-.78.16C19.6 141.82 13.65 119.2 13.5 113.5L6 6.75Z" style="fill:#000" transform="translate(-4.927 -5.75)"/><g fill="none" stroke="#000"><path stroke-width="2" d="M31.143 153.83c-16.47-17.76-22.42-40.38-22.57-46.08L1.073 1h166.25l-7.75 106.75c0 6.29-6.15 28.64-22.81 46.17-11.83 12.45-28.96 22.47-52.94 22.58-23.98.1-40.98-10.05-52.68-22.67z"/><path stroke-width="1.25" d="M31.923 153.67s46.79-31.42 52.29-78.54M136.503 153.67s-46.79-31.42-52.29-78.54V1"/></g><g fill-rule="evenodd" clip-rule="evenodd"><g fill="#BC2C26"><path d="M46.5 13.57c.37-.271.59-.689.96-.96.908-.348.46.659 1.2.48.166.966-1.011.589-.96 1.44.043.917 1.267.653.96 1.92 1.28 0 2.807.247 2.88-.96-.211-.829-1.023-1.057-1.44-1.68-.055-1.015.857-1.063 1.2-1.68 1.231.129 1.71 1.01 2.64 1.44 1.156-.284 1.044-1.836 2.88-1.44-1.146 1.734-2.813 2.946-2.88 5.76-6.605-.125-11.028 1.932-15.12 4.32-2.189-.131-1.44-3.199-4.08-2.88a2.47 2.47 0 0 0-1.44-1.44c.14-1.667 2.285-.822 2.64 0 .377-.103.205-.755.96-.48.437-1.243 1.383-1.977 3.12-1.92-.219.981-.406 1.994-.96 2.64 1.014 2.039 5.91 1.04 5.28-2.16-.696.264-1.224.696-1.92.96-.212-.588-.719-.881-.48-1.92.696-.264 1.224-.696 1.92-.96-.016-.704-.733-.707-.96-1.2.072-1.385 1.822-2.221 2.88-1.2-.085.964.004 1.756.72 1.92zM51.06 34.209c.427-2.052 3.535-1.424 5.04-2.4 6.419.949 6.207-6.922 11.28-5.76 1.233 3.52-2.247 5.707-4.56 7.2-4.278-.037-8.13.351-11.76.96z" style="fill:#ed1c24;fill-opacity:1" transform="translate(-4.927 -5.75)"/></g><g fill="#B9BABA"><path d="M79.38 78.85c-.011 2.069-1.313 2.847-2.4 3.84-.109-1.251-.388-2.332-.96-3.12.306-2.37 1.962-1.354 3.36-.72zM70.74 106.689c-.132-2.584 3.318-2.87 5.28-1.92-1.081 1.32-3.085 1.715-5.28 1.92zM69.78 119.17c.543 1.169.543 2.19 0 3.359-1.454.335-1.099-1.141-2.4-.96-.363-1.963.437-2.762 2.4-2.399zM74.58 15.01c-.532-.132-.342.458-.72.48-.969.089-.963-.796-1.68-.96-.295-2.055 1.18-2.34 2.4-2.88-.207 1.256-.864 2.299 0 3.36zM83.22 16.45c-.691-.029-1.571.131-1.92-.24v-1.68c1.1-.501 1.859-1.341 3.36-1.44-.198 1.402-1.179 2.021-1.44 3.36zM88.26 26.05c-.431-.769-2.208-.191-2.64-.96v-1.44c1.954-.275 2.971.388 2.64 2.4zM86.58 66.85c-2.146-.095-3.711-.769-4.32-2.4 1.713-1.171 4.198.441 4.32 2.4zM87.54 77.41c-1.65.05-1.74-1.46-3.36-1.44-.147-4.119 4.242-1.86 3.36 1.44zM54.9 132.609c-1.245-.195-2.157-.723-3.84-.479v-1.44c1.509-1.226 3.941.017 3.84 1.919zM53.46 142.689c-1.204-.076-1.013-1.547-2.4-1.439v-2.88c2.378-.298 3.343 2.833 2.4 4.319zM46.26 148.449a4.708 4.708 0 0 1-2.4-2.399c.622-.579.933-1.468 2.16-1.44.937.861.821 2.672.24 3.839z" style="color:#000;display:inline;overflow:visible;visibility:visible;fill:#feffff;fill-opacity:1;fill-rule:evenodd;stroke-width:1;stroke-linecap:butt;stroke-linejoin:miter;stroke-miterlimit:4;stroke-dasharray:none;stroke-dashoffset:0;stroke-opacity:1;marker:none;enable-background:accumulate" transform="translate(-4.927 -5.75)"/><path d="M75.06 116.29c-1.284-.637-2.715-1.125-3.36-2.4 1.821-.961 4.167-.596 3.36 2.4z" style="fill:#feffff;fill-opacity:1" transform="translate(-4.927 -5.75)"/></g><g fill="#fff"><path d="M50.693 24.62c-.032-.592-.037-1.156.24-1.44.557-.077.92.039 1.2.24-.158.705-.885 1.635-1.44 1.2zM54.053 23.419c-.197.684-.542 1.219-1.2 1.44-.916-.518 1.073-1.079-.24-1.2.005-.657 1.132-.569 1.44-.24zM47.573 30.38c-.638-.003-1.371.09-1.68-.24.283-.848 1.715-.947 1.68.24zM49.733 23.899c.175.655-.477.483-.48.96-.613-.027-.84-.44-1.2-.72-.112-1.151 1.395-.69 1.68-.24zM49.973 29.899c.035-.891 1.036-1.669 1.68-1.2-.11.817-1.09 1.616-1.68 1.2zM49.253 29.18c.206.193.143.657.48.72-.034.687-1.001.439-1.68.48.106-.694.506-1.094 1.2-1.2z"/></g><path fill="#FBEF4A" d="M25.62 20.77a9.617 9.617 0 0 0 1.44 3.84c1.276-.004 2.734.174 3.36-.48 1.01 1.208-.236 1.867 0 3.6-1.248.592-2.543 1.137-3.84 1.68-.582-.779-1.42-1.3-2.4-1.68-.663-3.657-.036-8.604-5.04-7.92-.315.085-.377.423-.72.48-.344 1.864.578 2.462.48 4.08a219.301 219.301 0 0 0 8.64 12.96c1.403 5.717 3.763 10.477 3.84 17.52-1.678-1.522-1.511 1.674-1.44 3.36 1.047.167-.056-1.816 1.2-1.44.052 2.807-.185 5.814-.72 8.4-.573 2.77-2.086 4.739-2.88 6.96-.51 1.426-.372 3.273-.96 4.56-.647 1.414-1.815 2.105-2.4 3.36-.066 2.333-1.402 3.398-.96 6.24.759 1.348 2.556 1.301 4.08.72.928-1.953 3.662-2.099 3.6-5.04.214-.187.542-.258.96-.24.455-2.13 1.841-4.056 2.4-6.48.604-2.615.633-4.897 2.16-6.48 1.584.224 1.779-.941 3.12-.96-.518.922-1.207 1.674-2.88 1.44 1.068 4.086 7.66.993 9.12-.48-.005 1.994-2.485 1.514-2.4 3.6 3.869.908 5.137-2.862 7.2-4.56 1.285.315 2.466.734 3.84.96.339 1.059-1.436.004-1.44.72.207.594 1.67-.071 1.92.48.276 1.716-2.392.487-2.4 1.92.468.831.958-.294 1.44-.24-.296.777.777.184.48.96-1.014.266-3.125-.565-3.36.48-.06 1.099 2.062.018 2.4.72-.236 1.444-2.955.405-4.32.72.024 1.811 2.402.209 2.88 1.2-.073 1.287-1.439 1.281-2.88 1.2-.183.903 1.274.166.96 1.2-.514.526-1.166.915-2.4.72-.297.776.776.184.48.96-1.904-.063-1.963 1.717-2.64 2.88-1.835.965-2.585 3.015-4.08 4.32-.143-2.144 1.933-2.067 1.92-4.08-4.653.768-5.205 10.925-3.84 17.52.999 4.829 2.711 8.624 2.4 12.721-.188 1.092-1.147 1.412-.96 2.88.085.315.422.377.48.72 4.371.27 5.334 3.946 9.6 4.32-.156.964-2.08.16-2.4.96-2.735-.625-4.781-1.938-6.72-3.36 1.301 5.745 8.634 6.062 14.4 6-2.077 2.709-8.396 2.435-11.76 1.2-.867-1.454-2.304-1.898-3.12-3.6-.836-1.744-.385-4.724-2.16-5.521-2.696.424-3.373 2.867-4.08 5.28-.088.408.187.452.48.479-.417 2.912 1.379 7.512 2.88 10.08 2.574.866 4.189 2.691 7.92 2.4 1.687 1.852 3.826 1.691 6.48 1.68-2.418 1.461-3.652 3.105-1.92 6.24-.975.544-2.271-.369-3.12-.72-.819-2.622-3.095-3.785-6.48-3.84-.106 1.306 1.711.688 2.16 1.439-.037 2.437 2.596 2.204 3.12 4.08-2.643-.162-3.428 1.532-4.32 3.12-1.815.135-1.418-1.942-1.44-3.601-2.793-.006-3.663-1.937-6.72-1.68.027 1.307.15 2.71-.96 2.88-.263-1.816-1.803-2.356-1.44-4.8-1.166.194-1.613 1.106-2.64 1.44-.334-.306-.104-1.176-.72-1.2.272-1.008 1.355-1.204.96-2.88-1.086-.515-2.304-.896-4.08-.721-.076-.964-.914-1.165-1.2-1.92.408.089.453-.187.48-.479.901 1.336 2.658 1.724 3.84.479.256-1.376-.334-1.905-.48-2.88-2.153.548-4.374.623-5.76-.72v-2.16c.721.639 1.459 1.261 3.12.96 1.079-1.455 1.648-4.039 0-5.28-3.638 2.375-7.64-2.925-4.32-5.279.535.825.626 2.094 1.2 2.88 1.053.012 2.248.168 2.4-.72.164-2.074-1.759-2.077-1.92-3.601-.198-1.874 2.098-2.805 1.92-5.28-4.036 1.622-7.021-.585-7.68-3.84.918-4.842 3.33-8.189 8.64-8.64-1.844 1.738-5.929 5.138-4.8 9.6.381 1.508 1.864 2.441 3.6 1.44 2.396-1.381 4.236-5.454 3.6-9.601-.338-2.206-1.464-4.083-1.92-5.76.704-.896 1.201-1.999 1.44-3.36-1.174-.054-1.628.612-2.4.96-5.228.067-8.726-1.941-8.16-6.48.086-.687.744-1.073.96-1.68.458-1.286.204-3.075.96-4.56.156-.307.828-.408.96-.72.481-1.138.424-2.757.96-4.08 1.258-3.103 3.56-3.577 2.88-7.68-2.792-2.568-7.745-2.976-8.16-7.92 2.755 2.204 6.59 3.329 9.12 5.76 1.65-.761.916-3.314-.48-4.32-1.002-.722-2.861-.633-4.08-1.44-2.342-1.551-2.519-3.938-4.08-5.28v-1.44c2.83 2.53 7.781 2.939 9.84 6.24 4.29-7.7-13.156-6.392-10.8-14.88 3.741 3.22 7.937 5.983 12.24 8.64 1.056-6.136-2.995-8.242-8.64-8.64-3.526-3.435-3.692-10.228-6.48-14.4 3.523 1.276 4.109 5.49 5.76 8.64 2.148.812 2.584 3.336 5.52 3.36.739.701 1.075 1.805 2.4 1.92.244-1.423-.727-3.398-1.68-5.04-.336-.579-1.169-.94-1.44-1.44-.325-.599-.193-1.383-.48-1.92-1.004-1.883-2.717-3.643-4.32-5.28-2.883-2.946-5.91-9.704-1.68-14.16 1.192.072 1.855-.385 2.4-.96 1.997.563 4.212.908 5.76 1.92 2.404.032 1.704-3.475 1.2-5.04 4.949-.506 7.424 9.336 0 8.405zm11.52 51.84c-.786.334-1.032 1.208-.96 2.4 1.17.05.965-1.275.96-2.4zm-4.32 10.559h.96c-.262-1.063.407-1.193.48-1.92-1.04.081-1.037 1.204-1.44 1.92zm-3.6 17.761c-.305 1.593.367 2.422-.24 4.32 1.368.167 1.491-4.207.24-4.32zm9.84 5.759c-1.135.834.149 1.864 0 3.12-.169 1.42-2.38 2.922-.96 4.08 1.49-1.028 1.996-5.201.96-7.2zm-12 9.121c.636-.645 1.227-1.333.96-2.88h-1.44c-1.018 2.12-.825 3.547-.48 6.24 2.382.162 1.004-2.017.96-3.36zm1.92 8.639c.276.844.717 1.523 1.92 1.44-.276-.843-.717-1.523-1.92-1.44zm.48 3.361c-.227.867.945.335 1.44.48.227-.868-.945-.335-1.44-.48zm0 2.4c.322 1.117 1.427 1.453 2.88 1.439v-.72c-.943-.256-1.539-.861-2.88-.719zm2.88 3.359c-.227.867.945.335 1.44.48.227-.866-.945-.334-1.44-.48zm2.4 2.401h-.96v.96c.611-.03.931-.35.96-.96z" style="fill:#fd0;fill-opacity:1" transform="translate(-4.927 -5.75)"/><path fill="#fbef4a" d="M45.413 17.899c-.511-.828.66-1.122-.24-1.92 1.012.373-.053-1.333.96-.96.723.922.445 2.549-.72 2.88z"/><path fill="#FBEF4A" d="M59.7 46.689c3.518-.721 2.056-6.424 5.04-7.68 4.689 2.976-.541 11.835-5.04 7.68zM65.22 63.49c-2.641-.4-4.496-1.584-5.52-3.6 2.646-.542 4.743 1.479 5.52 3.6zM55.62 65.89c-1.935.174-2.468-1.052-3.12-2.16 1.212-.348 2.661.971 3.12 2.16zM83.94 67.81c-1.538 1.004-5.559 2.336-7.44.72.474-1.766 3.153-1.327 2.88-3.84.683-.376 1.591-1.472 2.4-.96-.458 2.537 1.755 2.404 2.16 4.08zM47.22 64.689c.966.233 1.351 1.049 1.92 1.68-.366 2.274-1.249 4.031-3.12 4.8-.464-2.1 1.792-4.19 1.2-6.48zM85.14 86.53c.279-.039.427.053.48.24-1.544 4.296-3.944 7.736-9.12 8.4-2.906-1.014-5.909-1.931-7.2-4.56 2.546.563 6.806 2.73 10.8 1.2 1.511-1.929 3.837-3.043 5.04-5.28z" style="color:#000;display:inline;overflow:visible;visibility:visible;fill:#fd0;fill-opacity:1;fill-rule:evenodd;stroke-width:1;stroke-linecap:butt;stroke-linejoin:miter;stroke-miterlimit:4;stroke-dasharray:none;stroke-dashoffset:0;stroke-opacity:1;marker:none;enable-background:accumulate" transform="translate(-4.927 -5.75)"/><path fill="#fbef4a" d="M37.493 82.939c-.03.611-.35.931-.96.96.029-.61.349-.93.96-.96z"/><path fill="#FBEF4A" d="M50.34 128.77c.256.756-.579 2.228-.24 3.84 1.627-.107 3.092-.052 2.88 1.681-1.847-.258-6.143-.08-8.64-.48.065-1.775 1.451-2.229 2.88-2.64.593-1.249 1.316-2.365 3.12-2.401zM84.66 16.45c.235 2.395-1.292 3.028-3.12 3.36-1.048 1.752-1.559 4.042-4.08 4.32-.604 1.235-.355 3.324-.96 4.56.477.616 1.135-.608 1.44-.96-.299-3.019 1.566-3.874 4.08-4.08 1.082-.758 1.737-1.943 3.12-2.4-.088.408.187.453.48.48-2.104 1.584-.335 4.497.96 5.52-1.396 1.085-4.714.247-6.24 1.2.463 2.623-1.815 2.505-1.44 5.04 1.681 1.217 4.036 2.98 3.6 5.52-1.363-1.297-3.724-4.283-5.52-1.68-.02 2.76 3.772 2.92 2.64 6-.857-1.294-2.983-3.366-5.04-1.92-.181 2.27 3.098 4.518.48 6.24-.486-1.034-.549-2.491-1.68-2.88-1.178-.218-.914 1.006-1.92.96-1.001-2.198-.955-5.445-2.16-7.44-1.193-.166-.923-1.796-1.92-2.16 1.12-.653.889-2.523 1.92-4.08 1.337-2.019 3.273-3.443 3.84-5.28.478-1.547.993-4.13.48-6-.628-2.289-5.297-3.66-2.4-6.24.727.473 1.313 1.086 2.16 1.44 1.285.004 1.469-1.091 2.88-.96.157 1.421-.504 3.063.24 4.8 2.335-.625.93-4.99 3.12-5.76 1.644 1.192 1.753 5.238 5.04 2.4zm-9.6 19.199h-1.44c-.083 1.204.596 1.644 1.44 1.92.051-.27.266-.374.48-.48.116-.756-.737-.543-.48-1.44zm-1.44 4.321v-1.92h-.96c.015.945.278 1.641.96 1.92zm-1.44-.48h-.96c-.215 1.175.792 1.127.48 2.4.61-.029.931-.349.96-.96-.613-.027-.476-.804-.48-1.44zM82.26 72.13c.827-.454 1.978-.583 2.4-1.44.696.344 1.19.89 1.44 1.68-1.675.885-3.164 1.956-3.12 4.56-1.376-.063-2.097-.783-2.16-2.16-1.832-.968-3.044-2.556-5.76-2.64 1.855 1.825 3.523 3.837 4.8 6.24-1.545-1.336-4.638-1.347-4.56 1.44-1.538.227-2.065-1.909-1.2-2.64-.454-.826-1.12-1.44-2.64-1.2-.132-.828-.857-1.063-.72-2.16-.855-1.115-1.571.075-2.16-.72-1.503.921-1.186 4.861-3.6 4.08.289-1.151 1.239-1.641.96-3.36-.193-.767-1.234-.686-1.68-1.2-1.521.559-1.022 3.137-2.88 3.36-.481-1.053.914-2.061.72-3.6-.085-.315-.422-.377-.48-.72-2.312-.231-2.762 1.398-4.32 1.92 1.117-1.521 1.192-4.049 0-5.52 2.329-1.904 7.581 1.086 10.56-.72h2.16c.423-.217.743-.537.96-.96 2.148.36 2.156 2.381 4.08 3.36 2.344 1.192 6.504-.484 7.2 2.4zm-17.28-1.441c-.262.805 1.997.766 1.44-.24-.004-.366-1.778-.526-1.44.24zm2.4.48v.96h.96c.186-.826-.133-1.146-.96-.96zM81.78 82.209c.582 2.517-3.104 4.885-4.8 6.72-4.617.704-10.381-1.641-9.6 5.04-.412 1.083-2.243 1.677-2.88 2.64-.691 1.045-.405 2.26-.96 4.08-.394 1.292-1.62 3.479-1.92 5.76.407 1.702.122 2.604.96 4.561.598.361 1.177.742 1.92.96 1.744-.496 2.339-2.141 3.84-2.88.24-1.44.312-3.049 1.68-3.36.396.564.076 1.845.96 1.92 1.678.238 1.799-1.081 3.36-.96.033 1.979-2.997 2.903-4.08 4.561 1.2.72 4.374-.534 4.32 1.439-.767.594-2.906-.186-3.36.72-.417 1.409.728 2.157.24 2.881-1.796.355-1.915-.966-2.88-1.44h-5.04c.467 1.213 1.941 1.419 2.64 2.4 1.451-.098 2.791-1.103 3.12.72-1.085.274-1.654 1.065-2.88 1.2-.417 1.408.729 2.156.24 2.88-3.251.53-1.78-3.66-5.28-2.88-1.16.84-1.123 2.877-3.6 2.399.821-.633 2.461-2.862.72-3.84-2.235 1.015-4.762 2.129-6-.479 1.546.267 2.236-.324 2.88-.96-.351-1.01-.792-1.929-1.68-2.4-1.752 1.114-5.224 1.133-5.52-1.68 2.771-.188 5.149-.771 4.8-4.08-2.418.169-3.772 1.625-5.28-.24-.095-1.266.31-3.03-.48-3.6-.746.883-1.873-.666-2.88.479-.125-2.604 1.694-3.266 4.08-3.36 1.703 1.887.442 5.733 4.56 4.801 2.127-.482 2.904-3.05 2.4-5.28-1.114-4.929-10.886-2.661-12.96.479.088-.408-.187-.452-.48-.479 1.879-2.921 5.875-3.725 11.04-3.36-3.271-2.159-8.841.211-11.28 1.92-.331-.309-.238-1.042-.24-1.68 3.618-1.662 8.244-2.316 13.44-2.4-4.48-.88-9.103.177-12.48 1.2 2.523-2.894 10.098-2.833 14.88-1.92-2.815-2.787-9.962-.519-13.92 0 3.251-3.164 8.671-1.913 14.4-1.92-.429-1.569-2.727-.953-4.08-.96-4.422-.023-8.572.578-11.28 1.92 2.545-3.295 8.969-2.711 14.4-3.12-2.05.042-4.709-1.294-6.24-.24-3.329-.904-5.805 2.532-7.68.72 1.432-1.218 3.723-1.332 5.28-1.68.64-.143 1.674-.422 2.4-.48.675-.054 1.455.525 2.16.48 1.025-.066 1.803-.623 2.88-.48 1.633.216 3.021 1.946 5.04 1.44-3.66-3.212-11.301-1.517-16.56-.961 1.028-1.542 3.745.058 5.04-1.92.98-.101.97.79 2.16.48 2.161-.585 6.743-3.054 9.6-2.4 2.234.511 3.869 4.161 6.96 3.36.896-.704 2.528-.672 3.36-1.44 4.838 1.411 8.881-1.951 10.56-5.281zM54.9 87.49c2.73-.33 3.282 1.518 6.24.96-1.44-.667-4.33-2.354-6.24-.96zm2.64 14.88c.421-.132.52-1.938-.48-1.44-.421.132-.52 1.937.48 1.44zm-1.2 1.44c-1.297.487.174 1.958 1.44 1.44-.151-.81-1.331-.589-1.44-1.44zm-.48 3.36v.96h1.44c-.032-.769-.544-1.056-1.44-.96zm-.48 4.319h1.92c.201-1.784-2.754-2.805-1.92 0z" style="color:#000;display:inline;overflow:visible;visibility:visible;fill:#fd0;fill-opacity:1;fill-rule:evenodd;stroke-width:1;stroke-linecap:butt;stroke-linejoin:miter;stroke-miterlimit:4;stroke-dasharray:none;stroke-dashoffset:0;stroke-opacity:1;marker:none;enable-background:accumulate" transform="translate(-4.927 -5.75)"/><path fill="#FBEF4A" d="M54.18 19.33c.81 1.91 2.572 2.868 4.56 3.6.175.655-.477.483-.48.96.133.667.928.672 1.44.96-.11 1.17.251 2.811-.24 3.6-7.064-1.031-10.102 1.148-10.32 6.96 1.155 1.916 6.365 1.437 7.92.24 1.502.01 1.474 2.325.48 2.88-3.799-.761-9.058-.062-10.32-3.36.866-1.694 2.152-2.967 1.92-5.76-1.796 1.165-1.991 3.929-2.88 6-1.418.421-2.257 1.422-2.4 3.12 1.455.334 1.1-1.141 2.4-.96-.808 1.111-1.117 2.723-1.44 4.32 1.415.502.768-1.216.96-1.68.49-1.185 1.159-2.273 2.16-2.64 1.212 1.558-1.829 3.085 0 3.84.704-.736.627-2.253 1.92-2.4.993 1.546-1.457 4.255.48 5.28.78-1.3-.64-4.8 1.44-4.8.901.859-.712 4.232.96 4.32-.303-1.118.081-3.946 1.92-4.32.125 1.635 1.187 2.333 1.92 3.36 1.772-.628 3.29-1.51 3.84-3.36 2.704 1.893.147 7.437-3.6 6.72.418-1.102 2.569-.471 2.4-2.16-.448-.039-2.826.047-2.4 1.68-.957.237-.723-.717-1.68-.48-.619 4.746 13.344 5.194 12.24-.96 2.045.818-.394 1.927 0 3.84 1.597-.403 1.482-2.518 1.44-4.56-.101-.539-1.273-.007-1.44-.48.167-4.006-2.253-5.427-3.84-7.68 4.349.207 8.74 9.123 6.24 13.92-.354.68-3.725 3.374-4.8 3.6-1.58.332-3.004-.037-3.84-.96 1.285-.555 3.551-.129 3.84-1.68-.945-.378-2.544.65-4.32.24-.332.972.521.759.48 1.44-1.81.209-1.922-1.278-3.84-.96.415 1.998 4.038 2.415 7.44 3.36 2.573.715 15.784 3.627 15.6-.96-.077-1.93-2.664-1.569-3.84-2.88 3.438-1.061 8.392.125 7.68 4.08-.391 2.171-3.692 4.189-6.72 4.56-1.453.178-2.986-.313-4.8-.48-.703-.064-2.748.244-4.08 0-1.443-.264-3.347-.627-4.32-.96-.874-.298-1.594-1.399-2.64-1.92-.487-.242-1.194.178-1.68 0-.179-.066-3.843-2.371-4.08-2.64-.629-.715-.176-2.007-1.2-2.16-.754-.114-.981.299-1.2.72 2.325 4.556 8.587 5.173 13.2 7.44h2.64c-2.546 2.299-8.318-.578-11.28-1.44-.493-1.027-1.24-1.8-2.64-1.92.352 2.048 2.165 2.635 2.88 4.32-2.999-.282-2.746-3.813-5.04-4.8.477 5.218 8.411 9.451 12.72 9.6 2.844-.597 5.739-1.141 7.92-2.4-.114 2.311-1.943 2.577-5.04 3.36-1.519.384-3.979 1.391-6.48.96-2.359-.407-4.314-1.855-6.24-1.92-2.049-1.951-3.975-4.025-6.24-5.76-.891 4.333 2.515 6.445 5.04 8.16-2.251.867-2.564-.872-3.84-1.44-.302-.134-.933.187-1.2 0-3.45-2.412-1.852-4.46-2.64-8.64-1.512-.015-.97 2.433-.48 3.12-.474 4.79-2.675 10.199-7.2 9.36 2.708-1.933 3.488-5.792 3.84-10.08-1.918.162-.986 3.174-2.4 3.84v1.68c-1.284 1.916-3.887 2.513-7.44 2.16-.703-.644-1.122-2.627-.96-3.36 1.455-.334 1.099 1.141 2.4.96 3.17-1.07 3.88-4.6 3.6-9.12-1.175.266-1.423 1.457-2.4 1.92-1.301-.379-2.256-1.104-2.4-2.64.648-.473 2.097-.143 3.12-.24.557-1.124.083-3.277.24-4.8-1.113.017-2.23 1.007-3.36.24-.085-1.286.598-1.802 1.92-1.68.62-1.726.373-3.2 0-4.32-1.006-.046-.742 1.178-1.92.96-1.285-.234-2.069-.971-1.92-2.64 2.712 1.132 4.119-1.743 4.8-4.08-.322-1.118-1.427-1.453-2.88-1.44-.482 1.363 1.147.613.96 1.68-3.961 1.846-5.535-6.586-1.68-6.96.291 1.229.456 2.584 1.2 3.36 2.896.336 3.187-1.933 4.8-2.88-2.394-1.438-5.726-2.779-3.36-6.48-.348-.772-1.015-1.226-.96-2.4 1.339-.631 2.614.033 3.84-.24.987-.22 1.361-1.036 2.16-1.44 2.602-1.315 5.709-1.277 8.16-2.88 1.116.803 3.461.379 5.28.48zm-5.04.48c-.96 1.76-2.675 2.765-3.36 4.8 1.317.357 1.053-.867 1.92-.96.797 1.884 5.542.785 6.24-.48-2.397-.323-.93-4.51-4.8-3.36zm-3.84 1.919c1.007-.113 2.046-.193 1.92-1.44-1.203-.082-1.644.597-1.92 1.44zm-5.76 2.881c-.867-.228-.335.945-.48 1.44.867.227.335-.946.48-1.44zm-2.4.96c-.893.495-.903 4.042.96 3.36-.308-1.132-.383-2.497-.96-3.36zm4.8 4.32c.946 1.134 1.757 2.403 3.36 2.88-.256-1.825-.936-3.224-3.36-2.88zm-.96 4.799c.175-.655-.477-.483-.48-.96-1.041.24-1.305 1.255-1.44 2.4 1.501.382 1.154-1.086 1.92-1.44zm2.4 0c-.844.276-1.523.717-1.44 1.92 1.247.127 1.327-.912 1.44-1.92zm-3.84 5.281c-.938 0-2.332 2.643-.72 2.88.257-.943.861-1.539.72-2.88zm4.08 4.32c-.162 1.204-1.321 2.854-.24 3.84 1.315.248 1.514-3.828.24-3.84zm4.08.96c-.331-.01-.527.113-.72.24-.229 1.094-.88 4.513.72 4.56v-4.8zm-8.16.959c-.861.739-1.474 1.727-1.44 3.36 1.11-.22 2.651-2.398 1.44-3.36zm11.52 1.44c-1 1.053-.43 4.551 1.44 4.32-.39-1.53-.937-2.902-1.44-4.32zm-9.12 2.881h-.96c.201 1.161-.223 1.697-.48 2.4 1.578.298 1.511-1.05 1.44-2.4zm.96 4.8c1.138-.194 2.097-2.953 1.44-3.36-.655.945-1.848 1.352-1.44 3.36zm5.28-1.92c.07 1.21-.374 2.933.96 2.88.075-1.355-.036-2.524-.96-2.88zm15.84 1.92c-.053 1.333 1.67.89 2.88.96-.564-.716-1.61-.95-2.88-.96zM45.3 56.77c.349 1.789-.633 2.247-.48 3.84.711-.47 1.613-3.105.48-3.84zm12 6.72c.335.785 1.208 1.032 2.4.96-.335-.786-1.208-1.032-2.4-.96z" style="fill:#fd0;fill-opacity:1" transform="translate(-4.927 -5.75)"/></g><path clip-rule="evenodd" fill="none" stroke="#fff" d="M32.308 151.819c-16.622-17.202-22.13-40.237-22.274-45.831L2.834 3.519h80.379"/><g fill="#B9BABA"><path d="M108.95 165.32c-.66.55-1.351.87-1.351 1.72 0 .84.69 1.53 1.53 1.53.851 0 .76-.41 1.32-1.04.359-.4.5-.38.83-.391.33-.01.68.24.71.301.279.56.47 1.13 1.47 1.13.85 0 1.53-.69 1.53-1.53 0-1.09-.88-1.63-.88-1.63s-.601-.63-.601-.88c0-.311.28-.73.28-.73s1.28-.939 1.28-1.78c0-.85-.681-1.529-1.53-1.529-.49 0-.81.229-1.21.6-.44.351-.7.53-.98.53-.279.01-.81-.24-.979-.5-.23-.351-.73-.63-1.24-.63-.84 0-1.53.68-1.53 1.529 0 .841.54 1.681 1.261 1.801.08.02.37.42.37.66.01.269-.04.629-.28.839zm-2.75 5.62v.04c0 1.31-1.061 2.38-2.37 2.38a2.385 2.385 0 0 1-2.38-2.38c0-1.271 1-2.301 2.26-2.36v-7.2l-.77-.439-.551-.16-.55-.54-.01-.7 4.38-4.33.96.29.71.71v1h7.021c.26-2.58 1.1-3.72 2.83-3.6 1.619.1 2.56.83 2.56 2.449 0 1.49-.85 2.73-2.08 2.92v8.971c1.43.029 2.57 1.2 2.57 2.63 0 1.46-1.181 2.64-2.63 2.64a2.636 2.636 0 0 1-2.61-2.319h-9.34zM101.83 159.58l-1.19-.19-.58-.58.02-1.14-.16-.04 4.47-4.39 1.11.22.49.57.22 1.22zM99.92 157.63l-.8-.19-.54-.63v-.83l4.25-4.25h.78l.47.48.31 1.03z" style="fill:#feffff;fill-opacity:1" transform="translate(-4.927 -5.75)"/><path style="fill:#feffff;fill-opacity:1" d="m98.58 155.5-17.33-17.25-5.67-5.67-3.41-3.41v-1.59l2.12-2.12h1.54l26.27 26.27h.73l-4.25 4.25z" transform="translate(-4.927 -5.75)"/><path style="fill:#feffff;fill-opacity:1" d="m75.12 148.71-3.83-3.83 2.42-2.42 1.96 1.96 2.71-2.71-1.96-1.96 1.46-1.46-2.55-2.54-1.45 1.46-2.3-2.29-2.7 2.7 2.29 2.3-2.42 2.41-4.14-4.13 6.53-6.53 1.71.9 2.73.01 5.67 5.67-.37 2 .77 1.93z" transform="translate(-4.927 -5.75)"/></g><g fill="none" stroke="#000"><path d="m96.903 153.83.01.7.55.54.55.16.77.439v7.2a2.365 2.365 0 0 0-2.26 2.36c0 1.31 1.07 2.38 2.38 2.38 1.31 0 2.37-1.07 2.37-2.38v-.04h9.34a2.636 2.636 0 0 0 2.61 2.319c1.45 0 2.63-1.18 2.63-2.64a2.627 2.627 0 0 0-2.57-2.63v-8.971c1.23-.189 2.08-1.43 2.08-2.92 0-1.619-.94-2.35-2.56-2.449-1.73-.12-2.57 1.02-2.83 3.6h-7.02v-1l-.71-.71-.96-.29-.22-1.22-.49-.57-1.11-.22-.31-1.03-.47-.479h-1.51l-26.27-26.269h-1.54l-2.12 2.12v1.59l3.41 3.41-2.73-.01-1.71-.9-6.53 6.53 4.14 4.13 2.42-2.41-2.29-2.3 2.7-2.7 2.3 2.29 1.45-1.46 2.55 2.54-1.46 1.46 1.96 1.96-2.71 2.71-1.96-1.96-2.42 2.42 3.83 3.83 6.53-6.53-.77-1.93.37-2 17.33 17.25v1.309l.54.631.8.189.16.04-.021 1.14.58.58zM93.653 150.23l4.25-4.25M94.993 151.88l4.47-4.39M96.903 153.83l4.38-4.33M98.383 155.06l4.25-4.35"/><path d="M109.183 159.66s-.601-.63-.601-.88c0-.311.28-.73.28-.73s1.28-.939 1.28-1.78c0-.85-.681-1.529-1.53-1.529-.49 0-.81.229-1.21.6-.44.351-.7.53-.98.53-.28.01-.81-.24-.98-.5-.23-.351-.73-.63-1.24-.63-.84 0-1.53.68-1.53 1.529 0 .841.54 1.681 1.262 1.801.08.02.37.42.37.66.01.27-.04.63-.28.84-.66.55-1.351.87-1.351 1.72 0 .84.69 1.53 1.53 1.53.85 0 .76-.41 1.32-1.04.359-.4.5-.38.83-.391.33-.01.68.24.71.301.279.56.47 1.13 1.47 1.13.85 0 1.53-.69 1.53-1.53 0-1.091-.88-1.631-.88-1.631zM70.653 126.83l5.67 5.67"/></g><g fill="#B9BABA"><path d="M60.987 168.448a2.627 2.627 0 0 0-2.57 2.63c0 1.46 1.18 2.64 2.63 2.64 1.35 0 2.45-1.02 2.61-2.319h9.34v.04c0 1.31 1.06 2.38 2.37 2.38s2.38-1.07 2.38-2.38c0-1.271-1-2.301-2.26-2.36v-7.2l.77-.439.55-.16.55-.54.01-.7-4.38-4.33-.96.29-.71.71v1h-7.02c-.26-2.58-1.1-3.72-2.83-3.6-1.62.1-2.56.83-2.56 2.449 0 1.49.85 2.73 2.08 2.92zm3.22-.95c0-1.09.88-1.63.88-1.63s.6-.63.6-.88c0-.311-.28-.73-.28-.73s-1.28-.939-1.28-1.78c0-.85.68-1.529 1.53-1.529.49 0 .81.229 1.21.6.44.351.7.53.98.53.28.01.81-.24.98-.5.23-.351.73-.63 1.24-.63.84 0 1.53.68 1.53 1.529 0 .841-.54 1.681-1.26 1.801-.08.02-.37.42-.37.66-.01.27.04.63.28.84.66.55 1.35.87 1.35 1.72 0 .84-.69 1.53-1.53 1.53-.85 0-.76-.41-1.32-1.04-.36-.4-.5-.38-.83-.391-.33-.01-.68.24-.71.301-.28.56-.47 1.13-1.47 1.13a1.531 1.531 0 0 1-1.53-1.531zM77.367 160.038l1.19-.19.58-.58-.02-1.14.16-.04-4.47-4.39-1.11.22-.49.57-.22 1.22zM79.277 158.088l.8-.19.54-.63v-.83l-4.25-4.25h-.78l-.47.48-.31 1.03z" style="fill:#fff;fill-opacity:1" transform="translate(-4.927 -5.75)"/><path style="fill:#fcffff;fill-opacity:1" d="m80.617 155.958 17.33-17.25 5.67-5.67 3.409-3.41v-1.59l-2.119-2.12h-1.54l-26.27 26.27h-.73l4.25 4.25z" transform="translate(-4.927 -5.75)"/><path style="fill:#fcffff;fill-opacity:1" d="m104.077 149.168 3.83-3.83-2.421-2.42-1.96 1.96-2.71-2.71 1.96-1.96-1.46-1.46 2.551-2.54 1.449 1.46 2.301-2.29 2.699 2.7-2.29 2.3 2.421 2.41 4.14-4.13-6.53-6.53-1.71.9-2.73.01-5.67 5.67.369 2-.769 1.93z" transform="translate(-4.927 -5.75)"/></g><g stroke="#000" fill="none"><path d="m72.44 154.288-.01.7-.55.54-.55.16-.77.439v7.2c1.26.06 2.26 1.09 2.26 2.36 0 1.31-1.07 2.38-2.38 2.38-1.31 0-2.37-1.07-2.37-2.38v-.04h-9.34a2.636 2.636 0 0 1-2.61 2.319c-1.45 0-2.63-1.18-2.63-2.64 0-1.43 1.14-2.601 2.57-2.63v-8.971c-1.23-.189-2.08-1.43-2.08-2.92 0-1.619.94-2.35 2.56-2.449 1.73-.12 2.57 1.02 2.83 3.6h7.02v-1l.71-.71.96-.29.22-1.22.49-.57 1.11-.22.31-1.03.47-.479h1.51l26.27-26.271h1.54l2.12 2.12v1.59l-3.41 3.41 2.73-.01 1.71-.9 6.53 6.53-4.14 4.13-2.421-2.41 2.29-2.3-2.7-2.7-2.3 2.29-1.45-1.46-2.55 2.54 1.46 1.46-1.96 1.96 2.71 2.71 1.96-1.96 2.42 2.42-3.83 3.83-6.53-6.53.77-1.93-.368-2-17.331 17.25v1.309l-.54.631-.8.189-.16.04.02 1.14-.58.58zM75.69 150.688l-4.25-4.25M74.35 152.338l-4.47-4.39M72.44 154.288l-4.38-4.33M70.96 155.518l-4.25-4.35"/><path d="M60.16 160.118s.6-.63.6-.88c0-.311-.28-.73-.28-.73s-1.28-.939-1.28-1.78c0-.85.68-1.529 1.53-1.529.49 0 .81.229 1.21.6.44.351.7.53.98.53.28.01.81-.24.98-.5.23-.351.73-.63 1.24-.63.84 0 1.53.68 1.53 1.529 0 .841-.54 1.681-1.26 1.801-.08.02-.37.42-.37.66-.01.27.04.63.28.84.66.55 1.35.87 1.35 1.72 0 .84-.69 1.53-1.53 1.53-.85 0-.76-.41-1.32-1.04-.36-.4-.5-.38-.83-.391-.33-.01-.68.24-.71.301-.28.56-.47 1.13-1.47 1.13-.85 0-1.53-.69-1.53-1.53 0-1.091.88-1.631.88-1.631zM98.69 127.288l-5.67 5.67"/></g></svg>