<svg viewBox="0 0 450.41 536.9" xmlns="http://www.w3.org/2000/svg"><path d="M3.99 27.82c5.282 97.261 17.33 216.29 25.403 328.69 7.525 104.77 94.021 175.75 197.11 174.82 103.09-.925 188.68-79.544 194.96-174.82 7.23-109.7 16.232-219.08 24.664-328.69-136.14-29.063-298.85-33.571-442.14 0z" fill="#fff"/><g stroke="#000" stroke-width="3"><path transform="translate(-.28 3.21)" d="m426 274.22-199.78 116v66.312l196.81-115.94m6.25-131.16H298.19l-71.969 43.688v73.812zm-23.875 209.47c-55.761 32.779-124.05 73.293-178.78 106.03-.956 4.557.406 6.156.406 6.156 84.106-3.512 133.99-37.906 178.38-112.19z" fill="#ed1c24" fill-rule="evenodd" style="fill:#ed1c24"/><path d="M142.39 601.95c-4.4-49.267-5.097-101.39-10.304-150.58h104.3v293.8c-60.244-39.231-88.067-76.897-93.992-143.22z" fill="#ed1c24" style="fill:#ed1c24" transform="translate(-111.8 -238.73)"/><path transform="translate(-.28 3.21)" d="M293.78 209.44v309.81c21.672-9.356 36.099-15.256 52.906-29.562v-280.25z" fill="gold" fill-rule="evenodd" style="fill:#fd0"/></g><path transform="translate(-.28 3.21)" d="M234.84 1.313C172.186 1.99 115.55-1.115 4.4 27.125l16 180.62h411.59c4.366-56.356 8.439-121.39 13.688-184.19-29.564-8.81-139.99-23.017-210.84-22.25z" fill="#fd0" fill-rule="evenodd" style="fill:#fd0"/><g fill="#0c0a08"><path d="m422.78 358.79-8.814-1.507zM30.57 358.79l7.345-1.507zM228.88 533.56h-4.407 4.407-4.407z"/></g><path d="M0 23.96c5.38 99.081 17.654 220.33 25.878 334.84 7.666 106.73 95.779 179.03 200.79 178.09s192.21-81.032 198.61-178.09c7.365-111.75 16.536-223.18 25.125-334.84-138.69-29.607-304.44-34.199-450.41 0zm440.53 5.3c-7.267 110.13-15.05 219.41-22.317 329.54-6.032 91.418-91.578 174.41-191.54 173.09S39.393 461.499 33.063 358.8C26.005 244.33 16.366 138.69 8.017 28.74c139.9-31.755 297.42-23.781 432.51.517z"/><path d="M19.359 212.01h412.43M225.06 214.07v318.37" fill="none" stroke="#000" stroke-width="4.5"/><path d="M131.94 34.866c-1.78 1.668-2.725 1.283-4.406 3-1.598 1.517-2.938 2.368-2.938 4.531-10.532 5.009-7.095 16.76-2.937 21.094 9.58-6.423 16.42-.797 26.937 2.871-7.228-1.075-11.005 3.711-6.569 8.242 4.996-3.295 10.243-3.692 16.303-1.63 3.15 1.32 4.993 1.599 7.391 4.049-1.949 1.028-3.912 2.029-5.875 3.03 4.852.387 9.154-.358 11.75-3.03l2.938 3.03c2.63 3.389 5.002 6.945 7.344 10.532 0 2.51.775 4.245.775 6.756-3.126 3.709-8.45 4.615-11.056.775 2.676 6.245 10.236 7.118 14.688 3.031l5.875 7.531c.574 2.518 1.469 4.943 1.469 7.532-2.448 0-4.945-.486-7.344 0-2.453.496-6.524.912-7.344 3-1.235 3.147.419 5.822 1.469 9.062-1.503 1.184-2.118 2.826-2.937 4.5-4.508 3.13-9.909 3.95-14.688 3.031-1.89-.363-1.414-3.44-2.938-4.531-6.77-4.847-16.621-6.75-23.5-4.5-4.243 1.388-8.138 4.51-11.75 4.5-10.731-2.835-16.297-12.313-17.656-21.094-.15-.97 2.362-1.23 2.969-3 3.499 3.16 8.901 5.844 12.654 7.531 3.109 1.398 8.976.78 12.314-3.031 2.148-2.453.687-13.121-.905-15.062-5.579-6.809-15.409-8.362-22.596-12.031-2.19-3.752-3.926-12.852 0-13.562-4.772-5.058-9.276 4.778-10.094 8.094 0 0-55.629-41.705-57.5-42.75-.427-.239-1.122-.346-1.468 0-.354.353 0 1.5 0 1.5C44.51 38.947 79.78 66.32 99.368 80.29c-2.482.735-5.057 2.184-7.579 3.379-29.638-18.646-72.522-41.265-68.568-45.802-8.573 7.891-5.476 14.217 1.68 19.414 18.394 13.358 25.495 17.049 56.104 34.55-1.433 1.763-1.842 1.749-3.326 4.582-18.684-8.352-37.522-17.976-55.926-26.921h-1.469v1.531c18.271 9.764 37.348 19.222 56.519 27.051-.519 1.038-1.584 3.633-2.092 4.676-15.026-3.328-57.844-14.63-54.427-21.195-7.553 11.148-2.472 15.237 5.521 18.819 14.776 6.62 32.89 10.376 46.328 14.422 0 .901.274 2.212.274 2.99-15.67-2.26-44.382-6.96-50.655-7.606-.487-.05-1.205-.226-1.436.065-.339.426.089 1.187 1.436 1.435 15.996 2.948 36.713 5.68 50.655 7.714l.647 1.623c-16.96 1.809-48.25 4.119-49.832-.274-2.329 10.664 2.612 18.538 11.75 18.062 15.004-1.143 27.507-3.75 42.78-5.844l1.234 2.027c-17.797 4.333-50.972 12.57-52.827 12.88-1.163.193-1.938.224-1.938 1.37 0 1.857 1.019.882 1.938.919 4.673.189 35.224-9.017 53.894-13.804 0 .604 1.005 1.208 1.005 1.812-11.528 5.55-52.471 26.514-54.9 21.733-.307 7.115 3.42 15.756 10.282 13.355 19.486-6.821 35.385-15.56 54.445-24.749 1.48.75 2.497 1.6 3.98 2.342 0 0-54.62 28.133-62.831 31.647-.47.2-1.802 1.836-1.422 2.177 1.298 1.165 2.263 1.165 2.89.854 20.814-11.18 42.427-22.243 63.275-33.364 1.593 1.161 2.704 1.377 3.99 2.713-16.005 12.968-58.184 42.135-62.86 38.183 3.41 15.782 12.554 13.375 19.095 9.03 20.388-13.54 36.443-26.52 56.28-41.75 1.967.667 4.34 1.028 6.587 1.645-15.392 13.91-43.419 38.522-45.243 40.105-1.162 1.009-1.93 1.88-1.421 2.792.47.845 1.877 1.254 2.89.24 2.364-2.369 31.854-29.153 45.709-42.613.58.606 2.444.295 3.303.533-8.854 13.081-27.566 40.402-31.387 39.048 7.411 6.867 14.771 8.01 20.594 1.5 9.886-11.052 19.07-27.494 25.596-41.113 1.194.664 2.108 1.145 3.471 1.546-5.257 13.45-15.442 37.539-17.317 39.567-.82.887.027 1.687.388 2.048.692.692 1.712.273 2.55-.517 1.182-1.114 11.817-26.787 17.154-40.142 1.13.415 2.83.663 4.307.894-4.507 8.686-5.91 36.146-12.649 37.717 7.43 2.343 15.902 1.97 17.237-5.663 1.335-7.633 5.417-31.822 11.59-42.685l1.706-.822c-1.368 15.648-2.516 31.371-4.096 41.64-.362 2.349.43 2.157 1.081 2.435.45.192 1.75.247 1.856-.905.84-9.073 3.046-28.149 3.72-43.906 3.617-1.413 7.167-1.312 10.968-1.312 1.623-2.167 3.543-3.31 5.875-4.5 4.464 13.924 11.572 21.897 14.688 34.625.286 12.657-1.718 17.694-4.406 28.733h28.562v-109.23l-.656.656-8.813-12.062-2.937-6c3.892-1.92 5.977-7.459 2.937-10.562-.021 3.434-1.613 4.605-4.406 6.031-6.512-4.485-16.72-13.596-17.625-16.562-.149-.488 0-1.02 0-1.53 3.164-4.503 3.285-7.178 0-10.532.232 5.122-1.242 6.031-5.875 6.031l-14.688-10.562c2.887-3.91 1.367-7.843 0-12.03-1.248 5.733.023 6-5.875 6-8.612-2.445-14.27-4.835-22.03-7.532-5.17-.58-9.766.248-14.689 1.531z" fill-rule="evenodd"/><path d="M112.83 52.93c0-20.926 16.322-37.667 36.724-37.667s36.724 16.741 36.724 37.667c0 20.926-16.322 37.667-36.724 37.667S112.83 73.856 112.83 52.93z" fill="none" stroke="#0c0a08" stroke-linecap="square" stroke-miterlimit="10" stroke-width="2.975"/><path d="M219.77 296.04c1.96 6.207 5.04 10.599 9.337 10.711 5.759.15 18.599-2.466 23.428-3.044 3.403-.408 10.283 0 10.283 0v1.506s-6.868-.3-10.283 0c-4.67.41-17.916 3.437-23.335 3.382-6.716-.067-10.804-6.603-10.915-12.34-.01-.501 1.335-.693 1.486-.215z" fill="#ed1c24" style="fill:#ed1c24" transform="translate(-111.8 -238.73)"/><path d="M236.38 282.62c7.076 2.4 13.567 6.223 19.81 10.319 6.446 4.23 9.82 8.514 13.709 13.732-.422 1.4-1.545 2.445-2.392 3.104-5.676-.742-10.412-.047-13.682 2.819-2.98-6.379 3.115-7.106 7.373-7.402-9.033-6.828-23.397-9.589-27.579-4.407-4.402-6.446-4.042-14.528 2.76-18.165z" fill="#ed1c24" fill-rule="evenodd" stroke="#000" stroke-width="2" style="fill:#ed1c24" transform="translate(-111.8 -238.73)"/><path d="M228.88 212.64h-4.407 4.407-4.407z" fill="#0c0a08"/><g fill="#fff"><path d="M139.28 40.11c-1.845.688-2.962 2.403-4.343 3.7.878-.023 1.946.195 2.366 1.063 2.13 2.18 4.256 4.366 6.383 6.55 2.534.322 4.387-.671 4.406-3.032 1.552.925 2.763 1.531 4.407 1.531l-2.938-1.53c-1.423-3.424-3.95-5.546-6.32-7.976-1.078 1.441-1.343 3.395-.867 5.112.553.56 1.507 1.395.703 2.166-.548.671-1.422.128-1.282-.64-.471-2.613-2.32-4.652-2.515-6.944z" fill-rule="evenodd"/><path d="m84.28 88.62 3.487-2.667c-17.623-9.96-68.097-37.877-65.622-42.258C15.666 49.812 42.19 63.876 84.28 88.62zM72.83 110.59l.39-4.183c-19.326-6.02-53.873-13.916-53.656-19.818-4.13 7.894 10.012 10.88 53.266 24.001zM75.56 129.13l-1.447-4.22c-35.348 3.926-47.815 6.343-48.262 1.961-1.752 8.737 13.102 7.3 49.71 2.259zM87.34 145.02l-3.365-3.398c-39.131 19.504-51.556 26.502-53.38 22.336.395 10.742 16.235 2.026 56.745-18.938zM108.81 158.82l-4.736-2.393c-44.74 32.624-56.544 42.995-59.774 39.695 1.927 10.868 17.078-3.64 64.51-37.302zM134.76 163.11l-5.101.348c-20.536 32.742-25.888 41.244-29.99 38.69 6.677 9.771 16.117-8.129 35.09-39.038zM157.83 164.87l-3.974 1.025c-5.027 25.334-6.402 36.417-10.33 35.713 8.371 2.74 9.553-10.259 14.304-36.738z"/></g><path d="M317.95 34.31c1.78 1.667 2.725 1.283 4.406 3 1.598 1.517 2.938 2.367 2.938 4.53 10.532 5.01 7.095 16.76 2.937 21.095-9.58-6.424-16.42-.797-26.937 2.87 7.228-1.074 11.005 3.712 6.569 8.242-4.996-3.294-10.243-3.692-16.303-1.629-3.15 1.32-4.993 1.598-7.391 4.048 1.949 1.029 3.912 2.03 5.875 3.031-4.852.386-9.154-.358-11.75-3.03l-2.938 3.03c-2.63 3.388-5.002 6.944-7.344 10.531 0 2.51-.775 4.246-.775 6.756 3.126 3.71 8.45 4.615 11.056.776-2.676 6.245-10.236 7.118-14.688 3.03l-5.875 7.532c-.574 2.518-1.469 4.942-1.469 7.531 2.448 0 4.945-.485 7.344 0 2.453.496 6.524.913 7.344 3 1.235 3.147-.419 5.823-1.469 9.063 1.503 1.184 2.118 2.826 2.937 4.5 4.508 3.13 9.909 3.95 14.688 3.03 1.89-.363 1.414-3.44 2.938-4.53 6.77-4.848 16.621-6.75 23.5-4.5 4.243 1.387 8.138 4.51 11.75 4.5 10.731-2.835 16.297-12.313 17.656-21.094.15-.971-2.362-1.23-2.969-3-3.499 3.16-8.901 5.843-12.654 7.53-3.109 1.399-8.976.78-12.314-3.03-2.148-2.453-.687-13.121.905-15.062 5.579-6.809 15.409-8.362 22.596-12.031 2.19-3.752 3.926-12.852 0-13.562 4.772-5.058 9.276 4.778 10.094 8.093 0 0 55.629-41.705 57.5-42.75.427-.238 1.122-.346 1.468 0 .354.354 0 1.5 0 1.5-2.196 1.08-37.466 28.454-57.053 42.423 2.482.736 5.057 2.185 7.579 3.38 29.638-18.646 72.522-41.265 68.568-45.802 8.573 7.89 5.476 14.217-1.68 19.414-18.394 13.358-25.495 17.049-56.104 34.55 1.433 1.763 1.842 1.748 3.326 4.582 18.684-8.352 37.522-17.976 55.926-26.921h1.469v1.53c-18.271 9.765-37.348 19.223-56.519 27.052.519 1.037 1.584 3.633 2.092 4.675 15.026-3.327 57.844-14.629 54.427-21.195 7.553 11.148 2.472 15.237-5.521 18.82-14.776 6.62-32.89 10.375-46.328 14.421 0 .902-.274 2.213-.274 2.99 15.67-2.26 44.382-6.96 50.655-7.605.487-.05 1.205-.226 1.436.065.339.426-.089 1.187-1.436 1.435-15.996 2.947-36.713 5.68-50.655 7.714l-.647 1.623c16.96 1.808 48.25 4.119 49.832-.275 2.329 10.664-2.612 18.538-11.75 18.062-15.004-1.143-27.507-3.75-42.78-5.843l-1.234 2.026c17.797 4.334 50.972 12.571 52.827 12.88 1.163.194 1.938.225 1.938 1.37 0 1.858-1.019.882-1.938.92-4.673.188-35.224-9.018-53.894-13.804 0 .604-1.005 1.208-1.005 1.812 11.528 5.55 52.471 26.514 54.9 21.733.307 7.114-3.42 15.756-10.282 13.355-19.486-6.822-35.385-15.56-54.445-24.749-1.48.75-2.497 1.6-3.98 2.341 0 0 54.62 28.133 62.831 31.647.47.201 1.802 1.837 1.422 2.178-1.298 1.164-2.263 1.165-2.89.854-20.814-11.181-42.427-22.243-63.275-33.364-1.593 1.161-2.704 1.377-3.99 2.712 16.005 12.968 58.184 42.135 62.86 38.183-3.41 15.782-12.554 13.375-19.095 9.031-20.388-13.54-36.443-26.52-56.28-41.75-1.967.667-4.34 1.028-6.587 1.645 15.392 13.91 43.419 38.522 45.243 40.105 1.162 1.008 1.93 1.88 1.421 2.792-.47.844-1.877 1.254-2.89.24-2.364-2.37-31.854-29.154-45.709-42.614-.58.607-2.444.296-3.303.534 8.854 13.08 27.566 40.402 31.387 39.048-7.411 6.867-14.771 8.01-20.594 1.5-9.886-11.052-19.07-27.494-25.596-41.113-1.194.664-2.108 1.145-3.471 1.545 5.257 13.451 15.442 37.54 17.317 39.567.82.888-.027 1.688-.388 2.049-.692.692-1.712.272-2.55-.517-1.182-1.115-11.817-26.787-17.154-40.142-1.13.414-2.83.663-4.307.894 4.507 8.686 5.91 36.146 12.649 37.717-7.43 2.343-15.902 1.97-17.237-5.663-1.335-7.634-5.417-31.822-11.59-42.685l-1.706-.822c1.368 15.648 2.516 31.37 4.096 41.639.362 2.35-.43 2.158-1.081 2.435-.45.192-1.75.248-1.856-.904-.84-9.073-3.046-28.15-3.72-43.906-3.617-1.414-7.167-1.313-10.968-1.313-1.623-2.167-3.543-3.309-5.875-4.5-4.464 13.924-11.572 21.897-14.688 34.625-.286 12.657 1.718 17.694 4.406 28.733h-28.562V101.44l.656.657 8.813-12.062 2.937-6c-3.892-1.921-5.977-7.459-2.937-10.562.021 3.434 1.613 4.605 4.406 6.03 6.512-4.484 16.72-13.595 17.625-16.561.149-.488 0-1.02 0-1.531-3.164-4.502-3.285-7.177 0-10.531-.232 5.122 1.242 6.03 5.875 6.03l14.688-10.561c-2.887-3.91-1.367-7.843 0-12.031 1.248 5.734-.023 6 5.875 6 8.612-2.444 14.27-4.835 22.03-7.531 5.17-.58 9.766.248 14.689 1.53z" fill-rule="evenodd"/><path d="M337.06 52.374c0-20.926-16.322-37.667-36.724-37.667s-36.724 16.74-36.724 37.667c0 20.926 16.322 37.667 36.724 37.667S337.06 73.3 337.06 52.374z" fill="none" stroke="#0c0a08" stroke-linecap="square" stroke-miterlimit="10" stroke-width="2.975"/><path d="M219.77 296.04c1.96 6.207 5.04 10.599 9.337 10.711 5.759.15 18.599-2.466 23.428-3.044 3.403-.408 10.283 0 10.283 0v1.506s-6.868-.3-10.283 0c-4.67.41-17.916 3.437-23.335 3.382-6.716-.067-10.804-6.603-10.915-12.34-.01-.501 1.335-.693 1.486-.215z" fill="#ed1c24" style="fill:#ed1c24" transform="matrix(-1 0 0 1 561.69 -239.286)"/><path d="M236.38 282.62c7.076 2.4 13.567 6.223 19.81 10.319 6.446 4.23 9.82 8.514 13.709 13.732-.422 1.4-1.545 2.445-2.392 3.104-5.676-.742-10.412-.047-13.682 2.819-2.98-6.379 3.115-7.106 7.373-7.402-9.033-6.828-23.397-9.589-27.579-4.407-4.402-6.446-4.042-14.528 2.76-18.165z" fill="#ed1c24" fill-rule="evenodd" stroke="#000" stroke-width="2" style="fill:#ed1c24" transform="matrix(-1 0 0 1 561.69 -239.286)"/><path d="M221.01 212.084h4.407-4.407 4.407z" fill="#0c0a08"/><g fill="#fff"><path d="M310.61 39.554c1.845.688 2.962 2.402 4.343 3.7-.878-.024-1.946.195-2.366 1.063-2.13 2.18-4.256 4.366-6.383 6.549-2.534.323-4.386-.67-4.406-3.031-1.552.925-2.763 1.531-4.407 1.531l2.938-1.531c1.424-3.424 3.95-5.545 6.32-7.976 1.078 1.442 1.343 3.396.867 5.113-.553.559-1.507 1.394-.703 2.166.548.671 1.423.127 1.282-.64.471-2.613 2.32-4.653 2.515-6.944z" fill-rule="evenodd"/><path d="m365.61 88.064-3.487-2.667c17.623-9.961 68.097-37.877 65.622-42.258 6.479 6.116-20.045 20.18-62.135 44.925zM377.06 110.034l-.39-4.183c19.326-6.021 53.873-13.916 53.656-19.818 4.13 7.893-10.012 10.88-53.266 24zM374.33 128.574l1.447-4.22c35.348 3.926 47.815 6.342 48.262 1.961 1.752 8.736-13.102 7.299-49.71 2.259zM362.55 144.464l3.365-3.398c39.131 19.504 51.556 26.502 53.38 22.336-.395 10.742-16.235 2.025-56.745-18.938zM341.08 158.264l4.736-2.393c44.74 32.624 56.544 42.995 59.774 39.695-1.927 10.868-17.078-3.64-64.51-37.302zM315.13 162.554l5.101.348c20.536 32.742 25.888 41.244 29.99 38.69-6.677 9.77-16.117-8.13-35.09-39.038zM292.06 164.314l3.974 1.025c5.027 25.334 6.402 36.417 10.33 35.713-8.371 2.739-9.553-10.26-14.304-36.738z"/></g></svg>