<svg viewBox="0 0 200 222" xmlns:xlink="http://www.w3.org/1999/xlink" xmlns="http://www.w3.org/2000/svg"><g stroke="#000" fill="#fff"><use xlink:href="#a" height="222" width="200" stroke-width="5" style="fill:#ed1c24"/><g id="a"><path d="m5 85.6 29.1-65.96L68.4 85.6l32.2-66 33.61 66 30.57-65.92 33.6 65.9v7.77l-193.5-.02v-7.74" transform="translate(-1.45 -.49)"/><g fill="#da121a"><path d="m34.1 19.64 34.53 65.95 32-65.95 33.6 65.95 30.58-65.95 33.6 65.95V2.99H4.91v82.6zM101.5 93.4v126.2c41.58.49 65.7-17.75 81.2-38.65s15.85-48.4 15.79-87.5z" style="fill:#ed1c24" transform="translate(-1.45 -.49)"/></g><path fill="#0f47af" d="M101.5 93.4v126.2c-41.6.5-65.1-17.8-80.7-38.8C5.28 159.9 5 132.5 4.95 93.4z" style="fill:#0066b3" transform="translate(-1.45 -.49)"/></g><path fill="#fcdd09" d="M15.66 111.3c-.83 3.15-.32 5.29.39 6.76l41.64 86.4-1.25 2.08-2.5-.42-42-85.94c-1.02-2.08-2.5-3.11-5.64-4.62l1.4-9.59z" style="fill:#fd0"/><path d="m13.52 125.5 27.3-13.3 12.69 25.54 27.2-12.88 4.91 10.1-6.83 3.32 2.81 5.8 6.82-3.31 5.22 10.75-27.32 13.27-12.84-26.68-27.39 13.28-4.64-9.58 3.95-1.91-3.51-7.26-3.97 1.94-4.38-9.1z"/><path fill="#da121a" d="m26.1 151.4 4.45 9.19 3.95-1.91 3.69 7.6-3.94 1.91 4.79 9.88 27.3-13.25-12.92-26.65 27.31-13.27-5.09-10.47-6.82 3.31-2.64-5.44 6.82-3.32L68.16 99l-27.64 13.41 12.91 25.75-27.31 13.25z" style="fill:#ed1c24"/><circle cy="146.2" cx="146.3" r="44.2"/><circle cy="146.2" cx="146.3" r="38.2" fill="#da121a" style="fill:#ed1c24"/><path d="M150.3 184s-3.26 1.56-8.81.11c0 .09-.12-3.25 1.85-4.8 1.21-.89 2.95-1.27 4.74.1 2.69 2.06 2.23 4.59 2.23 4.59z"/><path d="M143.2 158.2c0-.02 5.41-.23 5.45-.15 3.17 6.53-.39 13.1-.42 21.36 0 .06-1.38.43-2.53.44-1.17 0-2.23-.59-2.22-.61.33-8.17-2.91-14.24-.27-21z"/><path d="M148.6 158.2s.91-1.19-.04-2.53c-.03-.04-5.25-.07-5.37.05-1.04 1.12-.23 2.45-.23 2.45l5.65.03zM115 168s-2.92-2.12-4.28-7.7c-.08.04 2.81-1.66 5.1-.66 1.36.64 2.52 2 2.16 4.22-.53 3.34-2.98 4.14-2.98 4.14z"/><path d="M134.2 149.4c.03 0 2.78 4.65 2.72 4.72-4.24 5.89-11.72 5.89-18.99 9.79-.05.03-1.03-1-1.59-2-.57-1.02-.54-2.24-.52-2.25 7.34-3.59 11.14-9.33 18.38-10.24z"/><path d="M136.9 154.3s1.48.23 2.21-1.24c.02-.05-2.43-4.66-2.6-4.7-1.48-.38-2.26.96-2.26.96l2.65 4.98zM111.8 130s.4-3.59 4.58-7.53c-.08-.05 2.83 1.62 3.09 4.11.12 1.49-.49 3.18-2.59 3.96-3.17 1.19-5.08-.54-5.08-.54z"/><path d="M137.5 137.6c.02.02-2.67 4.71-2.76 4.7-7.22-.77-10.92-7.28-17.9-11.66-.05-.03.37-1.4.97-2.38.61-1 1.68-1.58 1.7-1.56 6.76 4.61 13.62 5.07 17.99 10.91z"/><path d="M134.6 142.3s.53 1.4 2.17 1.31c.05 0 2.84-4.42 2.8-4.58-.4-1.47-1.95-1.49-1.95-1.49l-3 4.77M142 108.7s3.26-1.56 8.81-.11c0-.09.12 3.25-1.84 4.8-1.21.89-2.95 1.27-4.74-.1-2.69-2.06-2.23-4.59-2.23-4.59z"/><path d="M149.2 134.5c0 .02-5.41.23-5.45.15-3.17-6.53.39-13.1.41-21.36 0-.06 1.38-.43 2.53-.44 1.17 0 2.23.59 2.22.61-.33 8.17 2.92 14.24.28 21z"/><path d="M143.7 137c.03.04 5.25.07 5.37-.05 1.04-1.12.23-2.45.23-2.45h-5.6s-.9 1.2.04 2.53zM181.6 131.6c.08-.05-2.77 1.72-5.09.77-1.37-.61-2.56-1.94-2.26-4.17.46-3.36 2.9-4.2 2.9-4.2s2.97 2.06 4.46 7.61z"/><path d="M158.3 143c-.03 0-2.88-4.59-2.83-4.66 4.11-5.99 11.59-6.15 18.76-10.21.05-.03 1.06.99 1.64 1.98.59 1 .59 2.23.57 2.24-7.26 3.76-10.93 9.58-18.1 10.65z"/><path d="M155.6 138.2s-1.49-.19-2.18 1.29c-.02.05 2.54 4.6 2.7 4.64 1.48.35 2.24-1 2.24-1l-2.76-4.92zM180.1 163.4s-1.87-1.77-5.06-.65c-2.13.75-2.77 2.41-2.68 3.91.21 2.49 3.08 4.22 3 4.17 4.25-3.85 4.74-7.43 4.74-7.43"/><path d="M154.6 155.3c-.02-.02 2.76-4.66 2.85-4.64 7.2.92 10.76 7.5 17.65 12 .05.03-.4 1.39-1.02 2.36-.63.99-1.71 1.54-1.73 1.53-6.66-4.75-13.52-5.35-17.76-11.28z"/><path d="M157.6 150.7s-.51-1.41-2.15-1.35c-.05 0-2.93 4.36-2.89 4.52.36 1.48 1.92 1.53 1.92 1.53l3.12-4.71"/><circle cy="146.3" cx="146.3" r="9.35"/><circle cy="146.3" cx="146.4" r="4.27" fill="#da121a" style="fill:#ed1c24"/><g stroke-width=".5" transform="translate(0 -.5)"><circle cy="105.6" cx="146.3" r="1.3"/><circle cy="124.9" cx="110.9" r="1.3"/><circle cy="126.7" cx="182.5" r="1.3"/><circle cy="165.9" cx="109.6" r="1.3"/><circle cy="188.1" cx="146.3" r="1.3"/><circle cy="169.4" cx="180.7" r="1.3"/></g></g></svg>