<svg width="392.53" height="444.004" version="1.0" xmlns="http://www.w3.org/2000/svg"><path d="M453.21 314.487c-5.699 97.677-90.921 175.175-190.447 175.175S77.14 412.413 75.54 313.438L71.364 55.2H454.35l-1.14 259.287z" style="fill:#fff;fill-opacity:1;fill-rule:nonzero;stroke:#000;stroke-width:9.54268551;stroke-linecap:butt;stroke-linejoin:miter;stroke-miterlimit:4;stroke-dasharray:none;stroke-opacity:1" transform="translate(-66.592 -50.429)"/><path d="M262.825 487.747V55.376" style="fill:none;fill-rule:evenodd;stroke:#000;stroke-width:4.72111654;stroke-linecap:butt;stroke-linejoin:miter;stroke-miterlimit:4;stroke-dasharray:none;stroke-opacity:1" transform="translate(-66.592 -50.429)"/><path d="M260.904 249.137H76.074" style="fill:none;fill-rule:evenodd;stroke:#000;stroke-width:4.77332926;stroke-linecap:butt;stroke-linejoin:miter;stroke-miterlimit:4;stroke-dasharray:none;stroke-opacity:1" transform="translate(-66.592 -50.429)"/><path style="fill:#000;fill-opacity:1;fill-rule:nonzero;stroke:#000;stroke-width:4.91704512;stroke-linecap:round;stroke-miterlimit:4;stroke-dasharray:none;stroke-dashoffset:5.2;stroke-opacity:1" d="M169.705 60.742h89.865v91.077h-89.865z" transform="translate(-66.592 -50.429)"/><path style="fill:#000;fill-opacity:1;fill-rule:nonzero;stroke:#000;stroke-width:4.85443592;stroke-linecap:round;stroke-miterlimit:4;stroke-dasharray:none;stroke-dashoffset:5.2;stroke-opacity:1" d="M77.279 156.163h88.313v90.332H77.279z" transform="translate(-66.592 -50.429)"/><path d="m91.417 373.103 25.832-75.074 27.447 74.267 29.06-74.267 29.869 73.46 28.253-75.074 29.869 75.88-.404-121.893-184.456.403s-1.514 34.611 1.614 65.79c1.564 15.59 4.795 28.774 7.631 39.947 2.486 9.792 5.285 16.561 5.285 16.561z" style="fill:#ed1c24;fill-rule:evenodd;stroke:#000;stroke-width:2.00898647px;stroke-linecap:butt;stroke-linejoin:miter;stroke-opacity:1" transform="translate(-66.592 -50.429)"/><path d="M448.586 313.008c-5.5 95.749-87.746 171.97-183.795 171.717l-.08-425.884h184.976l-1.1 254.167z" style="fill:#fd0;fill-opacity:1;fill-rule:nonzero;stroke:none;stroke-width:4.75;stroke-linecap:butt;stroke-linejoin:miter;stroke-miterlimit:4;stroke-dasharray:none;stroke-opacity:1" transform="translate(-66.592 -50.429)"/><path d="M329.44 81.18c2 1.795.551 6.004-3.313 8.28-3.864 2.278-10.142 2.623-12.143.829-2.001-1.794.276-5.727 4.14-8.004 3.863-2.277 9.314-2.898 11.315-1.104z" style="fill:#fff;fill-opacity:1;fill-rule:evenodd;stroke:#000;stroke-width:2.05426693px;stroke-linecap:butt;stroke-linejoin:miter;stroke-opacity:1" transform="translate(-66.592 -50.429)"/><path d="M364.49 400.227c2.553-1.311 5.796 2.277 5.244 6.348-.552 4.07-4.35 10.314-7.452 9.935-2.829-.345-1.932-.62-2.76-4.691-.819-4.026 2.415-10.281 4.968-11.592zM337.167 401.33c.552 2.968 2.622 1.588 5.52-.551 2.898-2.14 5.244-4.968 6.071-8.004.828-3.036-.69-3.174-2.76-4.14-2.07-.966-1.855-1.948-5.52.276-3.863 2.346-3.863 9.453-3.311 12.42zM389.881 386.151c2.553-.966 2.484 3.588 3.036 7.728s.07 7.314-.828 8.832c-.897 1.518-.414-1.518-2.76-2.76-2.346-1.242-6.762 1.242-6.624-2.208.138-3.45 4.623-10.626 7.176-11.592zM403.405 372.352c-.621 2.208-7.659 1.656-10.488-.828-2.829-2.484-3.38-9.384-.828-9.108 2.28.247-.345-1.656 3.312.276 3.874 2.047 8.625 7.452 8.004 9.66z" style="fill:#ed1c24;fill-opacity:1;fill-rule:evenodd;stroke:none;stroke-width:1px;stroke-linecap:butt;stroke-linejoin:miter;stroke-opacity:1" transform="translate(-66.592 -50.429)"/><path style="fill:#000" d="m263.24 318.66-.03-168.766 7.243-12.815c6.729-11.905 7.008-13.076 3.924-16.483-3.094-3.42-2.924-3.878 2.514-6.764 6.536-3.467 17.132-12.968 17.132-15.361 0-.859-1.028-2.59-2.286-3.847-2.911-2.911-.607-6.752 4.051-6.752 6.014 0 8.025-3.908 6.944-13.496-1.054-9.346 1.013-11.633 5.562-6.152 2.521 3.038 6.298 4.057 23.41 6.317 7.601 1.004 11.841 3.095 17.972 8.863 4.412 4.152 8.024 8.591 8.026 9.865.002 1.274 1.39 3.467 3.085 4.874 1.695 1.406 3.081 4.325 3.081 6.487 0 5.408-5.404 12.352-9.14 12.352-2.147 0 2.092-1.138-1.688-10.265-2.114-5.103-7.294-2.411-12.687-2.411-7.022 0-19.182 12.79-14.078 11.717 6.093-1.281 17.836 5.229 16.526 6.539-.719.718-10.165 5.394-15.281 5.426-7.578.047-10.209 1.113-14.202 5.755-2.695 3.134-5.484 9.347-6.197 13.808-.714 4.461-2.103 8.111-3.089 8.111-.985 0-1.792-.979-1.792-2.175 0-1.197-.897-1.62-1.994-.943-1.097.678-2.603 5.817-3.346 11.42-1.48 11.156-2.18 11.924-6.049 6.634-2.267-3.1-2.784-2.305-4.069 6.258-1.785 11.904-.4 13.78 5.841 7.917 3.263-3.066 7.355-4.46 13.093-4.46 9.505 0 12.421 2.58 14.151 12.522 2.115 12.155 2.364 12.51 6.824 9.724 2.2-1.374 4.567-5.515 5.259-9.202 1.7-9.061 10.349-15.73 18.51-14.272 5.054.903 7.565-.161 13.408-5.68 16.365-15.457 16.043-14.265 7.292-26.972-6.132-8.904-7.462-12.41-6.364-16.782 2.019-8.045 16.096-27.54 19.085-26.433 3.582 1.328 8.265-8.668 9.926-21.188 1.558-11.747 4.669-13.487 9.883-5.53 3.494 5.334 4.643 25.43 1.654 28.936-.915 1.073-2.795 4.604-4.177 7.846-2.17 5.093-2.083 5.73.637 4.687 2.173-.834 3.15.046 3.15 2.835 0 7.08 3.88 4.386 10.45-7.254 7.232-12.816 9.78-15.096 12.345-11.048 5.677 8.963-.682 32.238-13.396 49.03-2.984 3.941-4.466 7.487-3.291 7.878 1.174.392 1.612 1.557.973 2.59-3.402 5.506 16.659-3.765 22.777-10.525 2.006-2.216 5.352-4.03 7.437-4.03 5.556 0 4.817 7.778-1.664 17.498-7.115 10.672-10.135 13.404-21.251 19.224-6.604 3.458-9.326 6.188-9.53 9.558-.35 5.811 3.598 7.065 22.369 7.103 13.303.027 13.866.23 13.866 5.015 0 2.98-2.274 6.797-5.65 9.486-5.191 4.135-7.187 4.4-24.65 3.285-15.435-.986-19.002-.677-19.002 1.642 0 1.57-1.156 3.287-2.568 3.814-3.29 1.23 24.669 29.88 37.968 38.909 12.248 8.314 12.13 12.615-.374 13.509-13.172.941-21.832-4.273-44.783-26.965-9.394-9.289-10.784-10.067-10.785-6.04 0 2.541-.925 4.621-2.055 4.621-3.844 0-2.07 5.42 5.096 15.56 3.933 5.565 8.324 11.823 9.758 13.906 7.899 11.473 11.753 16.087 16.668 19.953 3 2.36 5.455 5.356 5.455 6.658 0 1.302 5.92 8.399 13.157 15.771 11.3 11.513 12.904 14.057 11.364 18.027-2.792 7.2-11.723 5.965-24.7-3.416-16.013-11.576-32.104-30.615-54.262-64.204-3.758-5.697-5.99-7.266-9.16-6.437-2.304.603-4.172 1.681-4.15 2.397.04 1.27 6.307 11.966 24.153 41.216 4.833 7.921 12.506 18.7 17.051 23.951 10.608 12.256 10.023 16.055-2.598 16.87-8.946.579-10.19.015-18.47-8.368-10.557-10.689-20.655-24.853-35.074-49.198-5.836-9.854-11.227-16.92-11.98-15.701-.761 1.232-3.307 1.6-5.734.83-5.886-1.869-5.377.594 1.881 9.085 7.102 8.308 7.697 11.25 1.971 9.753-2.26-.59-4.109-.41-4.109.404 0 1.978 10.268 11.416 15.407 14.163 4.023 2.15 4.01 2.233-.575 3.938-4.47 1.663-4.172 2.185 6.54 11.432 6.172 5.33 12.209 9.69 13.414 9.69s2.191.924 2.191 2.054-2.806 2.054-6.235 2.054c-5.816 0-6.072.311-3.807 4.622 4.474 8.52 25.155 28.246 29.612 28.246 2.372 0 6.977-2.78 10.234-6.18 5.119-5.343 6.912-6.004 13.224-4.876 8.752 1.565 14.492 6.134 14.492 11.538 0 3.295-.994 3.735-5.967 2.643-3.424-.752-6.54-.384-7.312.864-.739 1.196-5.041 2.174-9.56 2.174-4.956 0-7.714.816-6.948 2.054.698 1.13 4.797 2.055 9.109 2.055 7.136 0 7.954.575 9.122 6.42 2.141 10.702 1.533 16.177-1.797 16.177-1.695 0-3.081-.925-3.081-2.055 0-1.13-1.736-2.054-3.857-2.054-2.122 0-5.008-1.386-6.415-3.081-3.672-4.425-9.05-4.04-7.176.513.814 1.978 1.836 4.982 2.271 6.677 1.043 4.06-8.843 15.062-12.332 13.723-3.56-1.366-5.48-11.386-3.97-20.699.661-4.072.557-7.404-.232-7.404-.788 0-4.485 3.235-8.215 7.19-8.154 8.647-13.485 9.418-13.485 1.952 0-8.71 5.463-16.88 12.29-18.379 3.409-.748 6.198-1.75 6.198-2.225 0-.475-5.583-6.447-12.408-13.271-17.822-17.823-24.569-19.446-24.569-5.913 0 2.167-.924 3.94-2.054 3.94s-2.054-2.804-2.054-6.23c0-7.114-9.539-27.333-12.137-25.728-.945.585-2.26-2.269-2.92-6.341-1.133-6.978-6.348-15.112-9.69-15.112-3.284 0-8.122 17.182-8.122 28.848 0 11.603.503 12.874 8.523 21.575 6.037 6.55 11.128 9.902 17.461 11.497 4.916 1.238 8.939 3.023 8.939 3.968 0 3.855-14.655 4.41-23.837.904-5.105-1.95-9.741-3.084-10.304-2.522-2.287 2.288 5.348 15.543 11.46 19.895 5.49 3.91 8.14 4.447 16.486 3.34 9.025-1.197 9.85-.964 8.939 2.522-.739 2.825.685 4.54 5.385 6.488 14.527 6.017 18.793 21.286 9.15 32.747-3.911 4.648-7.069 6.32-11.933 6.32-7.114 0-15.59-4.82-13.012-7.399.864-.864 2.666-.477 4.003.86 3.493 3.493 11.224 2.994 12.687-.819 3.391-8.836-1.837-17.98-11.694-20.455-5.608-1.407-5.605-1.41-8.957 9.321-.714 2.286-1.817 1.669-4.285-2.4-3.578-5.896-18.093-15.15-19.665-12.537-2.596 4.319 4.186 15.672 11.934 19.977 5.609 3.116 9.108 6.947 11.08 12.13 3.137 8.24 1.733 12.329-2.352 6.852-2.475-3.319-22.005-10.38-23.785-8.6-.488.488.624 3.195 2.472 6.015 4.637 7.077 4.216 8.975-1.738 7.836-4.079-.78-5.517.126-7.19 4.527-1.15 3.026-2.106 8.909-2.124 13.072-.017 4.163-2.583 8.956-3.678 10.651-1.295 2.003-.347-55.967-.367-165.685zm103.957 86.5c-.63-1.642-1.999-2.986-3.041-2.986-2.43 0-4.935 9.792-3.217 12.571 1.85 2.995 7.667-5.913 6.258-9.584zm-20.374-10.517c.665-1.735-.08-3.968-1.657-4.963-3.37-2.125-8.003 3-8.003 8.85 0 3.187.671 3.43 4.224 1.528 2.324-1.243 4.77-3.68 5.436-5.415zm44.811-2.312c-1.343-5.353-1.503-5.411-4.309-1.573-3.74 5.115-3.69 7.308.167 7.308 1.695 0 3.155 1.155 3.244 2.568.124 1.962.413 1.942 1.228-.088.586-1.461.437-5.158-.33-8.215zm8.195-25.067c-4.699-5.192-7.2-5.246-7.2-.155 0 2.524 1.68 4.234 4.621 4.704 6.416 1.025 6.881.205 2.58-4.548zM325.783 87.159c2.402-1.756 2.984-3.263 1.592-4.123-3.063-1.894-13.337 2.32-11.784 4.833 1.76 2.847 5.703 2.572 10.192-.71z" transform="translate(-66.592 -50.429)"/><path d="M334.233 105.535s1.598 2.27 6.78 5.607c5.183 3.337 8.377 5.254 11.643 8.52 3.265 3.265 7 5.575 5.794 6.64-1.207 1.064-6.362-2.04-9.06-3.53-2.917-1.613-5.851-6.213-11.033-9.692-5.182-3.478-13.049-.341-13.049-.341l8.925-7.204z" style="fill:#ed1c24;fill-opacity:1;fill-rule:evenodd;stroke:#000;stroke-width:1.23256016;stroke-linecap:butt;stroke-linejoin:miter;stroke-miterlimit:4;stroke-dasharray:none;stroke-opacity:1" transform="translate(-66.592 -50.429)"/></svg>