<?xml version="1.0" encoding="UTF-8" standalone="no"?>
<!-- Created with Inkscape (http://www.inkscape.org/) -->
<svg
   xmlns:svg="http://www.w3.org/2000/svg"
   xmlns="http://www.w3.org/2000/svg"
   version="1.0"
   width="600"
   height="600"
   id="svg8150"
   style="display:inline">
  <defs
     id="defs8152" />
  <g
     transform="translate(-78.965574,-246.52966)"
     id="layer4"
     style="opacity:1">
    <g
       transform="translate(27.693136,23.049225)"
       id="g9296">
      <g
         transform="translate(2.8571429,5.7142857)"
         id="g8744">
        <path
           d="M 348.32931,243.69392 L 77.608431,243.69392 L 105.8927,617.45036 C 124.12258,724.06591 225.08657,785.54471 348.32931,793.21691"
           id="path8231"
           style="fill:#d3d8db;fill-opacity:1;fill-rule:evenodd;stroke:#000000;stroke-width:3;stroke-linecap:butt;stroke-linejoin:miter;stroke-miterlimit:4;stroke-dasharray:none;stroke-opacity:1" />
        <path
           d="M 347.75945,243.69393 L 619.22216,243.69393 L 590.93789,617.45037 C 572.70801,724.06592 471.29759,785.54472 348.05485,793.21692"
           id="path8742"
           style="fill:#d3d8db;fill-opacity:1;fill-rule:evenodd;stroke:#000000;stroke-width:3;stroke-linecap:butt;stroke-linejoin:miter;stroke-miterlimit:4;stroke-dasharray:none;stroke-opacity:1" />
      </g>
      <path
         d="M 110.59647,626.07782 A 1.5,1.5 0 1 1 107.59647,626.07782 A 1.5,1.5 0 1 1 110.59647,626.07782 z"
         id="path8748"
         style="fill:#000000;stroke:none" />
      <path
         d="M 587.38849,627.08795 A 1.5,1.5 0 1 1 584.38849,627.08795 A 1.5,1.5 0 1 1 587.38849,627.08795 z"
         id="path8750"
         style="fill:#000000;stroke:none" />
      <path
         d="M 523.25902,739.2149 L 461.63971,651.33162 L 404.06102,732.14383 L 344.46202,653.35193 L 286.88332,731.13367 L 230.31478,651.33162 L 167.68532,729.11337 C 129.79823,700.49493 120.0197,661.59271 108.84393,622.28974 L 592.95955,626.58289 C 591.06521,671.02417 562.27727,703.85102 523.25902,739.2149 z"
         id="path8752"
         style="fill:#ff0000;fill-rule:evenodd;stroke:#000000;stroke-width:3;stroke-linecap:butt;stroke-linejoin:miter;stroke-miterlimit:4;stroke-dasharray:none;stroke-opacity:1" />
      <path
         d="M 347.14286,249.50504 L 347.14286,436.6479 L 423.44888,436.6479 L 423.19634,249.75758 L 347.14286,249.50504 z"
         id="path8758"
         style="fill:#000000;fill-rule:evenodd;stroke:#000000;stroke-width:1px;stroke-linecap:butt;stroke-linejoin:miter;stroke-opacity:1" />
      <path
         d="M 265.71429,436.6479 L 265.71429,622.36218 L 346.72444,622.36218 L 346.72444,436.6479 L 265.71429,436.6479 z"
         id="path8760"
         style="fill:#000000;fill-rule:evenodd;stroke:#000000;stroke-width:1px;stroke-linecap:butt;stroke-linejoin:miter;stroke-opacity:1" />
      <path
         d="M 426.28437,251.31121 L 622.75904,249.54345 L 617.96082,306.8696 L 424.26407,307.87976 L 426.28437,251.31121 z"
         id="path8762"
         style="fill:#000000;fill-rule:evenodd;stroke:#000000;stroke-width:1px;stroke-linecap:butt;stroke-linejoin:miter;stroke-opacity:1" />
      <path
         d="M 421.73869,376.82266 L 613.1626,376.06505 L 607.10168,434.14882 L 417.44554,435.91659 L 421.73869,376.82266 z"
         id="path8764"
         style="fill:#000000;fill-rule:evenodd;stroke:#000000;stroke-width:1px;stroke-linecap:butt;stroke-linejoin:miter;stroke-opacity:1" />
      <path
         d="M 423.25392,501.82905 L 601.04076,501.82905 L 597.00015,562.4382 L 424.26407,561.42805 L 423.25392,501.82905 z"
         id="path8766"
         style="fill:#000000;fill-rule:evenodd;stroke:#000000;stroke-width:1px;stroke-linecap:butt;stroke-linejoin:miter;stroke-opacity:1" />
      <path
         d="M 426.28437,306.8696 L 618.21336,306.8696 L 612.15244,376.57013 L 426.28437,376.57013 L 426.28437,306.8696 z"
         id="path8768"
         style="fill:#a39d58;fill-opacity:1;fill-rule:evenodd;stroke:#000000;stroke-width:1px;stroke-linecap:butt;stroke-linejoin:miter;stroke-opacity:1" />
      <path
         d="M 423.25392,436.16913 L 424.26407,500.8189 L 602.30346,500.8189 L 607.10168,435.15898 L 423.25392,436.16913 z"
         id="path8770"
         style="fill:#a39d58;fill-opacity:1;fill-rule:evenodd;stroke:#a39d58;stroke-width:1px;stroke-linecap:butt;stroke-linejoin:miter;stroke-opacity:1" />
      <path
         d="M 424.26407,561.42805 L 423.25392,624.0575 L 591.82312,625.82527 L 598.01031,559.40774 L 424.26407,561.42805 z"
         id="path8772"
         style="fill:#a39d58;fill-opacity:1;fill-rule:evenodd;stroke:#a39d58;stroke-width:1px;stroke-linecap:butt;stroke-linejoin:miter;stroke-opacity:1" />
      <path
         d="M 553.31106,626.83542 L 568.2108,626.58288 C 565.19452,618.14855 573.1588,606.70562 582.1004,596.27831 C 553.51424,585.11737 567.63554,575.51708 569.97857,573.80241 C 569.78249,581.67516 571.2505,587.74514 579.06995,586.9344 C 585.69227,585.51002 587.13601,582.29701 585.13087,574.56003 C 585.13087,574.56003 591.62204,571.07678 590.43416,565.46866 C 588.6874,557.22205 580.58518,558.90266 580.58518,558.90266 C 580.58518,558.90266 579.86916,548.37837 571.74634,550.82144 C 561.96521,553.76328 567.45319,566.98388 567.45319,566.98388 C 563.22661,564.42791 544.7294,563.21099 571.4938,537.43692 C 536.41804,523.63427 551.86172,515.27636 553.81613,511.17296 C 553.81613,511.17296 558.59432,520.82659 564.42274,519.00164 C 572.06272,516.60947 570.98873,507.88996 570.98873,507.88996 C 570.98873,507.88996 586.19924,511.47598 582.73175,496.27321 C 580.10041,484.73643 567.95827,494.50544 567.95827,494.50544 C 567.95827,494.50544 562.96596,484.80867 554.82629,487.43437 C 547.7273,489.72436 550.78568,501.32397 550.78568,501.32397 C 546.11027,500.48093 531.29737,489.57855 553.5636,474.30239 C 534.08774,468.66711 525.91496,460.48864 533.36054,448.79604 C 533.36054,448.79604 534.30852,464.63118 548.00776,459.65518 C 555.32335,456.99792 552.04837,446.01812 552.04837,446.01812 C 552.04837,446.01812 562.84199,441.20303 559.11944,433.13867 C 553.91852,421.87165 543.20953,431.87598 543.20953,431.87598 C 543.20953,431.87598 540.67692,420.85819 532.85547,424.29984 C 524.2238,428.09801 531.0877,441.72497 531.0877,441.72497 C 529.28389,440.81041 511.13111,441.63954 526.16321,413.69324 C 490.83868,407.99573 507.86452,390.17627 510.37957,391.97496 C 511.75752,392.96042 513.72404,403.94778 524.01663,399.04602 C 531.3733,395.54247 524.26917,386.16658 524.26917,386.16658 C 524.26917,386.16658 540.37422,386.43395 535.63338,374.54983 C 530.65815,362.07813 518.20826,372.27698 518.20826,372.27698 C 518.20826,372.27698 513.41973,362.61717 504.82374,367.22622 C 497.97325,370.89936 506.33896,385.15643 506.33896,385.15643 C 497.96774,383.32048 482.92758,383.38164 503.56104,355.862 C 469.99926,359.75248 480.3816,341.49082 480.58007,337.93179 C 480.58007,337.93179 486.69798,351.68403 496.99505,345.50794 C 504.71937,340.87496 498.00521,332.12342 498.00521,332.12342 C 498.00521,332.12342 509.8895,322.87138 505.32881,316.46605 C 500.44889,309.61238 489.67145,317.47621 489.67145,317.47621 C 489.67145,317.47621 482.91822,308.08737 476.53946,311.66783 C 469.14804,315.8167 475.02423,328.33534 475.02423,328.33534 C 468.41291,330.67366 451.53452,325.80793 468.45824,303.83915 C 443.19411,305.90145 442.61885,292.02434 449.77042,284.64625 C 449.77042,284.64625 453.02543,295.42799 460.8821,290.45462 C 467.60081,286.20159 463.15494,277.0701 463.15494,277.0701 C 463.15494,277.0701 473.17612,275.18949 466.43794,265.20081 C 460.42707,256.29029 453.55849,263.68558 453.55849,263.68558 C 453.55849,263.68558 451.17432,256.77994 444.71966,260.65512 C 438.05194,264.65821 443.70951,276.31249 443.70951,276.31249 C 437.43878,278.45462 431.90814,275.41611 426.28437,273.02949 L 426.28437,307.12214 C 499.27195,405.67228 531.58725,519.51567 553.31106,626.83542 z"
         id="path8776"
         style="fill:#00ad77;fill-opacity:1;fill-rule:evenodd;stroke:#000000;stroke-width:1px;stroke-linecap:butt;stroke-linejoin:miter;stroke-opacity:1" />
      <path
         d="M 80.812204,248.78583 L 265.67012,249.03837 L 265.67012,623.04735 L 108.08632,623.04735 L 80.812204,248.78583 z"
         id="path9082"
         style="fill:#a39d58;fill-opacity:1;fill-rule:evenodd;stroke:#000000;stroke-width:1px;stroke-linecap:butt;stroke-linejoin:miter;stroke-opacity:1" />
      <path
         d="M 145.35714,619.50504 C 151.4068,614.71048 158.38802,611.31327 159.28571,598.79075 C 163.16764,601.2079 166.3308,603.26568 171.42857,606.29075 L 175.35714,610.93361 C 181.86652,608.96716 185.36453,611.51777 187.85714,615.57647 C 191.4202,609.44763 189.33941,608.65409 176.07143,588.43361 L 183.92857,588.43361 L 187.5,581.6479 C 189.63978,580.09514 192.98454,580.55069 197.14286,582.36218 C 194.33373,578.04364 194.00729,571.46811 184.28571,573.43361 L 177.14286,569.86218 C 174.66543,569.34703 175.09966,576.44158 168.21429,578.79075 C 149.77909,580.38554 147.75774,567.70741 144.28571,556.29075 L 153.57143,535.21932 C 157.49637,537.00867 158.30765,541.91167 158.92857,547.00504 C 168.76562,553.6274 178.83856,562.72658 186.07143,542.00504 C 173.40336,557.87341 166.36788,547.83184 160.35714,533.07647 C 172.85374,537.51638 182.6187,538.3141 177.14286,518.79075 C 177.75533,537.19457 169.66779,533.36505 158.21429,520.93361 L 170,492.71932 C 179.85877,493.19303 186.723,487.30333 201.42857,498.07647 L 201.78571,504.86218 C 196.78571,507.3887 191.78571,506.52794 186.78571,501.6479 C 184.64663,508.36333 184.18718,514.36815 199.28571,513.79075 C 199.37146,520.29555 196.45632,522.94207 187.14286,517.36218 C 186.98328,523.79126 190.43416,528.05407 200.35714,528.43361 C 192.44765,529.52792 194.76516,537.78113 192.85714,543.07647 C 196.30952,539.88925 199.76191,532.30167 203.21429,537.71932 C 196.64542,552.32657 197.99489,558.02567 202.14286,560.57647 C 203.48129,556.86435 200.51765,548.89622 207.85714,550.57647 C 212.72413,552.54419 218.11277,553.64249 221.07143,558.79075 C 223.46092,561.75841 221.91209,568.66438 220.35714,575.57647 L 230,579.50504 L 230.35714,585.57647 L 236.42857,582.71932 L 237.85714,572.71932 L 239.64286,570.57647 C 237.26186,567.98722 236.11625,564.47142 236.42857,559.86218 C 239.23663,558.37718 242.99338,562.58436 247.14286,569.1479 L 255.35714,565.93361 L 258.21429,574.50504 L 261.07143,563.79075 L 256.78571,557.36218 L 256.42857,552.71932 C 252.92459,552.31461 249.29037,552.69137 246.42857,548.43361 C 247.37588,546.70996 247.58576,545.35501 251.07143,542.36218 L 254.28571,539.86218 C 252.50431,537.68848 253.4488,534.83331 254.28571,532.00504 L 258.92857,528.07647 L 255.35714,523.79075 L 247.85714,527.00504 L 241.07143,527.71932 L 235.35714,535.21932 C 236.8378,539.91426 235.01932,541.31007 232.5,542.00504 C 225.97525,537.09885 216.34182,519.17025 233.21429,490.21932 C 249.84394,505.71737 267.84539,481.39806 255.71429,469.1479 C 255.4226,507.84965 234.00183,485.41787 228.92857,478.79075 C 250.01478,478.67761 247.21009,469.9388 240.89811,459.1479 C 238.22494,466.20952 244.8628,477.98156 227.24155,473.83213 C 219.8147,459.19541 202.33787,466.98178 183.57143,462.71932 L 198.57143,426.6479 L 202.14286,434.50504 C 203.33502,427.27922 205.0655,422.07208 208.92857,424.86218 C 212.95813,429.95913 209.41102,445.0687 212.5,440.21932 C 212.94742,434.58573 212.96722,428.38197 219.28571,430.57647 C 222.14077,432.43945 225.38866,433.20251 225,444.1479 C 227.78401,446.18796 230.2996,448.28767 227.14286,451.6479 C 223.65025,456.96412 231.52711,458.40882 239.64286,445.57647 L 237.5,436.29075 C 240.93854,432.29018 243.637,437.17059 246.42857,440.93361 C 252.94177,437.16998 254.80888,443.05248 257.69126,444.12995 C 260.40582,441.78179 258.24181,436.18125 257.14286,431.29075 C 259.2522,419.38208 242.38712,431.70312 237.85714,417.71932 L 243.92857,417.36218 L 250.35714,414.50504 L 255.71429,409.86218 C 251.63335,405.7979 254.85437,405.3846 255.71429,403.79075 L 257.14286,400.57647 C 251.32882,401.26006 244.33874,397.34916 241.57032,399.82225 C 239.69235,401.49989 238.53825,407.04975 238.21429,410.57647 C 239.02825,416.6365 233.83448,413.76939 229.28571,408.43361 C 224.59258,402.36883 219.49993,397.30284 216.07143,388.07647 C 251.37771,385.91666 251.51172,372.03275 255.71429,359.50504 C 242.75482,384.95832 219.63073,374.24805 224.32904,368.97458 C 225.39152,367.78204 240.35714,364.1479 240.35714,364.1479 C 231.63049,363.90188 226.69507,361.86001 230.71429,355.57647 C 231.01101,349.13769 240.97655,360.48935 250.35714,355.93361 C 245.97193,353.22945 239.50341,351.9836 241.42857,344.86218 C 242.17983,339.56049 249.9025,344.71594 254.28571,344.86218 C 249.68671,341.80454 246.91343,337.83404 245,333.43361 C 254.49224,336.25057 259.69698,333.61072 261.78571,327.00504 C 256.30393,328.00101 250.87549,328.90555 250,322.00504 C 247.61357,315.03683 259.03083,315.91858 260.35714,307.71932 C 262.81192,302.53998 264.20828,295.94941 264.64286,288.07647 L 262.5,287.36218 C 262.11676,292.46898 260.92415,295.35003 257.85714,293.07647 L 255.35714,290.21932 L 251.07143,258.07647 L 240.71429,260.93361 C 238.28916,262.44042 236.53306,264.11449 236.78571,266.29075 L 233.57143,269.1479 C 234.94684,270.62963 236.31181,272.12181 235.71429,275.57647 C 233.23478,276.59667 232.26065,273.85344 231.07143,271.6479 L 231.07143,264.86218 L 233.21429,260.21932 L 222.85714,259.86218 C 222.15251,261.91559 222.12615,264.37597 218.21429,264.50504 L 215.90555,269.29583 C 218.07069,273.0385 219.18035,275.65446 220.71429,281.29075 C 250.51331,298.81407 201.39458,345.47708 191.42857,329.86218 C 190.56928,328.51584 200,319.1479 200,319.1479 C 182.44223,327.66076 178.03929,314.00974 181.78571,314.50504 C 186.5337,315.13275 198.38498,317.68779 196.07143,308.43361 C 193.93157,303.19551 194.60978,297.95742 197.85714,292.71932 C 199.71109,289.57327 202.53926,287.40144 205,284.86218 C 207.02863,276.4487 201.90291,272.6645 192.5,271.6479 C 185.98949,271.49174 185.37824,265.43633 182.5,261.6479 C 168.2824,260.01586 156.00321,258.52727 143.09174,266.69122 C 136.10494,268.22824 135.16052,263.72287 131.78571,261.6479 C 133.27939,265.25529 132.38892,270.45211 137.5,271.6479 L 138.57143,276.29075 L 130.71429,271.29075 L 135,283.79075 C 135.41583,290.4876 136.81571,296.69242 138.57143,302.71932 C 134.43407,306.10942 130.43687,310.34055 125,305.93361 L 121.78571,300.93361 C 125.58791,305.75354 115.77747,312.20698 134.64286,315.21932 L 140.71429,307.71932 L 138.57143,318.07647 C 135.05861,326.28525 130.16961,326.237 124.64286,322.36218 C 125.34858,326.45519 123.65191,332.14979 133.92857,329.86218 L 140.71429,330.93361 C 140.84061,333.7684 141.01281,336.61236 137.85714,338.79075 L 131.07143,339.50504 C 134.28529,343.55319 136.62654,348.6921 145,346.29075 C 150.11159,349.03444 148.93771,356.49224 148.92857,363.07647 L 146.78571,369.1479 C 141.14077,370.86427 141.63198,366.44448 140.35714,363.79075 L 138.21429,373.79075 C 142.32902,378.97054 145.83287,379.26326 149.28571,379.1479 L 149.28571,384.1479 C 150.3342,387.19581 149.42061,389.58969 146.42857,391.29075 L 138.92857,389.50504 C 149.1118,406.01595 145.04304,432.27471 123.57143,457.00504 C 99.181971,457.8284 135.11192,403.70385 133.92857,370.93361 C 126.21247,345.94679 109.93209,327.26778 106.42857,302.36218 C 115.06786,301.82236 116.04041,290.13092 117.5,279.1479 C 123.75486,270.8366 123.38233,267.25916 125.35714,262.00504 L 116.42857,259.50504 C 118.39561,266.06427 119.90718,272.34514 110,271.6479 C 109.65127,266.51063 107.85854,262.81735 104.81639,260.3735 C 99.569318,262.08339 96.076079,264.17905 93.510153,264.54836 C 94.059203,268.48356 90.356122,273.47906 92.300744,276.59333 C 93.326673,278.23633 96.372376,278.78036 100.27792,278.72947 C 97.172551,290.34938 95.914398,296.09048 101.92902,303.74567 C 103.81162,306.14177 103.53109,310.19626 104.28571,314.50504 C 101.79621,315.45463 127.99706,376.21627 127.85714,375.57647 C 126.16973,367.86065 121.09781,356.56865 109.50739,353.25102 C 98.517428,350.10527 96.825699,335.55843 94.372372,337.03042 C 98.730565,348.31462 98.064573,362.14192 107.85714,365.57647 C 118.47787,366.98273 127.773,369.5489 122.5,384.86218 C 122.87208,383.00177 96.586804,363.91558 96.428572,367.00504 C 96.408981,367.38755 96.355693,374.66348 100.96612,380.08955 C 108.15968,388.55575 121.04108,396.50093 119.28571,397.36218 C 120.53815,398.77699 120.62931,408.31216 116.49289,408.39859 C 115.17224,408.42619 112.96052,400.56056 111.42134,399.63482 C 103.51717,394.88081 92.738935,380.95276 92.857143,381.6479 C 96.643651,403.91481 118.15495,421.37398 111.07143,420.57647 L 111.07143,420.57647 C 111.59968,438.30155 85.88536,462.58727 115.35714,473.07647 L 113.92857,483.43361 C 120.29208,484.81452 122.57169,494.94664 124.28571,506.29075 C 127.26155,514.18746 122.70787,519.57433 120,525.57647 C 114.80426,527.06931 112.63353,530.72287 112.14286,535.57647 C 112.53587,539.04809 112.89663,542.481 110,542.00504 L 105.35714,535.93361 C 104.29344,540.81843 105.86236,547.01955 112.85714,555.93361 C 117.98785,566.26661 111.66505,561.32827 107.14286,558.79075 C 108.07732,562.99417 107.36125,566.71213 119.28571,574.1479 C 116.11367,576.27733 112.0143,576.0884 107.5,574.86218 C 109.76843,579.21069 116.75784,585.91968 111.78571,586.6479 L 131.78571,597.71932 C 133.98338,594.68203 133.14544,590.63288 138.92857,588.79075 C 146.41624,588.13589 143.14704,598.94401 143.92857,607.36218 C 147.66042,609.54942 146.14438,614.73546 145.35714,619.50504 z"
         id="path9084"
         style="fill:#000000;fill-rule:evenodd;stroke:#000000;stroke-width:1px;stroke-linecap:butt;stroke-linejoin:miter;stroke-opacity:1" />
      <path
         d="M 213.92857,287.8979 C 208.4033,289.34044 210.03755,292.21172 201.78571,294.50504 L 180.71429,299.50504 C 179.86441,301.855 178.44539,304.41838 181.25,305.3979 L 190.53571,301.82647 L 205.35714,302.18361 C 210.38528,301.09955 215.62787,300.37293 219.28571,297.00504 C 219.72412,292.14638 218.29499,289.96942 213.92857,287.8979 z"
         id="path9086"
         style="fill:#ff0000;fill-rule:evenodd;stroke:#000000;stroke-width:1px;stroke-linecap:butt;stroke-linejoin:miter;stroke-opacity:1" />
      <path
         d="M 148.21429,608.07647 C 148.60796,612.91522 146.67848,615.89545 145.53571,619.50504 C 148.96155,616.85945 152.83201,614.65848 155,610.75504 C 152.88693,609.41569 151.24878,606.65156 148.21429,608.07647 z"
         id="path9088"
         style="fill:#ff0000;fill-rule:evenodd;stroke:#000000;stroke-width:1px;stroke-linecap:butt;stroke-linejoin:miter;stroke-opacity:1" />
      <path
         d="M 185.53571,603.25504 C 183.93435,604.73187 181.56716,605.73005 182.5,608.79075 C 185.00782,610.39399 186.31809,612.59599 187.5,614.86218 C 188.64646,611.89374 189.66031,608.859 185.53571,603.25504 z"
         id="path9090"
         style="fill:#ff0000;fill-rule:evenodd;stroke:#000000;stroke-width:1px;stroke-linecap:butt;stroke-linejoin:miter;stroke-opacity:1" />
      <path
         d="M 184.10714,575.04075 C 183.96368,577.12546 183.02394,579.44905 186.07143,580.57647 C 190.76328,579.46518 193.35048,581.51086 196.84699,582.19259 C 194.82135,579.7268 194.29291,575.46439 190.71429,574.86218 C 188.00293,573.90374 186.20012,574.76242 184.10714,575.04075 z"
         id="path9092"
         style="fill:#ff0000;fill-rule:evenodd;stroke:#000000;stroke-width:1px;stroke-linecap:butt;stroke-linejoin:miter;stroke-opacity:1" />
      <path
         d="M 230.35714,572.36218 C 231.36533,573.13578 231.55132,585.27906 230.53571,585.21932 C 234.97324,582.92092 237.40418,579.30111 236.96429,573.79075 C 234.9439,571.85858 232.59477,572.55637 230.35714,572.36218 z"
         id="path9094"
         style="fill:#ff0000;fill-rule:evenodd;stroke:#000000;stroke-width:1px;stroke-linecap:butt;stroke-linejoin:miter;stroke-opacity:1" />
      <path
         d="M 254.82143,558.61218 C 262.17724,562.22617 258.94649,569.23232 258.125,574.10326 C 258.87257,573.65472 251.5927,563.08622 249.82143,563.25504 C 248.86214,563.34647 253.81765,559.00991 254.64286,559.50504 L 254.82143,558.61218 z"
         id="path9096"
         style="fill:#ff0000;fill-rule:evenodd;stroke:#000000;stroke-width:1px;stroke-linecap:butt;stroke-linejoin:miter;stroke-opacity:1" />
      <path
         d="M 247.85714,528.79075 C 248.43162,531.18124 249.44318,533.23177 252.14286,533.96932 C 253.43214,529.59886 256.74021,528.79098 260,527.89789 C 256.73574,525.88272 253.55328,523.62608 247.85714,528.79075 z"
         id="path9098"
         style="fill:#ff0000;fill-rule:evenodd;stroke:#000000;stroke-width:1px;stroke-linecap:butt;stroke-linejoin:miter;stroke-opacity:1" />
      <path
         d="M 231.57747,444.37662 C 232.63739,448.8898 230.41883,451.10804 229.30463,454.09934 C 233.41279,451.98948 237.11065,449.40094 238.396,443.99781 C 236.15661,443.62221 233.93149,443.03266 231.57747,444.37662 z"
         id="path9100"
         style="fill:#ff0000;fill-rule:evenodd;stroke:#000000;stroke-width:1px;stroke-linecap:butt;stroke-linejoin:miter;stroke-opacity:1" />
      <path
         d="M 254.93725,432.00225 C 254.03476,430.93567 248.11523,435.94017 249.25514,436.16913 C 251.3486,436.58962 258.61342,441.72472 257.21009,442.73512 C 259.60785,438.1057 257.45219,434.9941 254.93725,432.00225 z"
         id="path9102"
         style="fill:#ff0000;fill-rule:evenodd;stroke:#000000;stroke-width:1px;stroke-linecap:butt;stroke-linejoin:miter;stroke-opacity:1" />
      <path
         d="M 247.99245,401.06633 C 247.95928,404.30086 251.36224,406.28959 251.78052,405.99082 C 252.52339,404.0244 254.20779,402.2672 257.0928,400.77681 C 254.35697,400.06194 250.72828,400.11456 247.99245,401.06633 z"
         id="path9104"
         style="fill:#ff0000;fill-rule:evenodd;stroke:#000000;stroke-width:1px;stroke-linecap:butt;stroke-linejoin:miter;stroke-opacity:1" />
      <path
         d="M 264.11157,287.81938 C 263.26206,292.254 264.03475,297.22936 260.61936,300.80869 C 257.47906,302.0257 256.10812,300.58866 255.82113,297.52569 C 260.46435,295.04215 261.60467,291.15745 264.11157,287.81938 z"
         id="path9106"
         style="fill:#ff0000;fill-rule:evenodd;stroke:#000000;stroke-width:1px;stroke-linecap:butt;stroke-linejoin:miter;stroke-opacity:1" />
      <path
         d="M 249.0026,259.64497 C 246.44585,262.66482 243.54472,265.83226 244.20438,267.47365 C 240.57097,269.05459 239.47619,267.37158 239.15362,264.69573 C 241.37133,261.06869 244.60274,259.97589 247.73991,258.64751 L 249.0026,259.64497 z"
         id="path9108"
         style="fill:#ff0000;fill-rule:evenodd;stroke:#000000;stroke-width:1px;stroke-linecap:butt;stroke-linejoin:miter;stroke-opacity:1" />
      <path
         d="M 232.53161,258.7648 C 228.21627,257.88973 223.66684,261.75279 221.22341,263.68558 C 222.51927,265.86658 223.64261,268.30635 226.77925,267.72619 C 227.33264,265.01187 229.60886,261.95299 232.53161,258.7648 z"
         id="path9110"
         style="fill:#ff0000;fill-rule:evenodd;stroke:#000000;stroke-width:1px;stroke-linecap:butt;stroke-linejoin:miter;stroke-opacity:1" />
      <path
         d="M 108.92186,442.04901 C 108.84018,442.63405 108.8616,443.22851 108.86703,443.81777 C 108.86633,444.32475 108.86245,444.83159 108.8674,445.33866 L 106.80017,446.39197 C 106.80507,445.88477 106.80128,445.37781 106.80054,444.8707 C 106.80575,444.30037 106.83082,443.72326 106.74571,443.15782 L 108.92186,442.04901 z"
         id="path9142"
         style="opacity:1;fill:#ffffff;fill-opacity:1;fill-rule:nonzero;stroke:#d3d8db;stroke-width:4;stroke-linejoin:round;stroke-miterlimit:4;stroke-dasharray:none;stroke-opacity:1" />
      <path
         d="M 108.41679,451.898 C 108.33758,452.52113 108.3566,453.15283 108.33994,453.78008 C 108.33606,454.43736 108.35525,455.09448 108.36591,455.75163 C 108.35485,456.15591 108.35993,456.56037 108.3636,456.96471 L 106.29382,458.01932 C 106.29744,457.61576 106.30264,457.21208 106.29151,456.80859 C 106.30213,456.14262 106.3212,455.47668 106.31747,454.81058 C 106.30107,454.20961 106.32251,453.60296 106.24063,453.0068 L 108.41679,451.898 z"
         id="path9144"
         style="opacity:1;fill:#ffffff;fill-opacity:1;fill-rule:nonzero;stroke:#d3d8db;stroke-width:4;stroke-linejoin:round;stroke-miterlimit:4;stroke-dasharray:none;stroke-opacity:1" />
      <path
         d="M 119.24996,416.57571 C 118.77588,417.07524 118.32059,417.59002 117.8741,418.11444 C 117.3135,418.87719 116.88209,419.71762 116.47384,420.56821 C 116.11554,421.38719 115.73576,422.20186 115.28486,422.97451 C 114.90184,423.61212 114.58592,424.28959 114.27407,424.96487 C 114.01577,425.5476 113.73161,426.10428 113.5613,426.72165 C 113.47828,427.48686 113.30782,428.22756 113.14717,428.97928 C 113.11982,429.1266 113.09248,429.27393 113.06514,429.42126 L 111.07366,430.39305 C 111.09788,430.24459 111.12209,430.09614 111.1463,429.94768 C 111.29589,429.20585 111.42331,428.46946 111.49002,427.71612 C 111.62283,427.07478 111.90551,426.505 112.18187,425.91764 C 112.5138,425.22201 112.86332,424.52885 113.26041,423.86995 C 113.74133,423.11626 114.08187,422.28866 114.46117,421.48132 C 114.88173,420.63013 115.31232,419.79097 115.8215,418.98867 C 116.20447,418.50092 116.59165,418.01846 117.0049,417.558 L 119.24996,416.57571 z"
         id="path9146"
         style="opacity:1;fill:#ffffff;fill-opacity:1;fill-rule:nonzero;stroke:#d3d8db;stroke-width:4;stroke-linejoin:round;stroke-miterlimit:4;stroke-dasharray:none;stroke-opacity:1" />
      <path
         d="M 104.91074,400.03242 C 105.35534,401.11748 106.12811,402.01677 106.89686,402.88424 C 107.8719,403.8027 108.90854,404.6547 109.93622,405.51333 C 110.3457,405.81523 110.70878,406.17215 111.07691,406.52138 L 109.20671,407.67019 C 108.85613,407.31587 108.50226,406.96461 108.11596,406.64843 C 107.11712,405.77483 106.19659,404.8182 105.25318,403.88595 C 104.69468,403.33897 104.10725,402.79945 103.59721,402.20532 C 103.10755,401.63492 103.50904,402.00089 103.02911,401.48663 C 102.95702,401.40938 102.874,401.3431 102.79644,401.27133 L 104.91074,400.03242 z"
         id="path9148"
         style="opacity:1;fill:#ffffff;fill-opacity:1;fill-rule:nonzero;stroke:#d3d8db;stroke-width:4;stroke-linejoin:round;stroke-miterlimit:4;stroke-dasharray:none;stroke-opacity:1" />
      <path
         d="M 127.67953,390.50045 C 127.56582,391.23212 127.4108,391.97181 127.20152,392.68382 C 127.01584,393.44311 126.74887,394.1654 126.46654,394.89167 C 126.32567,395.50451 126.05398,396.0704 125.85114,396.66267 C 125.63473,397.17001 125.40749,397.66654 125.13824,398.14784 L 123.87739,398.71053 C 124.14677,398.2395 124.38137,397.75944 124.58573,397.25587 C 124.78988,396.65504 125.08835,396.09232 125.22453,395.46875 C 125.4968,394.73408 125.82642,394.02582 125.99898,393.25509 C 126.17822,392.60404 126.3771,391.83756 126.37384,391.16574 L 127.67953,390.50045 z"
         id="path9150"
         style="opacity:1;fill:#ffffff;fill-opacity:1;fill-rule:nonzero;stroke:#d3d8db;stroke-width:4;stroke-linejoin:round;stroke-miterlimit:4;stroke-dasharray:none;stroke-opacity:1" />
      <path
         d="M 107.2658,378.30938 C 107.70809,378.86928 108.27904,379.31692 108.814,379.78522 C 109.52636,380.38418 110.21826,381.01071 110.95438,381.58049 C 111.77659,382.15723 112.56042,382.78729 113.38821,383.35575 C 114.04741,383.81449 114.70382,384.27787 115.33315,384.7771 C 115.74788,385.09776 116.08808,385.50078 116.4383,385.88774 L 115.28111,386.58885 C 114.93577,386.20612 114.59348,385.81631 114.18447,385.49888 C 113.56194,384.99989 112.90482,384.54861 112.26921,384.06677 C 111.46686,383.46459 110.66478,382.86338 109.84971,382.2783 C 109.09941,381.71978 108.39752,381.09482 107.68794,380.48588 C 107.1298,380.00089 106.53835,379.55667 105.99722,379.05273 L 107.2658,378.30938 z"
         id="path9152"
         style="opacity:1;fill:#ffffff;fill-opacity:1;fill-rule:nonzero;stroke:#d3d8db;stroke-width:4;stroke-linejoin:round;stroke-miterlimit:4;stroke-dasharray:none;stroke-opacity:1" />
      <path
         d="M 102.72011,352.80303 C 103.06955,353.53202 103.47644,354.22358 103.94049,354.88482 C 104.82787,356.05307 105.9714,356.98747 107.13499,357.86598 C 108.18844,358.61514 109.3028,359.26724 110.45626,359.84777 C 111.19183,360.20976 111.95328,360.50051 112.73317,360.74994 C 113.22485,360.91679 112.97745,360.82798 113.47515,361.01704 L 112.35651,361.77085 C 111.85299,361.59051 112.10589,361.67405 111.5979,361.51993 C 110.83268,361.25146 110.08555,360.95146 109.37379,360.55845 C 109.28192,360.5105 108.48551,360.09627 108.40732,360.0495 C 107.62556,359.58194 106.92456,358.98539 106.17224,358.47505 C 104.98078,357.59118 103.74462,356.73567 102.83575,355.54081 C 102.32267,354.90559 101.93875,354.19636 101.45153,353.54638 L 102.72011,352.80303 z"
         id="path9154"
         style="opacity:1;fill:#ffffff;fill-opacity:1;fill-rule:nonzero;stroke:#d3d8db;stroke-width:4;stroke-linejoin:round;stroke-miterlimit:4;stroke-dasharray:none;stroke-opacity:1" />
      <path
         d="M 156.0207,441.13643 C 156.60582,441.66819 157.31308,442.03069 158.01887,442.37348 C 158.52552,442.59836 159.0005,442.8834 159.49601,443.12998 L 158.3688,443.87109 C 157.87743,443.62008 157.40525,443.33339 156.9001,443.10903 C 156.18369,442.73413 155.47955,442.33732 154.78245,441.92927 L 156.0207,441.13643 z"
         id="path9156"
         style="opacity:1;fill:#ffffff;fill-opacity:1;fill-rule:nonzero;stroke:#d3d8db;stroke-width:4;stroke-linejoin:round;stroke-miterlimit:4;stroke-dasharray:none;stroke-opacity:1" />
      <path
         d="M 163.84939,432.55013 C 164.19072,432.9468 164.55517,433.31339 164.95241,433.65345 C 165.445,434.11505 166.01432,434.48118 166.59577,434.82029 L 165.44137,435.56731 C 164.86095,435.21017 164.27771,434.85205 163.77482,434.38826 C 163.37544,434.05124 163.01719,433.67082 162.61113,433.34297 L 163.84939,432.55013 z"
         id="path9158"
         style="opacity:1;fill:#ffffff;fill-opacity:1;fill-rule:nonzero;stroke:#d3d8db;stroke-width:4;stroke-linejoin:round;stroke-miterlimit:4;stroke-dasharray:none;stroke-opacity:1" />
      <path
         d="M 171.15795,425.02894 C 171.38843,425.59934 171.71722,426.09749 172.13874,426.54234 C 172.96952,427.26909 173.94027,427.78188 174.94579,428.21922 C 175.09249,428.27317 175.23918,428.32712 175.38588,428.38106 L 174.28629,429.11808 C 174.14523,429.05766 174.00418,428.99724 173.86312,428.93683 C 172.86043,428.45277 171.87136,427.93279 170.99168,427.24338 C 170.55033,426.80423 170.2054,426.30776 169.88937,425.77229 L 171.15795,425.02894 z"
         id="path9160"
         style="opacity:1;fill:#ffffff;fill-opacity:1;fill-rule:nonzero;stroke:#d3d8db;stroke-width:4;stroke-linejoin:round;stroke-miterlimit:4;stroke-dasharray:none;stroke-opacity:1" />
      <path
         d="M 176.71367,414.46313 C 176.97807,415.36395 177.62855,416.08186 178.19586,416.80795 C 178.70198,417.44043 179.30155,417.98813 179.87346,418.55921 L 178.771,419.23179 C 178.22315,418.63745 177.63803,418.07797 177.12868,417.44835 C 176.50713,416.74141 175.87288,416.03086 175.44532,415.18531 L 176.71367,414.46313 z"
         id="path9162"
         style="opacity:1;fill:#ffffff;fill-opacity:1;fill-rule:nonzero;stroke:#d3d8db;stroke-width:4;stroke-linejoin:round;stroke-miterlimit:4;stroke-dasharray:none;stroke-opacity:1" />
      <path
         d="M 152.50589,448.45533 C 152.72244,448.58141 152.96319,448.64188 153.20266,448.70611 L 152.0585,449.49444 C 151.79606,449.43049 151.53636,449.3628 151.28661,449.25757 L 152.50589,448.45533 z"
         id="path9164"
         style="opacity:1;fill:#ffffff;fill-opacity:1;fill-rule:nonzero;stroke:#d3d8db;stroke-width:4;stroke-linejoin:round;stroke-miterlimit:4;stroke-dasharray:none;stroke-opacity:1" />
      <path
         d="M 140.81151,438.23016 C 140.81556,438.48683 140.72517,438.7277 140.64819,438.96815 L 139.38152,439.5657 C 139.44939,439.34537 139.54998,439.13029 139.50582,438.89545 L 140.81151,438.23016 z"
         id="path9166"
         style="opacity:1;fill:#ffffff;fill-opacity:1;fill-rule:nonzero;stroke:#d3d8db;stroke-width:4;stroke-linejoin:round;stroke-miterlimit:4;stroke-dasharray:none;stroke-opacity:1" />
      <path
         d="M 146.15656,422.29181 C 146.22045,422.54075 146.33991,422.75809 146.47361,422.97441 L 145.26303,423.67921 C 145.12609,423.46363 144.99713,423.24544 144.88821,423.01399 L 146.15656,422.29181 z"
         id="path9168"
         style="opacity:1;fill:#ffffff;fill-opacity:1;fill-rule:nonzero;stroke:#d3d8db;stroke-width:4;stroke-linejoin:round;stroke-miterlimit:4;stroke-dasharray:none;stroke-opacity:1" />
      <path
         d="M 162.51315,377.97265 C 162.32885,379.08109 162.43304,380.2081 162.37977,381.32328 C 162.33726,382.2132 162.23876,382.82942 162.12416,383.71779 C 161.93886,385.64987 161.57082,387.54023 160.90576,389.3643 C 160.36976,390.49349 159.63827,391.51495 158.85611,392.48472 C 158.75948,392.59772 158.66284,392.71072 158.56621,392.82372 L 157.34228,393.34014 C 157.44477,393.22596 157.54725,393.11178 157.64974,392.9976 C 158.47403,392.0302 159.25011,391.00874 159.82006,389.86774 C 160.57206,388.04247 160.99292,386.12432 161.22127,384.1646 C 161.41585,382.32711 161.45515,380.45952 161.24074,378.62097 L 162.51315,377.97265 z"
         id="path9170"
         style="opacity:1;fill:#ffffff;fill-opacity:1;fill-rule:nonzero;stroke:#d3d8db;stroke-width:4;stroke-linejoin:round;stroke-miterlimit:4;stroke-dasharray:none;stroke-opacity:1" />
      <path
         d="M 173.08802,394.32035 C 172.78358,394.912 172.35139,395.41109 171.92991,395.92011 C 171.44219,396.60649 170.89091,397.12642 170.20026,397.59915 C 170.08856,397.67529 169.97686,397.75142 169.86516,397.82756 L 168.61072,398.31985 C 168.72305,398.24333 168.83538,398.16681 168.94771,398.09029 C 169.62644,397.63558 170.22211,397.13586 170.68571,396.45074 C 171.07385,395.96123 171.51352,395.50642 171.75825,394.92198 L 173.08802,394.32035 z"
         id="path9172"
         style="opacity:1;fill:#ffffff;fill-opacity:1;fill-rule:nonzero;stroke:#d3d8db;stroke-width:4;stroke-linejoin:round;stroke-miterlimit:4;stroke-dasharray:none;stroke-opacity:1" />
      <path
         d="M 186.52092,390.50045 C 186.45269,391.32561 186.48606,392.15015 186.38461,392.97248 C 186.30373,393.77281 186.13708,394.5421 185.77867,395.26341 L 184.5521,395.81509 C 184.94679,395.11056 185.1493,394.34828 185.2307,393.54456 C 185.30697,392.75434 185.27956,391.95696 185.21522,391.16574 L 186.52092,390.50045 z"
         id="path9174"
         style="opacity:1;fill:#ffffff;fill-opacity:1;fill-rule:nonzero;stroke:#d3d8db;stroke-width:4;stroke-linejoin:round;stroke-miterlimit:4;stroke-dasharray:none;stroke-opacity:1" />
      <path
         d="M 168.35936,379.62579 C 168.46225,380.39019 168.47693,381.16113 168.48708,381.93121 C 168.56132,383.24617 168.32294,384.54605 168.18754,385.84955 C 168.12359,386.47378 168.08604,387.09959 168.05809,387.72624 L 166.92384,388.29581 C 166.96984,387.6624 167.00613,387.02786 167.08306,386.39715 C 167.23225,385.11111 167.43678,383.82287 167.33182,382.52467 C 167.29242,381.78791 167.26984,381.0371 167.0717,380.32213 L 168.35936,379.62579 z"
         id="path9176"
         style="opacity:1;fill:#ffffff;fill-opacity:1;fill-rule:nonzero;stroke:#d3d8db;stroke-width:4;stroke-linejoin:round;stroke-miterlimit:4;stroke-dasharray:none;stroke-opacity:1" />
      <path
         d="M 159.24125,360.22891 C 159.11482,361.62327 159.14069,363.02194 159.02967,364.41739 C 158.85009,366.38132 158.53208,368.33467 158.15337,370.27002 C 157.96441,371.60565 157.50215,372.8733 157.09659,374.15231 C 156.80313,375.08842 156.34517,375.93034 155.79455,376.73481 C 155.44775,377.23557 155.61332,376.98722 155.29682,377.47919 L 154.07395,378.0161 C 154.40025,377.51668 154.23155,377.76703 154.58058,377.26542 C 155.11702,376.45222 155.64635,375.64377 155.93181,374.69866 C 156.39493,373.41051 156.85692,372.11917 157.11837,370.771 C 157.54094,368.83972 157.89616,366.89036 158.03739,364.91532 C 158.09532,363.57384 158.07697,362.22607 157.94665,360.88854 L 159.24125,360.22891 z"
         id="path9178"
         style="opacity:1;fill:#ffffff;fill-opacity:1;fill-rule:nonzero;stroke:#d3d8db;stroke-width:2;stroke-linejoin:round;stroke-miterlimit:4;stroke-dasharray:none;stroke-opacity:1" />
      <path
         d="M 181.34165,371.2673 C 181.58845,371.90161 181.78226,372.55616 181.97155,373.20957 C 182.12544,373.88132 182.31796,374.54297 182.42034,375.22521 C 182.5393,375.82671 182.66607,376.42659 182.78123,377.02884 L 182.38617,377.2399 C 182.26441,376.63912 182.13243,376.04068 182.01702,375.43852 C 181.91004,374.75903 181.72251,374.09741 181.57447,373.42629 C 181.3845,372.77832 181.20308,372.12224 180.91887,371.50802 L 181.34165,371.2673 z"
         id="path9180"
         style="opacity:1;fill:#ffffff;fill-opacity:1;fill-rule:nonzero;stroke:#d3d8db;stroke-width:2;stroke-linejoin:round;stroke-miterlimit:4;stroke-dasharray:none;stroke-opacity:1" />
      <path
         d="M 174.49613,371.01907 C 174.69651,371.92737 174.91793,372.83042 175.16657,373.72677 C 175.30039,374.19547 175.42136,374.66749 175.55206,375.13706 L 175.16378,375.34825 C 175.03488,374.87689 174.92118,374.40211 174.79123,373.93101 C 174.54301,373.03962 174.32644,372.13902 174.06691,371.25118 L 174.49613,371.01907 z"
         id="path9182"
         style="opacity:1;fill:#ffffff;fill-opacity:1;fill-rule:nonzero;stroke:#d3d8db;stroke-width:2;stroke-linejoin:round;stroke-miterlimit:4;stroke-dasharray:none;stroke-opacity:1" />
      <path
         d="M 174.27058,353.58963 C 174.5114,354.23569 174.8894,354.81352 175.31782,355.34853 C 176.10917,356.20999 176.9819,356.99711 177.84511,357.78655 C 178.70278,358.55495 179.57568,359.30717 180.45299,360.05322 C 181.23316,360.78227 182.14963,361.33608 182.97069,362.01249 C 183.85383,362.77054 184.80471,363.43707 185.74513,364.12048 L 185.39103,364.34522 C 184.44785,363.66088 183.49138,362.99697 182.5993,362.24497 C 181.78057,361.56767 180.87049,361.00764 180.0931,360.27792 C 179.21107,359.53728 178.34205,358.77907 177.48622,358.00861 C 176.62312,357.21418 175.74422,356.43019 174.94408,355.57249 C 174.50072,355.04289 174.11677,354.46994 173.8478,353.83035 L 174.27058,353.58963 z"
         id="path9184"
         style="opacity:1;fill:#ffffff;fill-opacity:1;fill-rule:nonzero;stroke:#d3d8db;stroke-width:2;stroke-linejoin:round;stroke-miterlimit:4;stroke-dasharray:none;stroke-opacity:1" />
      <path
         d="M 191.97344,370.43749 C 192.52242,370.8727 193.03093,371.3515 193.58023,371.78703 C 194.50819,372.42935 195.43073,373.08262 196.40324,373.65642 C 196.84289,373.92807 197.29446,374.17276 197.75906,374.39803 L 197.39444,374.63839 C 196.93214,374.41018 196.48138,374.1648 196.04586,373.8878 C 195.07606,373.30441 194.14134,372.66459 193.21245,372.0187 C 192.65269,371.59008 192.13578,371.10949 191.56069,370.70177 L 191.97344,370.43749 z"
         id="path9186"
         style="opacity:1;fill:#ffffff;fill-opacity:1;fill-rule:nonzero;stroke:#d3d8db;stroke-width:2;stroke-linejoin:round;stroke-miterlimit:4;stroke-dasharray:none;stroke-opacity:1" />
      <path
         d="M 196.43975,362.94302 C 196.49814,363.82971 196.6672,364.70366 196.84384,365.57291 C 196.8847,365.72982 196.92556,365.88672 196.96642,366.04362 L 196.58126,366.25218 C 196.54151,366.09381 196.50176,365.93545 196.46201,365.77709 C 196.29009,364.90968 196.12231,364.04148 196.00452,363.16478 L 196.43975,362.94302 z"
         id="path9188"
         style="opacity:1;fill:#ffffff;fill-opacity:1;fill-rule:nonzero;stroke:#d3d8db;stroke-width:2;stroke-linejoin:round;stroke-miterlimit:4;stroke-dasharray:none;stroke-opacity:1" />
      <path
         d="M 200.30864,360.87604 C 200.67577,361.25613 200.97644,361.6935 201.29386,362.11434 L 200.90996,362.34265 C 200.58745,361.92665 200.27669,361.4932 199.89301,361.13074 L 200.30864,360.87604 z"
         id="path9190"
         style="opacity:1;fill:#ffffff;fill-opacity:1;fill-rule:nonzero;stroke:#d3d8db;stroke-width:2;stroke-linejoin:round;stroke-miterlimit:4;stroke-dasharray:none;stroke-opacity:1" />
      <path
         d="M 204.57516,356.36755 C 204.94041,357.02435 205.2114,357.72413 205.4795,358.42404 C 205.64048,358.80387 205.8055,359.18113 205.98223,359.55384 L 205.58894,359.77647 C 205.41471,359.40104 205.25435,359.02042 205.0924,358.63953 C 204.82367,357.94331 204.5549,357.2409 204.15238,356.60827 L 204.57516,356.36755 z"
         id="path9192"
         style="opacity:1;fill:#ffffff;fill-opacity:1;fill-rule:nonzero;stroke:#d3d8db;stroke-width:2;stroke-linejoin:round;stroke-miterlimit:4;stroke-dasharray:none;stroke-opacity:1" />
      <path
         d="M 211.28597,407.37218 C 211.02134,407.84713 210.91338,408.38839 210.73594,408.90025 C 210.51886,409.62547 210.29699,410.35416 209.98213,411.04412 C 209.92878,411.15379 209.87543,411.26346 209.82208,411.37314 L 209.40794,411.56089 C 209.46218,411.45119 209.51642,411.34149 209.57066,411.2318 C 209.89182,410.54641 210.10783,409.81686 210.3237,409.09336 C 210.49782,408.58425 210.59988,408.05256 210.83696,407.56863 L 211.28597,407.37218 z"
         id="path9194"
         style="opacity:1;fill:#ffffff;fill-opacity:1;fill-rule:nonzero;stroke:#d3d8db;stroke-width:2;stroke-linejoin:round;stroke-miterlimit:4;stroke-dasharray:none;stroke-opacity:1" />
      <path
         d="M 212.40384,414.19878 C 212.55542,414.53888 212.62887,414.9043 212.73002,415.26077 L 212.3265,415.48092 C 212.22271,415.1302 212.14786,414.76785 211.98106,414.43951 L 212.40384,414.19878 z"
         id="path9196"
         style="opacity:1;fill:#ffffff;fill-opacity:1;fill-rule:nonzero;stroke:#d3d8db;stroke-width:2;stroke-linejoin:round;stroke-miterlimit:4;stroke-dasharray:none;stroke-opacity:1" />
      <path
         d="M 218.69031,416.22339 C 218.90359,416.73179 218.9876,417.31885 219.286,417.7904 C 219.3628,417.91178 219.4669,418.01355 219.55736,418.12513 C 219.69517,418.22085 219.83299,418.31657 219.9708,418.41229 L 219.60425,418.64623 C 219.46138,418.54878 219.3185,418.45134 219.17563,418.35389 C 219.08142,418.24015 218.97292,418.13688 218.893,418.01268 C 218.59033,417.54229 218.51573,416.94941 218.26109,416.4555 L 218.69031,416.22339 z"
         id="path9198"
         style="opacity:1;fill:#ffffff;fill-opacity:1;fill-rule:nonzero;stroke:#d3d8db;stroke-width:2;stroke-linejoin:round;stroke-miterlimit:4;stroke-dasharray:none;stroke-opacity:1" />
      <path
         d="M 236.14247,427.54956 C 236.66349,428.14696 237.24904,428.68194 237.84496,429.20287 C 238.3534,429.64943 238.8561,430.10237 239.35465,430.55993 L 238.98007,430.79147 C 238.48584,430.33052 237.98818,429.87314 237.47536,429.43278 C 236.87304,428.90618 236.27995,428.36886 235.71961,427.79735 L 236.14247,427.54956 z"
         id="path9200"
         style="opacity:1;fill:#ffffff;fill-opacity:1;fill-rule:nonzero;stroke:#ffffff;stroke-width:2;stroke-linejoin:round;stroke-miterlimit:4;stroke-dasharray:none;stroke-opacity:1" />
      <path
         d="M 251.97095,431.29677 C 251.41292,431.39479 250.89838,431.63804 250.3791,431.8535 C 249.75243,432.11898 249.61671,432.29986 248.99504,432.77939 C 248.52376,433.1823 248.15694,433.69373 247.75248,434.16234 L 247.33579,434.33849 C 247.74177,433.86948 248.1075,433.35652 248.57409,432.94748 C 249.25265,432.42313 249.93539,431.89551 250.73853,431.57004 C 251.26726,431.34899 251.79251,431.11137 252.35858,431.00037 L 251.97095,431.29677 z"
         id="path9202"
         style="opacity:1;fill:#ffffff;fill-opacity:1;fill-rule:nonzero;stroke:#ffffff;stroke-width:2;stroke-linejoin:round;stroke-miterlimit:4;stroke-dasharray:none;stroke-opacity:1" />
      <path
         d="M 243.94412,406.3744 C 244.08491,407.06766 244.32802,407.73067 244.58023,408.38929 C 244.89252,409.10949 245.26802,409.80167 245.71925,410.44402 C 246.05937,410.85607 246.44265,411.21775 246.91178,411.47399 L 246.52497,411.72626 C 246.05322,411.46344 245.66436,411.09683 245.32651,410.67534 C 244.87541,410.02805 244.50789,409.32871 244.18863,408.60764 C 243.92539,407.95308 243.70429,407.28609 243.5149,406.60652 L 243.94412,406.3744 z"
         id="path9204"
         style="opacity:1;fill:#ffffff;fill-opacity:1;fill-rule:nonzero;stroke:#ffffff;stroke-width:2;stroke-linejoin:round;stroke-miterlimit:4;stroke-dasharray:none;stroke-opacity:1" />
      <path
         d="M 230.37303,442.27022 C 230.91018,442.05816 231.47039,441.95114 232.012,441.74931 C 232.39542,441.59814 232.78391,441.48676 233.19445,441.45635 L 232.81915,441.7338 C 232.41431,441.77119 232.02971,441.88274 231.65096,442.03173 C 231.10217,442.23405 230.52897,442.33858 229.99311,442.57412 L 230.37303,442.27022 z"
         id="path9206"
         style="opacity:1;fill:#ffffff;fill-opacity:1;fill-rule:nonzero;stroke:#ffffff;stroke-width:2;stroke-linejoin:round;stroke-miterlimit:4;stroke-dasharray:none;stroke-opacity:1" />
      <path
         d="M 152.52531,344.50256 C 152.63254,345.37341 152.753,346.24521 152.84954,347.11825 C 152.90033,347.96559 153.05387,348.80058 153.13326,349.64472 C 153.14405,349.80037 153.15484,349.95602 153.16562,350.11168 L 152.77421,350.31471 C 152.7624,350.16003 152.75059,350.00536 152.73878,349.85068 C 152.64973,349.00644 152.50421,348.16921 152.46394,347.32003 C 152.37097,346.45501 152.26336,345.58818 152.09609,344.73467 L 152.52531,344.50256 z"
         id="path9208"
         style="opacity:1;fill:#ffffff;fill-opacity:1;fill-rule:nonzero;stroke:#d3d8db;stroke-width:2;stroke-linejoin:round;stroke-miterlimit:4;stroke-dasharray:none;stroke-opacity:1" />
      <path
         d="M 163.63699,342.22972 C 163.79179,342.91474 164.10436,343.54842 164.31936,344.21425 C 164.55216,344.88849 164.78783,345.56271 165.05438,346.22445 C 165.33987,346.93439 165.64865,347.6369 166.01927,348.30651 C 166.2144,348.5467 166.40952,348.7869 166.60465,349.02709 L 166.28245,349.2214 C 166.06811,348.98947 165.85377,348.75755 165.63944,348.52562 C 165.24829,347.86417 164.93934,347.16057 164.66015,346.44491 C 164.38839,345.78387 164.14797,345.11061 163.92152,344.43289 C 163.70606,343.76773 163.41233,343.13109 163.20777,342.46183 L 163.63699,342.22972 z"
         id="path9210"
         style="opacity:1;fill:#ffffff;fill-opacity:1;fill-rule:nonzero;stroke:#d3d8db;stroke-width:2;stroke-linejoin:round;stroke-miterlimit:4;stroke-dasharray:none;stroke-opacity:1" />
      <path
         d="M 173.2322,337.21114 C 173.38324,337.97367 173.61863,338.71975 173.8107,339.47447 C 174.06793,340.58423 174.41108,341.67229 174.77214,342.75205 C 175.1977,343.74784 175.69211,344.71586 176.25656,345.64008 C 176.56395,346.13459 176.9488,346.57079 177.33674,347.0021 L 176.96156,347.22944 C 176.5687,346.79781 176.17019,346.36892 175.87246,345.86277 C 175.31861,344.92882 174.83679,343.95067 174.401,342.95667 C 174.0317,341.87871 173.70085,340.78813 173.42887,339.68121 C 173.23573,338.92884 172.9863,338.19323 172.80546,337.4393 L 173.2322,337.21114 z"
         id="path9212"
         style="opacity:1;fill:#ffffff;fill-opacity:1;fill-rule:nonzero;stroke:#d3d8db;stroke-width:2;stroke-linejoin:round;stroke-miterlimit:4;stroke-dasharray:none;stroke-opacity:1" />
      <path
         d="M 177.07369,335.83977 C 177.53263,336.2684 177.90705,336.7734 178.33463,337.23155 C 178.99847,338.01349 179.72405,338.73261 180.48029,339.42376 C 180.90625,339.81129 180.69331,339.62883 181.1175,339.97304 L 180.73584,340.21197 C 180.31727,339.86094 180.5278,340.04592 180.10564,339.65546 C 179.35412,338.95744 178.63596,338.23057 177.95586,337.46213 C 177.52451,337.00923 177.14026,336.50918 176.66094,336.10404 L 177.07369,335.83977 z"
         id="path9214"
         style="opacity:1;fill:#ffffff;fill-opacity:1;fill-rule:nonzero;stroke:#d3d8db;stroke-width:2;stroke-linejoin:round;stroke-miterlimit:4;stroke-dasharray:none;stroke-opacity:1" />
      <path
         d="M 187.17666,334.35953 C 187.67051,334.88588 188.19294,335.38492 188.73906,335.85636 C 189.40316,336.42465 189.05956,336.12736 189.76903,336.74917 L 189.42614,336.96285 C 188.70115,336.351 189.05276,336.64315 188.37226,336.08529 C 187.81314,335.61908 187.28127,335.12336 186.76103,334.61423 L 187.17666,334.35953 z"
         id="path9216"
         style="opacity:1;fill:#ffffff;fill-opacity:1;fill-rule:nonzero;stroke:#d3d8db;stroke-width:2;stroke-linejoin:round;stroke-miterlimit:4;stroke-dasharray:none;stroke-opacity:1" />
      <path
         d="M 192.7325,346.7339 C 193.31344,347.26049 193.95035,347.74086 194.58856,348.19938 C 195.23717,348.64235 195.89659,349.07533 196.58187,349.45962 L 196.21362,349.69969 C 195.52352,349.32195 194.87267,348.87473 194.22265,348.43211 C 193.57233,347.97391 192.93345,347.48881 192.31687,346.9886 L 192.7325,346.7339 z"
         id="path9218"
         style="opacity:1;fill:#ffffff;fill-opacity:1;fill-rule:nonzero;stroke:#d3d8db;stroke-width:2;stroke-linejoin:round;stroke-miterlimit:4;stroke-dasharray:none;stroke-opacity:1" />
      <path
         d="M 198.79341,345.72375 C 198.98726,345.9676 199.19364,346.20058 199.38981,346.44318 L 198.98734,346.68429 C 198.78905,346.44417 198.58607,346.20971 198.37778,345.97845 L 198.79341,345.72375 z"
         id="path9220"
         style="opacity:1;fill:#ffffff;fill-opacity:1;fill-rule:nonzero;stroke:#d3d8db;stroke-width:2;stroke-linejoin:round;stroke-miterlimit:4;stroke-dasharray:none;stroke-opacity:1" />
      <path
         d="M 199.06594,337.5357 C 199.87048,337.5843 200.6574,337.54134 201.45038,337.40404 L 201.10124,337.66684 C 200.29307,337.80295 199.48997,337.83882 198.67075,337.82281 L 199.06594,337.5357 z"
         id="path9222"
         style="opacity:1;fill:#ffffff;fill-opacity:1;fill-rule:nonzero;stroke:#d3d8db;stroke-width:2;stroke-linejoin:round;stroke-miterlimit:4;stroke-dasharray:none;stroke-opacity:1" />
      <path
         d="M 150.41884,325.60715 C 150.04854,327.1897 150.03606,328.84348 149.97229,330.4621 C 149.99264,331.36627 149.89494,332.26461 149.79627,333.16127 L 149.43974,333.33758 C 149.55742,332.43733 149.67508,331.53508 149.65159,330.62419 C 149.69342,329.01856 149.74112,327.3987 149.98071,325.80978 L 150.41884,325.60715 z"
         id="path9224"
         style="opacity:1;fill:#ffffff;fill-opacity:1;fill-rule:nonzero;stroke:#d3d8db;stroke-width:2;stroke-linejoin:round;stroke-miterlimit:4;stroke-dasharray:none;stroke-opacity:1" />
      <path
         d="M 148.15144,313.42799 C 147.53829,314.09298 147.0827,314.88646 146.62242,315.66021 C 146.04939,316.62774 145.53068,317.63161 145.05813,318.65196 C 144.57041,319.63295 144.06416,320.60792 143.70718,321.64569 C 143.47977,322.18198 143.59264,321.92116 143.36912,322.42837 L 142.96072,322.61528 C 143.19115,322.10655 143.07476,322.36762 143.30944,321.83186 C 143.67428,320.793 144.17974,319.81307 144.66993,318.82913 C 145.13718,317.80487 145.66157,316.80086 146.23498,315.83221 C 146.68197,315.073 147.11902,314.28853 147.70243,313.62445 L 148.15144,313.42799 z"
         id="path9226"
         style="opacity:1;fill:#ffffff;fill-opacity:1;fill-rule:nonzero;stroke:#ffffff;stroke-width:2;stroke-linejoin:round;stroke-miterlimit:4;stroke-dasharray:none;stroke-opacity:1" />
      <path
         d="M 107.54447,280.64674 C 107.14978,281.9507 106.70516,283.23468 106.38118,284.55923 C 106.1588,285.57204 105.89566,286.56695 105.56477,287.54942 L 105.19781,287.72152 C 105.53268,286.74189 105.81576,285.75307 106.01359,284.73541 C 106.34045,283.43322 106.78654,282.16804 107.11294,280.86662 L 107.54447,280.64674 z"
         id="path9228"
         style="opacity:1;fill:#ffffff;fill-opacity:1;fill-rule:nonzero;stroke:#d3d8db;stroke-width:2;stroke-linejoin:round;stroke-miterlimit:4;stroke-dasharray:none;stroke-opacity:1" />
      <path
         d="M 156.84549,289.4112 C 157.21412,290.14564 157.4552,290.93281 157.71467,291.70984 C 158.03889,292.78079 158.22215,293.88606 158.43038,294.98336 L 158.11157,295.15353 C 157.8987,294.06404 157.67087,292.97847 157.33604,291.91852 C 157.07517,291.14986 156.83299,290.36435 156.42263,289.65899 L 156.84549,289.4112 z"
         id="path9230"
         style="opacity:1;fill:#ffffff;fill-opacity:1;fill-rule:nonzero;stroke:#ffffff;stroke-width:2;stroke-linejoin:round;stroke-miterlimit:4;stroke-dasharray:none;stroke-opacity:1" />
      <path
         d="M 174.46708,291.75842 C 174.4337,293.11703 174.3758,294.4931 174.04838,295.81994 C 173.96064,296.17546 173.83471,296.52046 173.72788,296.87072 C 172.90689,298.86257 171.74133,300.68707 170.44814,302.40089 L 170.13796,302.53442 C 171.42964,300.82873 172.6213,299.02429 173.40674,297.02279 C 173.8951,295.34713 174.18608,293.7316 174.03555,291.97829 L 174.46708,291.75842 z"
         id="path9232"
         style="opacity:1;fill:#ffffff;fill-opacity:1;fill-rule:nonzero;stroke:#ffffff;stroke-width:2;stroke-linejoin:round;stroke-miterlimit:4;stroke-dasharray:none;stroke-opacity:1" />
      <path
         d="M 167.90294,307.63717 C 167.97542,308.34746 168.1152,309.04472 168.27114,309.74082 C 168.51028,310.85284 168.78492,311.95086 169.1812,313.01792 C 169.44807,313.4757 169.62764,313.8564 170.02612,314.22742 C 171.18283,315.30441 172.93753,315.83475 174.3924,316.34583 L 174.13586,316.51942 C 172.69618,316.02471 170.84246,315.46975 169.68478,314.43213 C 169.30585,314.0925 169.07044,313.64868 168.80815,313.22491 C 168.41672,312.15548 168.13549,311.05851 167.88558,309.94819 C 167.72751,309.25469 167.57411,308.56248 167.46771,307.85893 L 167.90294,307.63717 z"
         id="path9234"
         style="opacity:1;fill:#ffffff;fill-opacity:1;fill-rule:nonzero;stroke:#ffffff;stroke-width:2;stroke-linejoin:round;stroke-miterlimit:4;stroke-dasharray:none;stroke-opacity:1" />
      <path
         d="M 160.67251,273.06967 C 161.32196,272.85795 161.70689,272.56135 162.24355,272.14649 C 163.05666,271.50706 163.79612,270.7869 164.52155,270.05168 C 165.08973,269.4828 165.69902,268.96219 166.32436,268.45777 C 167.19419,267.79895 167.75644,267.6713 168.74926,268.02887 C 169.408,268.37685 169.852,268.98049 170.27099,269.57591 C 170.75118,270.25146 171.20423,270.9458 171.6769,271.62672 C 172.1563,272.33677 172.77049,272.93368 173.35998,273.54963 C 173.93984,274.20217 174.59091,274.77439 175.28927,275.29486 C 175.83178,275.67476 176.41208,275.9832 177.0366,276.2021 L 176.6543,276.46035 C 176.0297,276.2343 175.44491,275.92857 174.90692,275.53662 C 174.21265,275.00975 173.56462,274.43152 172.98557,273.77799 C 172.3926,273.16055 171.76293,272.57468 171.28925,271.85485 C 170.81688,271.17396 170.36747,270.47762 169.88804,269.80198 C 169.46476,269.21879 169.02192,268.62885 168.36957,268.28537 C 168.01397,268.16036 167.6979,268.08209 167.31524,268.11086 C 167.19124,268.12018 167.07095,268.17661 166.9468,268.16939 C 166.90895,268.16719 167.06498,268.07509 167.03236,268.09441 C 166.93285,268.15336 166.8408,268.22408 166.74502,268.28891 C 166.11371,268.79166 165.50448,269.31698 164.92864,269.88281 C 164.20043,270.61675 163.46083,271.33834 162.65123,271.98354 C 161.92881,272.54854 161.15112,273.04195 160.29259,273.37356 L 160.67251,273.06967 z"
         id="path9236"
         style="opacity:1;fill:#ffffff;fill-opacity:1;fill-rule:nonzero;stroke:#d3d8db;stroke-width:2;stroke-linejoin:round;stroke-miterlimit:4;stroke-dasharray:none;stroke-opacity:1" />
      <path
         d="M 167.42506,273.53934 C 167.50784,274.103 167.6645,274.64961 167.82986,275.19356 C 167.97255,275.7786 168.20869,276.33289 168.55844,276.82267 C 168.92196,277.34903 169.4124,277.65159 169.99503,277.88233 L 169.61567,278.13664 C 169.02287,277.90116 168.5271,277.5955 168.15575,277.06029 C 167.80514,276.56587 167.57015,276.00288 167.42694,275.41406 C 167.26227,274.87174 167.10143,274.32883 166.99584,273.77146 L 167.42506,273.53934 z"
         id="path9238"
         style="opacity:1;fill:#ffffff;fill-opacity:1;fill-rule:nonzero;stroke:#d3d8db;stroke-width:2;stroke-linejoin:round;stroke-miterlimit:4;stroke-dasharray:none;stroke-opacity:1" />
      <path
         d="M 196.71949,278.84265 C 196.80464,279.55061 196.99265,280.23894 197.14014,280.93519 L 196.7557,281.1413 C 196.60895,280.45037 196.42995,279.76722 196.29027,279.07476 L 196.71949,278.84265 z"
         id="path9240"
         style="opacity:1;fill:#ffffff;fill-opacity:1;fill-rule:nonzero;stroke:#d3d8db;stroke-width:2;stroke-linejoin:round;stroke-miterlimit:4;stroke-dasharray:none;stroke-opacity:1" />
      <path
         d="M 181.48647,294.48763 C 181.45695,294.53932 181.42743,294.59101 181.39791,294.6427 L 180.95923,294.83963 C 180.98531,294.78778 181.01138,294.73593 181.03746,294.68409 L 181.48647,294.48763 z"
         id="path9242"
         style="opacity:1;fill:#ffffff;fill-opacity:1;fill-rule:nonzero;stroke:#ffffff;stroke-width:2;stroke-linejoin:round;stroke-miterlimit:4;stroke-dasharray:none;stroke-opacity:1" />
      <path
         d="M 142.39659,286.6765 C 142.34735,287.51505 142.3908,288.35038 142.51705,289.17994 C 142.61838,289.94033 142.88382,290.6442 143.24452,291.31463 C 143.59345,292.0226 144.11513,292.61081 144.63067,293.19909 L 144.30083,293.39915 C 143.75747,292.8269 143.20956,292.25316 142.84904,291.5416 C 142.4788,290.86727 142.22586,290.15271 142.13003,289.38444 C 142.00831,288.56019 141.96301,287.73122 141.96136,286.89826 L 142.39659,286.6765 z"
         id="path9244"
         style="opacity:1;fill:#ffffff;fill-opacity:1;fill-rule:nonzero;stroke:#ffffff;stroke-width:2;stroke-linejoin:round;stroke-miterlimit:4;stroke-dasharray:none;stroke-opacity:1" />
      <path
         d="M 218.74249,269.1697 C 219.28512,269.49449 219.87682,269.74073 220.45671,269.99366 C 221.10447,270.25626 221.74627,270.51925 222.42424,270.69435 C 223.15473,270.93538 223.92295,271.02225 224.68602,271.08473 C 225.33321,271.11132 225.98774,271.22893 226.58978,270.94674 C 226.26985,271.06742 226.39676,271.05722 226.54332,270.83698 C 226.65105,270.67511 226.66836,270.58147 226.72871,270.39908 L 227.15543,270.19799 C 226.98936,270.73922 226.7771,270.96552 226.22389,271.23672 C 225.61428,271.4936 224.96064,271.37679 224.31469,271.34964 C 223.55084,271.27971 222.78061,271.188 222.04738,270.95357 C 221.37067,270.77131 220.72242,270.51453 220.07533,270.24728 C 219.48906,269.98709 218.89623,269.73389 218.32974,269.43398 L 218.74249,269.1697 z"
         id="path9246"
         style="opacity:1;fill:#ffffff;fill-opacity:1;fill-rule:nonzero;stroke:#ffffff;stroke-width:2;stroke-linejoin:round;stroke-miterlimit:4;stroke-dasharray:none;stroke-opacity:1" />
      <path
         d="M 237.68285,268.91716 C 238.18791,269.32794 238.70515,269.72269 239.17744,270.17102 C 239.79901,270.79142 240.44499,271.38573 241.10076,271.96963 C 241.55803,272.39269 242.12106,272.62921 242.68101,272.87986 L 242.30733,273.12804 C 241.74265,272.87552 241.16795,272.64468 240.7124,272.21053 C 240.06179,271.62276 239.43804,271.00806 238.80531,270.40125 C 238.31661,269.96727 237.79866,269.56556 237.2701,269.18144 L 237.68285,268.91716 z"
         id="path9248"
         style="opacity:1;fill:#ffffff;fill-opacity:1;fill-rule:nonzero;stroke:#ffffff;stroke-width:2;stroke-linejoin:round;stroke-miterlimit:4;stroke-dasharray:none;stroke-opacity:1" />
      <path
         d="M 232.32736,280.10534 C 232.52688,280.65356 232.70817,281.2068 232.89662,281.75897 C 233.07709,282.35835 233.28827,282.94736 233.4894,283.54004 C 233.64265,284.0729 233.80948,284.60062 233.98575,285.12627 L 233.6239,285.32721 C 233.4129,284.81445 233.22619,284.2997 233.08599,283.76253 C 232.88425,283.16992 232.66796,282.58261 232.49492,281.98063 C 232.30545,281.42883 232.12739,280.87476 231.89815,280.33745 L 232.32736,280.10534 z"
         id="path9250"
         style="opacity:1;fill:#ffffff;fill-opacity:1;fill-rule:nonzero;stroke:#ffffff;stroke-width:2;stroke-linejoin:round;stroke-miterlimit:4;stroke-dasharray:none;stroke-opacity:1" />
      <path
         d="M 253.59462,302.82624 C 254.17289,303.8503 254.92491,304.7202 255.80181,305.49525 C 256.61358,306.14923 256.20755,305.84001 257.01788,306.42555 L 256.67641,306.64209 C 255.87418,306.04716 256.27852,306.35885 255.46501,305.70494 C 255.26383,305.53363 255.0544,305.37156 254.86146,305.19101 C 254.19779,304.56996 253.7208,303.79416 253.17812,303.07341 L 253.59462,302.82624 z"
         id="path9252"
         style="opacity:1;fill:#ffffff;fill-opacity:1;fill-rule:nonzero;stroke:#ffffff;stroke-width:2;stroke-linejoin:round;stroke-miterlimit:4;stroke-dasharray:none;stroke-opacity:1" />
      <path
         d="M 177.48908,573.44036 C 177.66793,574.24381 177.87804,575.0417 178.10603,575.83333 C 178.33618,576.69051 178.61673,577.53718 178.94044,578.3637 C 179.25151,579.08565 179.71348,579.71844 180.25668,580.28057 L 179.70058,580.61963 C 179.15803,580.04615 178.68624,579.41032 178.37193,578.68069 C 178.04621,577.85279 177.75676,577.00653 177.53462,576.14485 C 177.30938,575.35452 177.10227,574.55974 176.88207,573.76862 L 177.48908,573.44036 z"
         id="path9254"
         style="opacity:1;fill:#ffffff;fill-opacity:1;fill-rule:nonzero;stroke:#ffffff;stroke-width:2;stroke-linejoin:round;stroke-miterlimit:4;stroke-dasharray:none;stroke-opacity:1" />
      <path
         d="M 172.79427,587.10647 C 172.10915,586.79513 171.4069,586.51049 170.70482,586.22906 C 169.91183,585.73741 169.04985,585.39366 168.21439,584.98564 C 167.58268,584.60909 167.91567,584.79101 167.21268,584.44497 L 167.73889,584.09786 C 168.45406,584.44032 168.11596,584.26161 168.75604,584.62857 C 169.59036,585.03724 170.45247,585.37816 171.24671,585.86624 C 171.95899,586.15527 172.67476,586.43034 173.37798,586.73272 L 172.79427,587.10647 z"
         id="path9256"
         style="opacity:1;fill:#ffffff;fill-opacity:1;fill-rule:nonzero;stroke:#ffffff;stroke-width:2;stroke-linejoin:round;stroke-miterlimit:4;stroke-dasharray:none;stroke-opacity:1" />
      <path
         d="M 179.19703,603.81257 C 178.84795,604.56898 178.39861,605.26732 178.00133,605.99746 C 177.83444,606.44687 177.6045,606.86858 177.39231,607.29734 L 176.80222,607.56458 C 177.01437,607.13674 177.24939,606.71777 177.40529,606.26474 C 177.79452,605.54472 178.23919,604.85962 178.57467,604.1107 L 179.19703,603.81257 z"
         id="path9258"
         style="opacity:1;fill:#ffffff;fill-opacity:1;fill-rule:nonzero;stroke:#ffffff;stroke-width:2;stroke-linejoin:round;stroke-miterlimit:4;stroke-dasharray:none;stroke-opacity:1" />
      <path
         d="M 153.15141,605.6779 C 152.57518,605.15679 151.98824,604.63235 151.33271,604.21108 C 150.69887,603.94075 150.09074,603.61747 149.46056,603.33674 L 150.00916,602.97257 C 150.63865,603.25879 151.25449,603.57248 151.88346,603.85741 C 152.54099,604.28654 153.12175,604.8158 153.73513,605.30415 L 153.15141,605.6779 z"
         id="path9260"
         style="opacity:1;fill:#ffffff;fill-opacity:1;fill-rule:nonzero;stroke:#ffffff;stroke-width:2;stroke-linejoin:round;stroke-miterlimit:4;stroke-dasharray:none;stroke-opacity:1" />
      <path
         d="M 151.266,582.32135 C 150.60129,582.80498 149.9817,583.3667 149.44102,583.98572 C 149.31967,584.12291 149.19832,584.26009 149.07697,584.39728 L 148.48802,584.64556 C 148.60778,584.50935 148.72754,584.37315 148.84729,584.23694 C 149.36946,583.61855 149.98196,583.07025 150.62053,582.5739 L 151.266,582.32135 z"
         id="path9262"
         style="opacity:1;fill:#ffffff;fill-opacity:1;fill-rule:nonzero;stroke:#ffffff;stroke-width:2;stroke-linejoin:round;stroke-miterlimit:4;stroke-dasharray:none;stroke-opacity:1" />
      <path
         d="M 144.87085,578.46269 C 144.44347,579.36548 144.04727,580.27741 143.57975,581.16045 L 142.9961,581.42273 C 143.4616,580.55273 143.86647,579.65797 144.24399,578.7463 L 144.87085,578.46269 z"
         id="path9264"
         style="opacity:1;fill:#ffffff;fill-opacity:1;fill-rule:nonzero;stroke:#ffffff;stroke-width:2;stroke-linejoin:round;stroke-miterlimit:4;stroke-dasharray:none;stroke-opacity:1" />
      <path
         d="M 140.94227,574.53412 C 140.71188,574.98329 140.59475,575.47174 140.49076,575.96174 L 139.90256,576.24682 C 139.9963,575.75797 140.10973,575.27399 140.31542,574.81773 L 140.94227,574.53412 z"
         id="path9266"
         style="opacity:1;fill:#ffffff;fill-opacity:1;fill-rule:nonzero;stroke:#ffffff;stroke-width:2;stroke-linejoin:round;stroke-miterlimit:4;stroke-dasharray:none;stroke-opacity:1" />
      <path
         d="M 119.47206,533.11182 C 118.95378,533.80702 118.76731,534.65056 118.62789,535.48864 C 118.51125,536.32591 118.50394,537.17275 118.4992,538.01648 C 118.44869,539.02557 118.53732,540.02331 118.65842,541.02347 C 118.67712,541.18494 118.69582,541.3464 118.71453,541.50786 L 118.14117,541.80807 C 118.12377,541.6461 118.10636,541.48412 118.08895,541.32214 C 117.97288,540.3212 117.86845,539.32349 117.91514,538.31362 C 117.92086,537.46633 117.91916,536.61579 118.04177,535.77525 C 118.18,534.93917 118.35773,534.09547 118.84305,533.38288 L 119.47206,533.11182 z"
         id="path9268"
         style="opacity:1;fill:#ffffff;fill-opacity:1;fill-rule:nonzero;stroke:#ffffff;stroke-width:2;stroke-linejoin:round;stroke-miterlimit:4;stroke-dasharray:none;stroke-opacity:1" />
      <path
         d="M 124.87492,477.35143 C 124.527,478.01474 124.13702,478.64441 123.8742,479.34955 C 123.60724,480.14255 123.5482,480.9767 123.51199,481.80598 C 123.45525,482.62972 123.55449,483.44854 123.75698,484.24641 C 123.94324,485.12546 124.33017,485.94561 124.78371,486.71583 C 125.25726,487.50409 125.66871,488.32606 126.09733,489.13958 C 126.33904,489.66855 126.22998,489.40357 126.42619,489.93385 L 125.85145,490.25246 C 125.66236,489.72539 125.76799,489.98897 125.53281,489.46242 C 125.10869,488.648 124.68718,487.83237 124.21948,487.04227 C 123.76228,486.26781 123.37655,485.44147 123.1765,484.5607 C 122.97012,483.75751 122.87356,482.93137 122.92604,482.10176 C 122.95267,481.26531 123.02152,480.42583 123.28315,479.62498 C 123.53704,478.9214 123.92186,478.30147 124.23992,477.62926 L 124.87492,477.35143 z"
         id="path9270"
         style="opacity:1;fill:#ffffff;fill-opacity:1;fill-rule:nonzero;stroke:#d3d8db;stroke-width:2;stroke-linejoin:round;stroke-miterlimit:4;stroke-dasharray:none;stroke-opacity:1" />
      <path
         d="M 151.98029,471.60706 C 151.21006,472.11274 150.68294,472.85968 150.15358,473.59531 C 149.41195,474.75911 148.80055,475.95305 148.43103,477.28411 C 148.13889,478.46368 148.12881,479.66691 148.22296,480.86974 C 148.29578,482.18034 148.52414,483.47162 148.77602,484.75741 C 148.96518,485.86646 149.30198,486.94298 149.64593,488.01182 C 149.93261,488.92481 150.19248,489.8484 150.40095,490.78264 C 150.42772,490.92872 150.4545,491.07479 150.48127,491.22087 L 149.90466,491.52774 C 149.8789,491.3821 149.85314,491.23647 149.82737,491.09083 C 149.62169,490.15719 149.36194,489.23421 149.08686,488.31908 C 148.73811,487.24705 148.40128,486.16655 148.22929,485.04938 C 147.9793,483.76111 147.73058,482.4722 147.66861,481.15773 C 147.57201,479.94783 147.55914,478.74151 147.86264,477.55442 C 148.23985,476.22026 148.84459,475.02151 149.57638,473.84571 C 150.08988,473.11848 150.59301,472.37609 151.33482,471.85961 L 151.98029,471.60706 z"
         id="path9272"
         style="opacity:1;fill:#ffffff;fill-opacity:1;fill-rule:nonzero;stroke:#ffffff;stroke-width:2;stroke-linejoin:round;stroke-miterlimit:4;stroke-dasharray:none;stroke-opacity:1" />
      <path
         d="M 210.86163,509.1495 C 210.13885,509.78088 209.42513,510.4217 208.79712,511.14878 C 208.43955,511.71451 207.98724,512.2035 207.5465,512.70283 L 206.94567,512.95595 C 207.39128,512.45519 207.85718,511.97225 208.21019,511.39717 C 208.82551,510.67497 209.52789,510.04366 210.22518,509.40261 L 210.86163,509.1495 z"
         id="path9274"
         style="opacity:1;fill:#ffffff;fill-opacity:1;fill-rule:nonzero;stroke:#ffffff;stroke-width:2;stroke-linejoin:round;stroke-miterlimit:4;stroke-dasharray:none;stroke-opacity:1" />
      <path
         d="M 213.05172,516.9642 C 212.42506,517.50279 211.8031,518.04954 211.21626,518.63172 C 210.82486,519.02136 210.48505,519.45615 210.12011,519.86984 L 209.53168,520.11781 C 209.8979,519.70475 210.23662,519.26941 210.62525,518.87665 C 211.19499,518.29793 211.81269,517.76989 212.40625,517.21676 L 213.05172,516.9642 z"
         id="path9276"
         style="opacity:1;fill:#ffffff;fill-opacity:1;fill-rule:nonzero;stroke:#ffffff;stroke-width:2;stroke-linejoin:round;stroke-miterlimit:4;stroke-dasharray:none;stroke-opacity:1" />
      <path
         d="M 214.12314,528.74992 C 213.30387,529.34178 212.40773,529.81856 211.489,530.23602 C 210.93224,530.50803 211.2104,530.37772 210.65475,530.62741 L 211.1657,530.22203 C 211.71824,529.97189 211.44078,530.10182 211.9979,529.83181 C 212.9062,529.4129 212.64619,529.58418 213.47768,529.00247 L 214.12314,528.74992 z"
         id="path9278"
         style="opacity:1;fill:#ffffff;fill-opacity:1;fill-rule:nonzero;stroke:#ffffff;stroke-width:2;stroke-linejoin:round;stroke-miterlimit:4;stroke-dasharray:none;stroke-opacity:1" />
      <path
         d="M 218.0892,533.78 C 217.62269,534.51702 217.03349,535.17801 216.47803,535.85092 C 215.71841,536.88179 214.62686,537.47623 213.53593,538.09141 L 214.04152,537.68411 C 213.99557,537.71556 213.85596,537.80716 213.90368,537.77846 C 214.49987,537.41993 215.0561,537.03603 215.53035,536.52187 C 215.65558,536.38609 215.77053,536.24118 215.89061,536.10083 C 216.43388,535.44218 217.0173,534.78966 217.4542,534.05783 L 218.0892,533.78 z"
         id="path9280"
         style="opacity:1;fill:#ffffff;fill-opacity:1;fill-rule:nonzero;stroke:#ffffff;stroke-width:2;stroke-linejoin:round;stroke-miterlimit:4;stroke-dasharray:none;stroke-opacity:1" />
      <path
         d="M 242.17016,533.74371 C 242.71906,534.55187 243.23224,535.38103 243.80995,536.16953 C 244.12213,536.60292 244.47563,536.99646 244.8517,537.37383 L 244.30121,537.71053 C 243.92871,537.32666 243.57502,536.92902 243.2617,536.49401 C 242.6838,535.70329 242.17891,534.86316 241.57215,534.09412 L 242.17016,533.74371 z"
         id="path9282"
         style="opacity:1;fill:#ffffff;fill-opacity:1;fill-rule:nonzero;stroke:#ffffff;stroke-width:2;stroke-linejoin:round;stroke-miterlimit:4;stroke-dasharray:none;stroke-opacity:1" />
      <path
         d="M 233.63634,545.16739 C 234.31451,545.8215 235.18437,546.17088 236.02415,546.56319 C 236.8152,546.93289 237.66424,547.1322 238.50029,547.36718 L 237.98097,547.72301 C 237.14463,547.48404 236.29769,547.2753 235.50489,546.90715 C 234.64539,546.51455 233.75832,546.17347 233.04855,545.52759 L 233.63634,545.16739 z"
         id="path9284"
         style="opacity:1;fill:#ffffff;fill-opacity:1;fill-rule:nonzero;stroke:#ffffff;stroke-width:2;stroke-linejoin:round;stroke-miterlimit:4;stroke-dasharray:none;stroke-opacity:1" />
      <path
         d="M 228.31541,552.97282 C 229.08703,553.33697 229.90921,553.55184 230.72553,553.78699 C 231.26802,553.93497 231.80766,554.09139 232.35119,554.23562 L 231.82927,554.5945 C 231.28398,554.44963 230.73963,554.30157 230.19631,554.14949 C 229.3663,553.91558 228.53382,553.69655 227.74064,553.351 L 228.31541,552.97282 z"
         id="path9286"
         style="opacity:1;fill:#ffffff;fill-opacity:1;fill-rule:nonzero;stroke:#ffffff;stroke-width:2;stroke-linejoin:round;stroke-miterlimit:4;stroke-dasharray:none;stroke-opacity:1" />
      <path
         d="M 249.87492,556.28 C 249.27475,556.94807 248.64918,557.59091 248.08447,558.29027 C 247.41892,559.07104 246.73896,559.86191 246.22113,560.75067 L 245.62962,561.01422 C 246.13757,560.11521 246.83105,559.32672 247.49645,558.5414 C 248.04627,557.85182 248.65296,557.21451 249.23992,556.55783 L 249.87492,556.28 z"
         id="path9288"
         style="opacity:1;fill:#ffffff;fill-opacity:1;fill-rule:nonzero;stroke:#ffffff;stroke-width:2;stroke-linejoin:round;stroke-miterlimit:4;stroke-dasharray:none;stroke-opacity:1" />
      <path
         d="M 233.4836,570.11449 C 232.65957,570.3584 231.87766,570.22183 231.0611,570.04188 C 230.49812,569.9593 229.93452,569.96835 229.37215,570.03773 L 229.89638,569.64749 C 230.4637,569.58532 231.03205,569.5727 231.59772,569.66948 C 232.42117,569.85031 233.20781,569.96389 234.03178,569.69532 L 233.4836,570.11449 z"
         id="path9290"
         style="opacity:1;fill:#ffffff;fill-opacity:1;fill-rule:nonzero;stroke:#ffffff;stroke-width:2;stroke-linejoin:round;stroke-miterlimit:4;stroke-dasharray:none;stroke-opacity:1" />
      <path
         d="M 107.4118,605.0228 L 108.62745,621.93107 L 114.82143,622.18361 L 267.5,254.1479 L 268.03571,249.68361 L 257.35579,249.46171 L 107.22054,604.98999"
         id="path9294"
         style="fill:#d3d8db;fill-opacity:1;fill-rule:evenodd;stroke:#000000;stroke-width:3;stroke-linecap:butt;stroke-linejoin:miter;stroke-miterlimit:4;stroke-dasharray:none;stroke-opacity:1" />
      <path
         d="M 266.85884,624.58796 L 267.87983,248.53329 L 267.87983,248.53329"
         id="path8754"
         style="fill:none;fill-rule:evenodd;stroke:#000000;stroke-width:4;stroke-linecap:butt;stroke-linejoin:miter;stroke-miterlimit:4;stroke-dasharray:none;stroke-opacity:1" />
      <path
         d="M 424.68027,625.70626 L 424.68027,248.52603"
         id="path8756"
         style="fill:none;fill-rule:evenodd;stroke:#000000;stroke-width:3.99273181;stroke-linecap:butt;stroke-linejoin:miter;stroke-miterlimit:4;stroke-dasharray:none;stroke-opacity:1" />
    </g>
  </g>
</svg>
