<svg width="875" height="893" xmlns="http://www.w3.org/2000/svg" xmlns:xlink="http://www.w3.org/1999/xlink" xml:space="preserve" overflow="hidden"><g transform="translate(-165 -1430)"><g><path d="M169.5 1576.84C169.5 1497.12 234.122 1432.5 313.836 1432.5L891.164 1432.5C970.878 1432.5 1035.5 1497.12 1035.5 1576.84L1035.5 2173.16C1035.5 2252.88 970.878 2317.5 891.164 2317.5L313.836 2317.5C234.122 2317.5 169.5 2252.88 169.5 2173.16Z" stroke="#0098D5" stroke-width="4.58333" stroke-linecap="butt" stroke-linejoin="miter" stroke-miterlimit="8" stroke-opacity="1" fill="#0091CD" fill-rule="evenodd" fill-opacity="1"/><g><g><g><path d="M471.598 130.017 415.669 130.017 417.395 3.17621 422.297 2.42956 426.717 6.79788 428.788 11.3274 434.657 12.7326 437.419 16.9376 437.419 23.9528 431.55 23.1968 427.752 25.8931 427.062 30.4261 432.24 35.3871 437.764 32.7288 440.526 26.9737 444.324 26.9737 447.431 29.67 448.812 35.5597 454.681 36.699 457.788 43.6038 455.371 49.7491 451.229 51.6824 447.776 51.8896 444.669 57.6205 437.419 59.4503 437.419 53.5122 435.002 49.5074 430.169 49.3003 426.026 53.5122 426.371 63.2134 428.097 69.1516 434.657 76.1599 445.359 78.3349 455.717 78.3349 461.931 77.4718C464.348 75.1587 467.8 69.3242 467.8 69.3242" fill="#FFDD00" fill-rule="nonzero" fill-opacity="1" transform="matrix(-1 0 0 1.02703 923.105 1571.89)"/><path d="M417.844 3.10371C425.405 3.10371 426.717 10.9786 427.407 11.9833 428.097 12.9845 430.514 12.9672 431.55 13.2192 433.276 13.7544 434.312 14.9316 435.348 16.1745 436.038 17.2413 436.383 18.819 436.038 22.3819 435.693 22.2473 433.967 21.4877 432.931 21.6086 431.55 21.7674 430.514 21.8744 429.133 22.7755 427.062 24.0632 426.717 24.7572 426.026 26.2589 425.336 27.8885 424.99 30.426 426.371 31.983 427.407 33.8404 427.407 33.5642 429.133 34.7657 430.514 35.8014 432.586 36.3883 434.657 35.974 436.383 35.6288 437.419 34.8347 438.8 33.5297 440.181 31.5549 441.217 28.8517 441.217 28.3856 443.288 27.8436 445.014 29.2625 445.705 30.3086 447.431 32.853 447.431 34.4688 447.431 36.9752 451.574 35.9049 456.062 38.3562 456.062 43.2586 456.062 48.1264 451.919 50.8538 447.086 49.2312 447.086 53.4086 445.014 55.4801 443.288 56.8265 441.907 57.8622 440.181 57.7241 438.455 57.7241 438.8 56.136 438.8 55.9289 438.8 54.2372 438.455 52.2693 437.764 50.1979 436.728 49.2312 435.693 48.2645 433.621 47.0907 431.55 47.6776 429.824 48.161 427.062 49.1622 426.026 50.9574 424.3 53.0634 424.3 54.5134 424.3 57.1372 424.3 60.417 424.99 63.9039 426.026 67.1837 427.062 70.4635 428.788 72.742 430.169 74.4682 431.55 76.298 434.312 77.5754 437.074 78.404 439.49 79.129 442.252 79.5433 446.395 79.7504 450.538 79.9576 453.3 79.854 456.062 79.7504 457.443 79.6814 458.133 79.6538 460.205 79.0945 461.586 78.7216 463.45 77.748 465.038 76.2635 466.246 75.138 467.282 72.8318 467.455 72.017 467.627 71.2057 467.869 69.0894 467.869 69.0894 467.869 69.0894 465.729 71.7754 464.693 72.7766 463.657 73.7087 462.621 74.9171 461.586 75.504 459.169 76.8504 457.098 76.7814 455.026 76.8504 451.919 76.9194 447.431 76.8504 443.288 76.4706 438.8 76.0909 435.693 75.2623 433.276 73.1909 430.859 71.0158 429.478 68.9099 428.788 66.217 427.062 60.486 427.062 58.4836 427.407 55.411 427.752 51.786 431.205 50.3015 432.586 50.3705 433.967 50.4395 434.657 51.13 435.348 52.2003 436.728 54.8241 435.693 57.2062 435.693 59.8301 440.526 61.0384 442.598 60.1753 444.669 58.8634 446.74 57.6205 448.812 54.7205 448.812 52.8908 450.883 53.4777 453.3 52.6836 455.717 51.1646 457.098 50.0598 458.824 46.8145 458.824 43.7764 458.824 41.3943 458.133 39.0812 457.443 37.6657 455.371 34.7657 452.264 34.1684 449.848 34.1684 449.848 28.1785 443.288 24.1771 439.145 25.382 439.49 28.4063 438.455 29.9806 437.764 30.9473 437.074 32.1833 436.038 32.9877 434.657 33.3985 432.586 33.9302 431.205 33.0809 430.169 32.2454 428.443 31.0578 427.752 28.1163 429.478 26.2589 430.514 24.9781 432.586 24.3152 433.621 24.5224 435.002 24.7951 436.383 25.6272 437.074 25.3303 438.109 25.0368 438.455 22.8445 438.455 22.0919 439.49 13.5127 435.002 10.9476 429.478 9.84969 427.752 3.18656 422.194 0.08631 417.844 0.08631" fill="#000000" fill-rule="nonzero" fill-opacity="1" transform="matrix(-1 0 0 1.02703 923.105 1571.89)"/><path d="M-0.759077 135.433C-0.759077 137.945-2.7953 139.981-5.30711 139.981-7.81891 139.981-9.85513 137.945-9.85513 135.433-9.85513 132.921-7.81891 130.885-5.30711 130.885-2.7953 130.885-0.759076 132.921-0.759077 135.433Z" fill="#000000" fill-rule="nonzero" fill-opacity="1" transform="matrix(-1 0 0 1.02703 474.638 1534.24)"/><path d="M438.109 38.9776 438.109 46.5383 445.705 46.5383 445.705 38.9776Z" fill="#0098D4" fill-rule="nonzero" fill-opacity="1" transform="matrix(-1 0 0 1.02703 923.105 1571.89)"/><path d="M471.598 130.017 415.669 130.017 417.395 3.17621 422.297 2.42956 426.717 6.79788 428.788 11.3274 434.657 12.7326 437.419 16.9376 437.419 23.9528 431.55 23.1968 427.752 25.8931 427.062 30.4261 432.24 35.3871 437.764 32.7288 440.526 26.9737 444.324 26.9737 447.431 29.67 448.812 35.5597 454.681 36.699 457.788 43.6038 455.371 49.7491 451.229 51.6824 447.776 51.8896 444.669 57.6205 437.419 59.4503 437.419 53.5122 435.002 49.5074 430.169 49.3003 426.026 53.5122 426.371 63.2134 428.097 69.1516 434.657 76.1599 445.359 78.3349 455.717 78.3349 461.931 77.4718C464.348 75.1587 467.8 69.3242 467.8 69.3242" fill="#FFDD00" fill-rule="nonzero" fill-opacity="1" transform="matrix(1 0 0 1.02703 87.3679 1571.89)"/><path d="M417.844 3.10371C425.405 3.10371 426.717 10.9786 427.407 11.9833 428.097 12.9845 430.514 12.9672 431.55 13.2192 433.276 13.7544 434.312 14.9316 435.348 16.1745 436.038 17.2413 436.383 18.819 436.038 22.3819 435.693 22.2473 433.967 21.4877 432.931 21.6086 431.55 21.7674 430.514 21.8744 429.133 22.7755 427.062 24.0632 426.717 24.7572 426.026 26.2589 425.336 27.8885 424.99 30.426 426.371 31.983 427.407 33.8404 427.407 33.5642 429.133 34.7657 430.514 35.8014 432.586 36.3883 434.657 35.974 436.383 35.6288 437.419 34.8347 438.8 33.5297 440.181 31.5549 441.217 28.8517 441.217 28.3856 443.288 27.8436 445.014 29.2625 445.705 30.3086 447.431 32.853 447.431 34.4688 447.431 36.9752 451.574 35.9049 456.062 38.3562 456.062 43.2586 456.062 48.1264 451.919 50.8538 447.086 49.2312 447.086 53.4086 445.014 55.4801 443.288 56.8265 441.907 57.8622 440.181 57.7241 438.455 57.7241 438.8 56.136 438.8 55.9289 438.8 54.2372 438.455 52.2693 437.764 50.1979 436.728 49.2312 435.693 48.2645 433.621 47.0907 431.55 47.6776 429.824 48.161 427.062 49.1622 426.026 50.9574 424.3 53.0634 424.3 54.5134 424.3 57.1372 424.3 60.417 424.99 63.9039 426.026 67.1837 427.062 70.4635 428.788 72.742 430.169 74.4682 431.55 76.298 434.312 77.5754 437.074 78.404 439.49 79.129 442.252 79.5433 446.395 79.7504 450.538 79.9576 453.3 79.854 456.062 79.7504 457.443 79.6814 458.133 79.6538 460.205 79.0945 461.586 78.7216 463.45 77.748 465.038 76.2635 466.246 75.138 467.282 72.8318 467.455 72.017 467.627 71.2057 467.869 69.0894 467.869 69.0894 467.869 69.0894 465.729 71.7754 464.693 72.7766 463.657 73.7087 462.621 74.9171 461.586 75.504 459.169 76.8504 457.098 76.7814 455.026 76.8504 451.919 76.9194 447.431 76.8504 443.288 76.4706 438.8 76.0909 435.693 75.2623 433.276 73.1909 430.859 71.0158 429.478 68.9099 428.788 66.217 427.062 60.486 427.062 58.4836 427.407 55.411 427.752 51.786 431.205 50.3015 432.586 50.3705 433.967 50.4395 434.657 51.13 435.348 52.2003 436.728 54.8241 435.693 57.2062 435.693 59.8301 440.526 61.0384 442.598 60.1753 444.669 58.8634 446.74 57.6205 448.812 54.7205 448.812 52.8908 450.883 53.4777 453.3 52.6836 455.717 51.1646 457.098 50.0598 458.824 46.8145 458.824 43.7764 458.824 41.3943 458.133 39.0812 457.443 37.6657 455.371 34.7657 452.264 34.1684 449.848 34.1684 449.848 28.1785 443.288 24.1771 439.145 25.382 439.49 28.4063 438.455 29.9806 437.764 30.9473 437.074 32.1833 436.038 32.9877 434.657 33.3985 432.586 33.9302 431.205 33.0809 430.169 32.2454 428.443 31.0578 427.752 28.1163 429.478 26.2589 430.514 24.9781 432.586 24.3152 433.621 24.5224 435.002 24.7951 436.383 25.6272 437.074 25.3303 438.109 25.0368 438.455 22.8445 438.455 22.0919 439.49 13.5127 435.002 10.9476 429.478 9.84969 427.752 3.18656 422.194 0.08631 417.844 0.08631" fill="#000000" fill-rule="nonzero" fill-opacity="1" transform="matrix(1 0 0 1.02703 87.3679 1571.89)"/><path d="M-0.759077 135.433C-0.759077 137.945-2.7953 139.981-5.30711 139.981-7.81891 139.981-9.85513 137.945-9.85513 135.433-9.85513 132.921-7.81891 130.885-5.30711 130.885-2.7953 130.885-0.759076 132.921-0.759077 135.433Z" fill="#000000" fill-rule="nonzero" fill-opacity="1" transform="matrix(1 0 0 1.02703 535.834 1534.24)"/><path d="M438.109 38.9776 438.109 46.5383 445.705 46.5383 445.705 38.9776Z" fill="#0098D4" fill-rule="nonzero" fill-opacity="1" transform="matrix(1 0 0 1.02703 87.3679 1571.89)"/><path d="M471.598 130.017 415.669 130.017 417.395 3.17621 422.297 2.42956 426.717 6.79788 428.788 11.3274 434.657 12.7326 437.419 16.9376 437.419 23.9528 431.55 23.1968 427.752 25.8931 427.062 30.4261 432.24 35.3871 437.764 32.7288 440.526 26.9737 444.324 26.9737 447.431 29.67 448.812 35.5597 454.681 36.699 457.788 43.6038 455.371 49.7491 451.229 51.6824 447.776 51.8896 444.669 57.6205 437.419 59.4503 437.419 53.5122 435.002 49.5074 430.169 49.3003 426.026 53.5122 426.371 63.2134 428.097 69.1516 434.657 76.1599 445.359 78.3349 455.717 78.3349 461.931 77.4718C464.348 75.1587 467.8 69.3242 467.8 69.3242" fill="#FFDD00" fill-rule="nonzero" fill-opacity="1" transform="matrix(-1 0 0 1.02703 1022.97 1571.89)"/><path d="M417.844 3.10371C425.405 3.10371 426.717 10.9786 427.407 11.9833 428.097 12.9845 430.514 12.9672 431.55 13.2192 433.276 13.7544 434.312 14.9316 435.348 16.1745 436.038 17.2413 436.383 18.819 436.038 22.3819 435.693 22.2473 433.967 21.4877 432.931 21.6086 431.55 21.7674 430.514 21.8744 429.133 22.7755 427.062 24.0632 426.717 24.7572 426.026 26.2589 425.336 27.8885 424.99 30.426 426.371 31.983 427.407 33.8404 427.407 33.5642 429.133 34.7657 430.514 35.8014 432.586 36.3883 434.657 35.974 436.383 35.6288 437.419 34.8347 438.8 33.5297 440.181 31.5549 441.217 28.8517 441.217 28.3856 443.288 27.8436 445.014 29.2625 445.705 30.3086 447.431 32.853 447.431 34.4688 447.431 36.9752 451.574 35.9049 456.062 38.3562 456.062 43.2586 456.062 48.1264 451.919 50.8538 447.086 49.2312 447.086 53.4086 445.014 55.4801 443.288 56.8265 441.907 57.8622 440.181 57.7241 438.455 57.7241 438.8 56.136 438.8 55.9289 438.8 54.2372 438.455 52.2693 437.764 50.1979 436.728 49.2312 435.693 48.2645 433.621 47.0907 431.55 47.6776 429.824 48.161 427.062 49.1622 426.026 50.9574 424.3 53.0634 424.3 54.5134 424.3 57.1372 424.3 60.417 424.99 63.9039 426.026 67.1837 427.062 70.4635 428.788 72.742 430.169 74.4682 431.55 76.298 434.312 77.5754 437.074 78.404 439.49 79.129 442.252 79.5433 446.395 79.7504 450.538 79.9576 453.3 79.854 456.062 79.7504 457.443 79.6814 458.133 79.6538 460.205 79.0945 461.586 78.7216 463.45 77.748 465.038 76.2635 466.246 75.138 467.282 72.8318 467.455 72.017 467.627 71.2057 467.869 69.0894 467.869 69.0894 467.869 69.0894 465.729 71.7754 464.693 72.7766 463.657 73.7087 462.621 74.9171 461.586 75.504 459.169 76.8504 457.098 76.7814 455.026 76.8504 451.919 76.9194 447.431 76.8504 443.288 76.4706 438.8 76.0909 435.693 75.2623 433.276 73.1909 430.859 71.0158 429.478 68.9099 428.788 66.217 427.062 60.486 427.062 58.4836 427.407 55.411 427.752 51.786 431.205 50.3015 432.586 50.3705 433.967 50.4395 434.657 51.13 435.348 52.2003 436.728 54.8241 435.693 57.2062 435.693 59.8301 440.526 61.0384 442.598 60.1753 444.669 58.8634 446.74 57.6205 448.812 54.7205 448.812 52.8908 450.883 53.4777 453.3 52.6836 455.717 51.1646 457.098 50.0598 458.824 46.8145 458.824 43.7764 458.824 41.3943 458.133 39.0812 457.443 37.6657 455.371 34.7657 452.264 34.1684 449.848 34.1684 449.848 28.1785 443.288 24.1771 439.145 25.382 439.49 28.4063 438.455 29.9806 437.764 30.9473 437.074 32.1833 436.038 32.9877 434.657 33.3985 432.586 33.9302 431.205 33.0809 430.169 32.2454 428.443 31.0578 427.752 28.1163 429.478 26.2589 430.514 24.9781 432.586 24.3152 433.621 24.5224 435.002 24.7951 436.383 25.6272 437.074 25.3303 438.109 25.0368 438.455 22.8445 438.455 22.0919 439.49 13.5127 435.002 10.9476 429.478 9.84969 427.752 3.18656 422.194 0.08631 417.844 0.08631" fill="#000000" fill-rule="nonzero" fill-opacity="1" transform="matrix(-1 0 0 1.02703 1022.97 1571.89)"/><path d="M-0.759077 135.433C-0.759077 137.945-2.7953 139.981-5.30711 139.981-7.81891 139.981-9.85513 137.945-9.85513 135.433-9.85513 132.921-7.81891 130.885-5.30711 130.885-2.7953 130.885-0.759076 132.921-0.759077 135.433Z" fill="#000000" fill-rule="nonzero" fill-opacity="1" transform="matrix(-1 0 0 1.02703 574.501 1534.24)"/><path d="M438.109 38.9776 438.109 46.5383 445.705 46.5383 445.705 38.9776Z" fill="#0098D4" fill-rule="nonzero" fill-opacity="1" transform="matrix(-1 0 0 1.02703 1022.97 1571.89)"/><path d="M471.598 130.017 415.669 130.017 417.395 3.17621 422.297 2.42956 426.717 6.79788 428.788 11.3274 434.657 12.7326 437.419 16.9376 437.419 23.9528 431.55 23.1968 427.752 25.8931 427.062 30.4261 432.24 35.3871 437.764 32.7288 440.526 26.9737 444.324 26.9737 447.431 29.67 448.812 35.5597 454.681 36.699 457.788 43.6038 455.371 49.7491 451.229 51.6824 447.776 51.8896 444.669 57.6205 437.419 59.4503 437.419 53.5122 435.002 49.5074 430.169 49.3003 426.026 53.5122 426.371 63.2134 428.097 69.1516 434.657 76.1599 445.359 78.3349 455.717 78.3349 461.931 77.4718C464.348 75.1587 467.8 69.3242 467.8 69.3242" fill="#FFDD00" fill-rule="nonzero" fill-opacity="1" transform="matrix(1 0 0 1.02703 87.3679 1571.89)"/><path d="M417.844 3.10371C425.405 3.10371 426.717 10.9786 427.407 11.9833 428.097 12.9845 430.514 12.9672 431.55 13.2192 433.276 13.7544 434.312 14.9316 435.348 16.1745 436.038 17.2413 436.383 18.819 436.038 22.3819 435.693 22.2473 433.967 21.4877 432.931 21.6086 431.55 21.7674 430.514 21.8744 429.133 22.7755 427.062 24.0632 426.717 24.7572 426.026 26.2589 425.336 27.8885 424.99 30.426 426.371 31.983 427.407 33.8404 427.407 33.5642 429.133 34.7657 430.514 35.8014 432.586 36.3883 434.657 35.974 436.383 35.6288 437.419 34.8347 438.8 33.5297 440.181 31.5549 441.217 28.8517 441.217 28.3856 443.288 27.8436 445.014 29.2625 445.705 30.3086 447.431 32.853 447.431 34.4688 447.431 36.9752 451.574 35.9049 456.062 38.3562 456.062 43.2586 456.062 48.1264 451.919 50.8538 447.086 49.2312 447.086 53.4086 445.014 55.4801 443.288 56.8265 441.907 57.8622 440.181 57.7241 438.455 57.7241 438.8 56.136 438.8 55.9289 438.8 54.2372 438.455 52.2693 437.764 50.1979 436.728 49.2312 435.693 48.2645 433.621 47.0907 431.55 47.6776 429.824 48.161 427.062 49.1622 426.026 50.9574 424.3 53.0634 424.3 54.5134 424.3 57.1372 424.3 60.417 424.99 63.9039 426.026 67.1837 427.062 70.4635 428.788 72.742 430.169 74.4682 431.55 76.298 434.312 77.5754 437.074 78.404 439.49 79.129 442.252 79.5433 446.395 79.7504 450.538 79.9576 453.3 79.854 456.062 79.7504 457.443 79.6814 458.133 79.6538 460.205 79.0945 461.586 78.7216 463.45 77.748 465.038 76.2635 466.246 75.138 467.282 72.8318 467.455 72.017 467.627 71.2057 467.869 69.0894 467.869 69.0894 467.869 69.0894 465.729 71.7754 464.693 72.7766 463.657 73.7087 462.621 74.9171 461.586 75.504 459.169 76.8504 457.098 76.7814 455.026 76.8504 451.919 76.9194 447.431 76.8504 443.288 76.4706 438.8 76.0909 435.693 75.2623 433.276 73.1909 430.859 71.0158 429.478 68.9099 428.788 66.217 427.062 60.486 427.062 58.4836 427.407 55.411 427.752 51.786 431.205 50.3015 432.586 50.3705 433.967 50.4395 434.657 51.13 435.348 52.2003 436.728 54.8241 435.693 57.2062 435.693 59.8301 440.526 61.0384 442.598 60.1753 444.669 58.8634 446.74 57.6205 448.812 54.7205 448.812 52.8908 450.883 53.4777 453.3 52.6836 455.717 51.1646 457.098 50.0598 458.824 46.8145 458.824 43.7764 458.824 41.3943 458.133 39.0812 457.443 37.6657 455.371 34.7657 452.264 34.1684 449.848 34.1684 449.848 28.1785 443.288 24.1771 439.145 25.382 439.49 28.4063 438.455 29.9806 437.764 30.9473 437.074 32.1833 436.038 32.9877 434.657 33.3985 432.586 33.9302 431.205 33.0809 430.169 32.2454 428.443 31.0578 427.752 28.1163 429.478 26.2589 430.514 24.9781 432.586 24.3152 433.621 24.5224 435.002 24.7951 436.383 25.6272 437.074 25.3303 438.109 25.0368 438.455 22.8445 438.455 22.0919 439.49 13.5127 435.002 10.9476 429.478 9.84969 427.752 3.18656 422.194 0.08631 417.844 0.08631" fill="#000000" fill-rule="nonzero" fill-opacity="1" transform="matrix(1 0 0 1.02703 87.3679 1571.89)"/><path d="M-0.759077 135.433C-0.759077 137.945-2.7953 139.981-5.30711 139.981-7.81891 139.981-9.85513 137.945-9.85513 135.433-9.85513 132.921-7.81891 130.885-5.30711 130.885-2.7953 130.885-0.759076 132.921-0.759077 135.433Z" fill="#000000" fill-rule="nonzero" fill-opacity="1" transform="matrix(1 0 0 1.02703 535.834 1534.24)"/><path d="M438.109 38.9776 438.109 46.5383 445.705 46.5383 445.705 38.9776Z" fill="#0098D4" fill-rule="nonzero" fill-opacity="1" transform="matrix(1 0 0 1.02703 87.3679 1571.89)"/><path d="M467.8 46.6074C460.55 46.6074 458.133 54.6515 462.967 60.1408 455.717 57.9658 449.502 63.6622 452.61 68.9099 456.407 75.7802 464.002 72.4313 467.8 67.667 471.943 73.0528 479.538 75.0206 482.991 69.2206 486.788 63.1099 479.883 57.1027 472.979 60.0717 477.122 54.686 475.05 46.6074 467.8 46.6074Z" stroke="#000000" stroke-width="2.79644" stroke-linecap="butt" stroke-linejoin="round" stroke-miterlimit="4" stroke-opacity="1" fill="#0098D4" fill-rule="nonzero" fill-opacity="1" transform="matrix(1 0 0 1.02703 87.3679 1571.89)"/><path d="M455.717 106.299 455.717 91.1433 480.574 91.1433 480.574 106.299Z" stroke="#000000" stroke-width="2.79437" stroke-linecap="butt" stroke-linejoin="miter" stroke-miterlimit="4" stroke-opacity="1" fill="#ED1C24" fill-rule="nonzero" fill-opacity="1" transform="matrix(1 0 0 1.02703 87.3679 1571.89)"/><path d="M418.086 81.2004 418.086 40.1169" stroke="#000000" stroke-width="2.47433" stroke-linecap="butt" stroke-linejoin="miter" stroke-miterlimit="4" stroke-opacity="1" fill="none" fill-rule="nonzero" transform="matrix(1 0 0 1.02703 87.3679 1571.89)"/><path d="M414.288 11.6104 414.288 19.1815 421.883 19.1815 421.883 11.6104Z" fill="#ED1C24" fill-rule="nonzero" fill-opacity="1" transform="matrix(1 0 0 1.02703 87.3679 1571.89)"/><path d="M418.086 90.729 405.657 98.7386 418.086 106.748 430.169 98.7386Z" stroke="#000000" stroke-width="2.79437" stroke-linecap="butt" stroke-linejoin="miter" stroke-miterlimit="4" stroke-opacity="1" fill="#0098D4" fill-rule="nonzero" fill-opacity="1" transform="matrix(1 0 0 1.02703 87.3679 1571.89)"/><path d="M13.1241 132.245 13.1241 401.945C13.1241 401.945 13.5767 433.093 14.875 445.028 16.1849 456.817 17.3639 473.555 22.1233 486.654 27.2175 500.627 31.8605 509.942 36.5617 516.783 41.2629 523.624 47.3759 530.755 55.0754 536.577 64.2449 543.564 67.8981 545.747 74.4624 549.094 82.0454 553.17 86.3536 554.189 93.6019 556.372 100.85 558.555 109.336 560.302 116.133 561.029 122.93 561.903 131.415 562.339 138.212 562.776 145.009 563.213 161.704 563.649 166.798 563.649L257.766 563.649C262.86 563.649 279.452 563.213 286.293 562.776 293.134 562.339 301.576 561.903 308.416 561.029 315.257 560.302 323.699 558.555 330.976 556.372 338.108 554.189 342.474 553.024 350.043 549.094 356.738 545.747 360.231 543.564 369.401 536.577 377.115 530.755 383.228 523.624 388.031 516.783 392.689 509.942 397.346 500.627 402.44 486.654 407.098 473.555 408.408 456.817 409.572 445.028 411.028 432.947 411.464 401.945 411.464 401.945L411.464 132.245" stroke="#000000" stroke-width="5.05052" stroke-linecap="butt" stroke-linejoin="miter" stroke-miterlimit="4" stroke-opacity="1" fill="#FFDD00" fill-rule="nonzero" fill-opacity="1" transform="matrix(1 0 0 1.02703 392 1570.01)"/><path d="M23.4914 143.438 23.4914 399.311C23.4914 399.311 23.9426 428.712 25.1361 440.064 26.3733 451.272 27.625 468.01 31.9332 480.381 34.131 486.931 38.0463 497.41 44.887 508.326 49.0206 515.022 54.6824 522.008 61.9889 527.539 70.6781 534.234 75.0882 536.854 81.4341 539.765 90.6036 543.986 94.0095 545.005 100.908 546.897 108.39 548.789 115.172 549.953 121.634 550.535 128.65 551.263 135.898 551.554 141.676 551.845 148.168 552.136 164.324 552.573 169.127 552.573L255.582 552.573C260.385 552.573 276.396 552.136 282.945 551.845 288.622 551.554 295.899 551.263 302.885 550.535 309.435 549.953 316.13 548.789 323.699 546.897 330.54 545.005 334.033 544.131 343.202 539.765 349.461 536.854 353.973 534.234 362.56 527.539 369.838 522.008 375.514 515.022 379.735 508.326 386.576 497.41 390.36 486.931 392.689 480.381 397.055 468.01 398.219 451.272 399.384 440.064 400.694 428.712 401.13 399.311 401.13 399.311L401.13 143.438Z" fill="#FFFFFF" fill-rule="nonzero" fill-opacity="1" transform="matrix(1 0 0 1.02703 392 1570.01)"/><path d="M471.598 130.017 415.669 130.017 417.395 3.17621 422.297 2.42956 426.717 6.79788 428.788 11.3274 434.657 12.7326 437.419 16.9376 437.419 23.9528 431.55 23.1968 427.752 25.8931 427.062 30.4261 432.24 35.3871 437.764 32.7288 440.526 26.9737 444.324 26.9737 447.431 29.67 448.812 35.5597 454.681 36.699 457.788 43.6038 455.371 49.7491 451.229 51.6824 447.776 51.8896 444.669 57.6205 437.419 59.4503 437.419 53.5122 435.002 49.5074 430.169 49.3003 426.026 53.5122 426.371 63.2134 428.097 69.1516 434.657 76.1599 445.359 78.3349 455.717 78.3349 461.931 77.4718C464.348 75.1587 467.8 69.3242 467.8 69.3242" fill="#FFDD00" fill-rule="nonzero" fill-opacity="1" transform="matrix(1 0 0 1.02703 186.798 1571.89)"/><path d="M417.844 3.10371C425.405 3.10371 426.717 10.9786 427.407 11.9833 428.097 12.9845 430.514 12.9672 431.55 13.2192 433.276 13.7544 434.312 14.9316 435.348 16.1745 436.038 17.2413 436.383 18.819 436.038 22.3819 435.693 22.2473 433.967 21.4877 432.931 21.6086 431.55 21.7674 430.514 21.8744 429.133 22.7755 427.062 24.0632 426.717 24.7572 426.026 26.2589 425.336 27.8885 424.99 30.426 426.371 31.983 427.407 33.8404 427.407 33.5642 429.133 34.7657 430.514 35.8014 432.586 36.3883 434.657 35.974 436.383 35.6288 437.419 34.8347 438.8 33.5297 440.181 31.5549 441.217 28.8517 441.217 28.3856 443.288 27.8436 445.014 29.2625 445.705 30.3086 447.431 32.853 447.431 34.4688 447.431 36.9752 451.574 35.9049 456.062 38.3562 456.062 43.2586 456.062 48.1264 451.919 50.8538 447.086 49.2312 447.086 53.4086 445.014 55.4801 443.288 56.8265 441.907 57.8622 440.181 57.7241 438.455 57.7241 438.8 56.136 438.8 55.9289 438.8 54.2372 438.455 52.2693 437.764 50.1979 436.728 49.2312 435.693 48.2645 433.621 47.0907 431.55 47.6776 429.824 48.161 427.062 49.1622 426.026 50.9574 424.3 53.0634 424.3 54.5134 424.3 57.1372 424.3 60.417 424.99 63.9039 426.026 67.1837 427.062 70.4635 428.788 72.742 430.169 74.4682 431.55 76.298 434.312 77.5754 437.074 78.404 439.49 79.129 442.252 79.5433 446.395 79.7504 450.538 79.9576 453.3 79.854 456.062 79.7504 457.443 79.6814 458.133 79.6538 460.205 79.0945 461.586 78.7216 463.45 77.748 465.038 76.2635 466.246 75.138 467.282 72.8318 467.455 72.017 467.627 71.2057 467.869 69.0894 467.869 69.0894 467.869 69.0894 465.729 71.7754 464.693 72.7766 463.657 73.7087 462.621 74.9171 461.586 75.504 459.169 76.8504 457.098 76.7814 455.026 76.8504 451.919 76.9194 447.431 76.8504 443.288 76.4706 438.8 76.0909 435.693 75.2623 433.276 73.1909 430.859 71.0158 429.478 68.9099 428.788 66.217 427.062 60.486 427.062 58.4836 427.407 55.411 427.752 51.786 431.205 50.3015 432.586 50.3705 433.967 50.4395 434.657 51.13 435.348 52.2003 436.728 54.8241 435.693 57.2062 435.693 59.8301 440.526 61.0384 442.598 60.1753 444.669 58.8634 446.74 57.6205 448.812 54.7205 448.812 52.8908 450.883 53.4777 453.3 52.6836 455.717 51.1646 457.098 50.0598 458.824 46.8145 458.824 43.7764 458.824 41.3943 458.133 39.0812 457.443 37.6657 455.371 34.7657 452.264 34.1684 449.848 34.1684 449.848 28.1785 443.288 24.1771 439.145 25.382 439.49 28.4063 438.455 29.9806 437.764 30.9473 437.074 32.1833 436.038 32.9877 434.657 33.3985 432.586 33.9302 431.205 33.0809 430.169 32.2454 428.443 31.0578 427.752 28.1163 429.478 26.2589 430.514 24.9781 432.586 24.3152 433.621 24.5224 435.002 24.7951 436.383 25.6272 437.074 25.3303 438.109 25.0368 438.455 22.8445 438.455 22.0919 439.49 13.5127 435.002 10.9476 429.478 9.84969 427.752 3.18656 422.194 0.08631 417.844 0.08631" fill="#000000" fill-rule="nonzero" fill-opacity="1" transform="matrix(1 0 0 1.02703 186.798 1571.89)"/><path d="M-0.759077 135.433C-0.759077 137.945-2.7953 139.981-5.30711 139.981-7.81891 139.981-9.85513 137.945-9.85513 135.433-9.85513 132.921-7.81891 130.885-5.30711 130.885-2.7953 130.885-0.759076 132.921-0.759077 135.433Z" fill="#000000" fill-rule="nonzero" fill-opacity="1" transform="matrix(1 0 0 1.02703 635.264 1534.24)"/><path d="M438.109 38.9776 438.109 46.5383 445.705 46.5383 445.705 38.9776Z" fill="#0098D4" fill-rule="nonzero" fill-opacity="1" transform="matrix(1 0 0 1.02703 186.798 1571.89)"/><path d="M471.598 130.017 415.669 130.017 417.395 3.17621 422.297 2.42956 426.717 6.79788 428.788 11.3274 434.657 12.7326 437.419 16.9376 437.419 23.9528 431.55 23.1968 427.752 25.8931 427.062 30.4261 432.24 35.3871 437.764 32.7288 440.526 26.9737 444.324 26.9737 447.431 29.67 448.812 35.5597 454.681 36.699 457.788 43.6038 455.371 49.7491 451.229 51.6824 447.776 51.8896 444.669 57.6205 437.419 59.4503 437.419 53.5122 435.002 49.5074 430.169 49.3003 426.026 53.5122 426.371 63.2134 428.097 69.1516 434.657 76.1599 445.359 78.3349 455.717 78.3349 461.931 77.4718C464.348 75.1587 467.8 69.3242 467.8 69.3242" fill="#FFDD00" fill-rule="nonzero" fill-opacity="1" transform="matrix(-1 0 0 1.02703 1122.4 1571.89)"/><path d="M417.844 3.10371C425.405 3.10371 426.717 10.9786 427.407 11.9833 428.097 12.9845 430.514 12.9672 431.55 13.2192 433.276 13.7544 434.312 14.9316 435.348 16.1745 436.038 17.2413 436.383 18.819 436.038 22.3819 435.693 22.2473 433.967 21.4877 432.931 21.6086 431.55 21.7674 430.514 21.8744 429.133 22.7755 427.062 24.0632 426.717 24.7572 426.026 26.2589 425.336 27.8885 424.99 30.426 426.371 31.983 427.407 33.8404 427.407 33.5642 429.133 34.7657 430.514 35.8014 432.586 36.3883 434.657 35.974 436.383 35.6288 437.419 34.8347 438.8 33.5297 440.181 31.5549 441.217 28.8517 441.217 28.3856 443.288 27.8436 445.014 29.2625 445.705 30.3086 447.431 32.853 447.431 34.4688 447.431 36.9752 451.574 35.9049 456.062 38.3562 456.062 43.2586 456.062 48.1264 451.919 50.8538 447.086 49.2312 447.086 53.4086 445.014 55.4801 443.288 56.8265 441.907 57.8622 440.181 57.7241 438.455 57.7241 438.8 56.136 438.8 55.9289 438.8 54.2372 438.455 52.2693 437.764 50.1979 436.728 49.2312 435.693 48.2645 433.621 47.0907 431.55 47.6776 429.824 48.161 427.062 49.1622 426.026 50.9574 424.3 53.0634 424.3 54.5134 424.3 57.1372 424.3 60.417 424.99 63.9039 426.026 67.1837 427.062 70.4635 428.788 72.742 430.169 74.4682 431.55 76.298 434.312 77.5754 437.074 78.404 439.49 79.129 442.252 79.5433 446.395 79.7504 450.538 79.9576 453.3 79.854 456.062 79.7504 457.443 79.6814 458.133 79.6538 460.205 79.0945 461.586 78.7216 463.45 77.748 465.038 76.2635 466.246 75.138 467.282 72.8318 467.455 72.017 467.627 71.2057 467.869 69.0894 467.869 69.0894 467.869 69.0894 465.729 71.7754 464.693 72.7766 463.657 73.7087 462.621 74.9171 461.586 75.504 459.169 76.8504 457.098 76.7814 455.026 76.8504 451.919 76.9194 447.431 76.8504 443.288 76.4706 438.8 76.0909 435.693 75.2623 433.276 73.1909 430.859 71.0158 429.478 68.9099 428.788 66.217 427.062 60.486 427.062 58.4836 427.407 55.411 427.752 51.786 431.205 50.3015 432.586 50.3705 433.967 50.4395 434.657 51.13 435.348 52.2003 436.728 54.8241 435.693 57.2062 435.693 59.8301 440.526 61.0384 442.598 60.1753 444.669 58.8634 446.74 57.6205 448.812 54.7205 448.812 52.8908 450.883 53.4777 453.3 52.6836 455.717 51.1646 457.098 50.0598 458.824 46.8145 458.824 43.7764 458.824 41.3943 458.133 39.0812 457.443 37.6657 455.371 34.7657 452.264 34.1684 449.848 34.1684 449.848 28.1785 443.288 24.1771 439.145 25.382 439.49 28.4063 438.455 29.9806 437.764 30.9473 437.074 32.1833 436.038 32.9877 434.657 33.3985 432.586 33.9302 431.205 33.0809 430.169 32.2454 428.443 31.0578 427.752 28.1163 429.478 26.2589 430.514 24.9781 432.586 24.3152 433.621 24.5224 435.002 24.7951 436.383 25.6272 437.074 25.3303 438.109 25.0368 438.455 22.8445 438.455 22.0919 439.49 13.5127 435.002 10.9476 429.478 9.84969 427.752 3.18656 422.194 0.08631 417.844 0.08631" fill="#000000" fill-rule="nonzero" fill-opacity="1" transform="matrix(-1 0 0 1.02703 1122.4 1571.89)"/><path d="M-0.759077 135.433C-0.759077 137.945-2.7953 139.981-5.30711 139.981-7.81891 139.981-9.85513 137.945-9.85513 135.433-9.85513 132.921-7.81891 130.885-5.30711 130.885-2.7953 130.885-0.759076 132.921-0.759077 135.433Z" fill="#000000" fill-rule="nonzero" fill-opacity="1" transform="matrix(-1 0 0 1.02703 673.931 1534.24)"/><path d="M438.109 38.9776 438.109 46.5383 445.705 46.5383 445.705 38.9776Z" fill="#0098D4" fill-rule="nonzero" fill-opacity="1" transform="matrix(-1 0 0 1.02703 1122.4 1571.89)"/><path d="M471.598 130.017 415.669 130.017 417.395 3.17621 422.297 2.42956 426.717 6.79788 428.788 11.3274 434.657 12.7326 437.419 16.9376 437.419 23.9528 431.55 23.1968 427.752 25.8931 427.062 30.4261 432.24 35.3871 437.764 32.7288 440.526 26.9737 444.324 26.9737 447.431 29.67 448.812 35.5597 454.681 36.699 457.788 43.6038 455.371 49.7491 451.229 51.6824 447.776 51.8896 444.669 57.6205 437.419 59.4503 437.419 53.5122 435.002 49.5074 430.169 49.3003 426.026 53.5122 426.371 63.2134 428.097 69.1516 434.657 76.1599 445.359 78.3349 455.717 78.3349 461.931 77.4718C464.348 75.1587 467.8 69.3242 467.8 69.3242" fill="#FFDD00" fill-rule="nonzero" fill-opacity="1" transform="matrix(1 0 0 1.02703 186.798 1571.89)"/><path d="M417.844 3.10371C425.405 3.10371 426.717 10.9786 427.407 11.9833 428.097 12.9845 430.514 12.9672 431.55 13.2192 433.276 13.7544 434.312 14.9316 435.348 16.1745 436.038 17.2413 436.383 18.819 436.038 22.3819 435.693 22.2473 433.967 21.4877 432.931 21.6086 431.55 21.7674 430.514 21.8744 429.133 22.7755 427.062 24.0632 426.717 24.7572 426.026 26.2589 425.336 27.8885 424.99 30.426 426.371 31.983 427.407 33.8404 427.407 33.5642 429.133 34.7657 430.514 35.8014 432.586 36.3883 434.657 35.974 436.383 35.6288 437.419 34.8347 438.8 33.5297 440.181 31.5549 441.217 28.8517 441.217 28.3856 443.288 27.8436 445.014 29.2625 445.705 30.3086 447.431 32.853 447.431 34.4688 447.431 36.9752 451.574 35.9049 456.062 38.3562 456.062 43.2586 456.062 48.1264 451.919 50.8538 447.086 49.2312 447.086 53.4086 445.014 55.4801 443.288 56.8265 441.907 57.8622 440.181 57.7241 438.455 57.7241 438.8 56.136 438.8 55.9289 438.8 54.2372 438.455 52.2693 437.764 50.1979 436.728 49.2312 435.693 48.2645 433.621 47.0907 431.55 47.6776 429.824 48.161 427.062 49.1622 426.026 50.9574 424.3 53.0634 424.3 54.5134 424.3 57.1372 424.3 60.417 424.99 63.9039 426.026 67.1837 427.062 70.4635 428.788 72.742 430.169 74.4682 431.55 76.298 434.312 77.5754 437.074 78.404 439.49 79.129 442.252 79.5433 446.395 79.7504 450.538 79.9576 453.3 79.854 456.062 79.7504 457.443 79.6814 458.133 79.6538 460.205 79.0945 461.586 78.7216 463.45 77.748 465.038 76.2635 466.246 75.138 467.282 72.8318 467.455 72.017 467.627 71.2057 467.869 69.0894 467.869 69.0894 467.869 69.0894 465.729 71.7754 464.693 72.7766 463.657 73.7087 462.621 74.9171 461.586 75.504 459.169 76.8504 457.098 76.7814 455.026 76.8504 451.919 76.9194 447.431 76.8504 443.288 76.4706 438.8 76.0909 435.693 75.2623 433.276 73.1909 430.859 71.0158 429.478 68.9099 428.788 66.217 427.062 60.486 427.062 58.4836 427.407 55.411 427.752 51.786 431.205 50.3015 432.586 50.3705 433.967 50.4395 434.657 51.13 435.348 52.2003 436.728 54.8241 435.693 57.2062 435.693 59.8301 440.526 61.0384 442.598 60.1753 444.669 58.8634 446.74 57.6205 448.812 54.7205 448.812 52.8908 450.883 53.4777 453.3 52.6836 455.717 51.1646 457.098 50.0598 458.824 46.8145 458.824 43.7764 458.824 41.3943 458.133 39.0812 457.443 37.6657 455.371 34.7657 452.264 34.1684 449.848 34.1684 449.848 28.1785 443.288 24.1771 439.145 25.382 439.49 28.4063 438.455 29.9806 437.764 30.9473 437.074 32.1833 436.038 32.9877 434.657 33.3985 432.586 33.9302 431.205 33.0809 430.169 32.2454 428.443 31.0578 427.752 28.1163 429.478 26.2589 430.514 24.9781 432.586 24.3152 433.621 24.5224 435.002 24.7951 436.383 25.6272 437.074 25.3303 438.109 25.0368 438.455 22.8445 438.455 22.0919 439.49 13.5127 435.002 10.9476 429.478 9.84969 427.752 3.18656 422.194 0.08631 417.844 0.08631" fill="#000000" fill-rule="nonzero" fill-opacity="1" transform="matrix(1 0 0 1.02703 186.798 1571.89)"/><path d="M-0.759077 135.433C-0.759077 137.945-2.7953 139.981-5.30711 139.981-7.81891 139.981-9.85513 137.945-9.85513 135.433-9.85513 132.921-7.81891 130.885-5.30711 130.885-2.7953 130.885-0.759076 132.921-0.759077 135.433Z" fill="#000000" fill-rule="nonzero" fill-opacity="1" transform="matrix(1 0 0 1.02703 635.264 1534.24)"/><path d="M438.109 38.9776 438.109 46.5383 445.705 46.5383 445.705 38.9776Z" fill="#0098D4" fill-rule="nonzero" fill-opacity="1" transform="matrix(1 0 0 1.02703 186.798 1571.89)"/><path d="M467.8 46.6074C460.55 46.6074 458.133 54.6515 462.967 60.1408 455.717 57.9658 449.502 63.6622 452.61 68.9099 456.407 75.7802 464.002 72.4313 467.8 67.667 471.943 73.0528 479.538 75.0206 482.991 69.2206 486.788 63.1099 479.883 57.1027 472.979 60.0717 477.122 54.686 475.05 46.6074 467.8 46.6074Z" stroke="#000000" stroke-width="2.79644" stroke-linecap="butt" stroke-linejoin="round" stroke-miterlimit="4" stroke-opacity="1" fill="#0098D4" fill-rule="nonzero" fill-opacity="1" transform="matrix(1 0 0 1.02703 186.798 1571.89)"/><path d="M455.717 106.299 455.717 91.1433 480.574 91.1433 480.574 106.299Z" stroke="#000000" stroke-width="2.79437" stroke-linecap="butt" stroke-linejoin="miter" stroke-miterlimit="4" stroke-opacity="1" fill="#ED1C24" fill-rule="nonzero" fill-opacity="1" transform="matrix(1 0 0 1.02703 186.798 1571.89)"/><path d="M418.086 81.2004 418.086 40.1169" stroke="#000000" stroke-width="2.47433" stroke-linecap="butt" stroke-linejoin="miter" stroke-miterlimit="4" stroke-opacity="1" fill="none" fill-rule="nonzero" transform="matrix(1 0 0 1.02703 186.798 1571.89)"/><path d="M414.288 11.6104 414.288 19.1815 421.883 19.1815 421.883 11.6104Z" fill="#ED1C24" fill-rule="nonzero" fill-opacity="1" transform="matrix(1 0 0 1.02703 186.798 1571.89)"/><path d="M418.086 90.729 405.657 98.7386 418.086 106.748 430.169 98.7386Z" stroke="#000000" stroke-width="2.79437" stroke-linecap="butt" stroke-linejoin="miter" stroke-miterlimit="4" stroke-opacity="1" fill="#0098D4" fill-rule="nonzero" fill-opacity="1" transform="matrix(1 0 0 1.02703 186.798 1571.89)"/><path d="M471.598 130.017 415.669 130.017 417.395 3.17621 422.297 2.42956 426.717 6.79788 428.788 11.3274 434.657 12.7326 437.419 16.9376 437.419 23.9528 431.55 23.1968 427.752 25.8931 427.062 30.4261 432.24 35.3871 437.764 32.7288 440.526 26.9737 444.324 26.9737 447.431 29.67 448.812 35.5597 454.681 36.699 457.788 43.6038 455.371 49.7491 451.229 51.6824 447.776 51.8896 444.669 57.6205 437.419 59.4503 437.419 53.5122 435.002 49.5074 430.169 49.3003 426.026 53.5122 426.371 63.2134 428.097 69.1516 434.657 76.1599 445.359 78.3349 455.717 78.3349 461.931 77.4718C464.348 75.1587 467.8 69.3242 467.8 69.3242" fill="#FFDD00" fill-rule="nonzero" fill-opacity="1" transform="matrix(1 0 0 1.02703 -12.6236 1571.89)"/><path d="M417.844 3.10371C425.405 3.10371 426.717 10.9786 427.407 11.9833 428.097 12.9845 430.514 12.9672 431.55 13.2192 433.276 13.7544 434.312 14.9316 435.348 16.1745 436.038 17.2413 436.383 18.819 436.038 22.3819 435.693 22.2473 433.967 21.4877 432.931 21.6086 431.55 21.7674 430.514 21.8744 429.133 22.7755 427.062 24.0632 426.717 24.7572 426.026 26.2589 425.336 27.8885 424.99 30.426 426.371 31.983 427.407 33.8404 427.407 33.5642 429.133 34.7657 430.514 35.8014 432.586 36.3883 434.657 35.974 436.383 35.6288 437.419 34.8347 438.8 33.5297 440.181 31.5549 441.217 28.8517 441.217 28.3856 443.288 27.8436 445.014 29.2625 445.705 30.3086 447.431 32.853 447.431 34.4688 447.431 36.9752 451.574 35.9049 456.062 38.3562 456.062 43.2586 456.062 48.1264 451.919 50.8538 447.086 49.2312 447.086 53.4086 445.014 55.4801 443.288 56.8265 441.907 57.8622 440.181 57.7241 438.455 57.7241 438.8 56.136 438.8 55.9289 438.8 54.2372 438.455 52.2693 437.764 50.1979 436.728 49.2312 435.693 48.2645 433.621 47.0907 431.55 47.6776 429.824 48.161 427.062 49.1622 426.026 50.9574 424.3 53.0634 424.3 54.5134 424.3 57.1372 424.3 60.417 424.99 63.9039 426.026 67.1837 427.062 70.4635 428.788 72.742 430.169 74.4682 431.55 76.298 434.312 77.5754 437.074 78.404 439.49 79.129 442.252 79.5433 446.395 79.7504 450.538 79.9576 453.3 79.854 456.062 79.7504 457.443 79.6814 458.133 79.6538 460.205 79.0945 461.586 78.7216 463.45 77.748 465.038 76.2635 466.246 75.138 467.282 72.8318 467.455 72.017 467.627 71.2057 467.869 69.0894 467.869 69.0894 467.869 69.0894 465.729 71.7754 464.693 72.7766 463.657 73.7087 462.621 74.9171 461.586 75.504 459.169 76.8504 457.098 76.7814 455.026 76.8504 451.919 76.9194 447.431 76.8504 443.288 76.4706 438.8 76.0909 435.693 75.2623 433.276 73.1909 430.859 71.0158 429.478 68.9099 428.788 66.217 427.062 60.486 427.062 58.4836 427.407 55.411 427.752 51.786 431.205 50.3015 432.586 50.3705 433.967 50.4395 434.657 51.13 435.348 52.2003 436.728 54.8241 435.693 57.2062 435.693 59.8301 440.526 61.0384 442.598 60.1753 444.669 58.8634 446.74 57.6205 448.812 54.7205 448.812 52.8908 450.883 53.4777 453.3 52.6836 455.717 51.1646 457.098 50.0598 458.824 46.8145 458.824 43.7764 458.824 41.3943 458.133 39.0812 457.443 37.6657 455.371 34.7657 452.264 34.1684 449.848 34.1684 449.848 28.1785 443.288 24.1771 439.145 25.382 439.49 28.4063 438.455 29.9806 437.764 30.9473 437.074 32.1833 436.038 32.9877 434.657 33.3985 432.586 33.9302 431.205 33.0809 430.169 32.2454 428.443 31.0578 427.752 28.1163 429.478 26.2589 430.514 24.9781 432.586 24.3152 433.621 24.5224 435.002 24.7951 436.383 25.6272 437.074 25.3303 438.109 25.0368 438.455 22.8445 438.455 22.0919 439.49 13.5127 435.002 10.9476 429.478 9.84969 427.752 3.18656 422.194 0.08631 417.844 0.08631" fill="#000000" fill-rule="nonzero" fill-opacity="1" transform="matrix(1 0 0 1.02703 -12.6236 1571.89)"/><path d="M-0.759077 135.433C-0.759077 137.945-2.7953 139.981-5.30711 139.981-7.81891 139.981-9.85513 137.945-9.85513 135.433-9.85513 132.921-7.81891 130.885-5.30711 130.885-2.7953 130.885-0.759076 132.921-0.759077 135.433Z" fill="#000000" fill-rule="nonzero" fill-opacity="1" transform="matrix(1 0 0 1.02703 435.843 1534.24)"/><path d="M438.109 38.9776 438.109 46.5383 445.705 46.5383 445.705 38.9776Z" fill="#0098D4" fill-rule="nonzero" fill-opacity="1" transform="matrix(1 0 0 1.02703 -12.6236 1571.89)"/><path d="M467.8 46.6074C460.55 46.6074 458.133 54.6515 462.967 60.1408 455.717 57.9658 449.502 63.6622 452.61 68.9099 456.407 75.7802 464.002 72.4313 467.8 67.667 471.943 73.0528 479.538 75.0206 482.991 69.2206 486.788 63.1099 479.883 57.1027 472.979 60.0717 477.122 54.686 475.05 46.6074 467.8 46.6074Z" stroke="#000000" stroke-width="2.79644" stroke-linecap="butt" stroke-linejoin="round" stroke-miterlimit="4" stroke-opacity="1" fill="#0098D4" fill-rule="nonzero" fill-opacity="1" transform="matrix(1 0 0 1.02703 -12.6236 1571.89)"/><path d="M455.717 106.299 455.717 91.1433 480.574 91.1433 480.574 106.299Z" stroke="#000000" stroke-width="2.79437" stroke-linecap="butt" stroke-linejoin="miter" stroke-miterlimit="4" stroke-opacity="1" fill="#ED1C24" fill-rule="nonzero" fill-opacity="1" transform="matrix(1 0 0 1.02703 -12.6236 1571.89)"/><path d="M420.153 15.0497C420.153 20.7248 416.133 25.3254 411.173 25.3254 406.213 25.3254 402.193 20.7248 402.193 15.0497 402.193 9.37456 406.213 4.77398 411.173 4.77398 416.133 4.77398 420.153 9.37456 420.153 15.0497Z" fill="#FFDD00" fill-rule="nonzero" fill-opacity="1" transform="matrix(-1 0 0 1.02703 816.563 1570.01)"/><path d="M410.882 2.16867 410.882 4.71576C413.866 4.58476 415.772 5.93836 417.01 7.08819 419.891 9.73716 420.852 13.0265 420.066 16.9563 418.858 22.72 414.419 25.0779 409.689 25.0779L409.689 52.0334 412.92 51.262 412.92 27.9743C416.064 27.0719 418.276 25.4272 419.702 23.9718 424.185 19.387 424.243 13.0993 421.798 8.19435 419.178 3.98802 415.394 1.81935 410.882 2.16867Z" stroke="#000000" stroke-width="0.436644" stroke-linecap="butt" stroke-linejoin="miter" stroke-miterlimit="4" stroke-opacity="1" fill="#000000" fill-rule="nonzero" fill-opacity="1" transform="matrix(-1 0 0 1.02703 816.563 1570.01)"/><path d="M397.084 100.559C397.084 104.675 393.748 108.011 389.632 108.011 385.516 108.011 382.18 104.675 382.18 100.559 382.18 96.4435 385.516 93.1071 389.632 93.1071 393.748 93.1071 397.084 96.4435 397.084 100.559Z" stroke="#FFDD00" stroke-width="5.82192" stroke-linecap="butt" stroke-linejoin="miter" stroke-miterlimit="4" stroke-opacity="1" fill="#000000" fill-rule="nonzero" fill-opacity="1" transform="matrix(-1 0 0 1.02703 816.563 1570.01)"/><path d="M406.079 13.3613 406.079 20.9298 413.647 20.9298 413.647 13.3613 406.079 13.3613Z" fill="#ED1C24" fill-rule="nonzero" fill-opacity="1" transform="matrix(-1 0 0 1.02703 816.563 1570.01)"/><path d="M206.533 552.791 36.387 143.365 142.622 143.729 311.167 550.099 336.347 543.258 361.818 528.703 381.321 506.289 390.782 485.039 24.4375 364.379 23.4623 365.98 98.2012 546.315 72.7303 535.398 55.1773 521.28 43.2278 505.707 31.7295 480.818 28.2218 468.883 280.893 552.136ZM390.796 485.112 247.868 144.384 290.077 143.103 401.421 179.752 400.985 143.394 353.391 143.903 400.839 258.202 400.839 282.945 23.5788 158.356 23.1421 260.968 400.985 385.848 398.219 450.908 394.726 472.886Z" stroke="#000000" stroke-width="2.91096" stroke-linecap="butt" stroke-linejoin="miter" stroke-miterlimit="4" stroke-opacity="1" fill="#0090CF" fill-rule="nonzero" fill-opacity="1" transform="matrix(1 0 0 1.02703 392 1570.01)"/><path d="M471.598 130.017 415.669 130.017 417.395 3.17621 422.297 2.42956 426.717 6.79788 428.788 11.3274 434.657 12.7326 437.419 16.9376 437.419 23.9528 431.55 23.1968 427.752 25.8931 427.062 30.4261 432.24 35.3871 437.764 32.7288 440.526 26.9737 444.324 26.9737 447.431 29.67 448.812 35.5597 454.681 36.699 457.788 43.6038 455.371 49.7491 451.229 51.6824 447.776 51.8896 444.669 57.6205 437.419 59.4503 437.419 53.5122 435.002 49.5074 430.169 49.3003 426.026 53.5122 426.371 63.2134 428.097 69.1516 434.657 76.1599 445.359 78.3349 455.717 78.3349 461.931 77.4718C464.348 75.1587 467.8 69.3242 467.8 69.3242" fill="#FFDD00" fill-rule="nonzero" fill-opacity="1" transform="matrix(1 0 0 1.02703 286.23 1571.89)"/><path d="M417.844 3.10371C425.405 3.10371 426.717 10.9786 427.407 11.9833 428.097 12.9845 430.514 12.9672 431.55 13.2192 433.276 13.7544 434.312 14.9316 435.348 16.1745 436.038 17.2413 436.383 18.819 436.038 22.3819 435.693 22.2473 433.967 21.4877 432.931 21.6086 431.55 21.7674 430.514 21.8744 429.133 22.7755 427.062 24.0632 426.717 24.7572 426.026 26.2589 425.336 27.8885 424.99 30.426 426.371 31.983 427.407 33.8404 427.407 33.5642 429.133 34.7657 430.514 35.8014 432.586 36.3883 434.657 35.974 436.383 35.6288 437.419 34.8347 438.8 33.5297 440.181 31.5549 441.217 28.8517 441.217 28.3856 443.288 27.8436 445.014 29.2625 445.705 30.3086 447.431 32.853 447.431 34.4688 447.431 36.9752 451.574 35.9049 456.062 38.3562 456.062 43.2586 456.062 48.1264 451.919 50.8538 447.086 49.2312 447.086 53.4086 445.014 55.4801 443.288 56.8265 441.907 57.8622 440.181 57.7241 438.455 57.7241 438.8 56.136 438.8 55.9289 438.8 54.2372 438.455 52.2693 437.764 50.1979 436.728 49.2312 435.693 48.2645 433.621 47.0907 431.55 47.6776 429.824 48.161 427.062 49.1622 426.026 50.9574 424.3 53.0634 424.3 54.5134 424.3 57.1372 424.3 60.417 424.99 63.9039 426.026 67.1837 427.062 70.4635 428.788 72.742 430.169 74.4682 431.55 76.298 434.312 77.5754 437.074 78.404 439.49 79.129 442.252 79.5433 446.395 79.7504 450.538 79.9576 453.3 79.854 456.062 79.7504 457.443 79.6814 458.133 79.6538 460.205 79.0945 461.586 78.7216 463.45 77.748 465.038 76.2635 466.246 75.138 467.282 72.8318 467.455 72.017 467.627 71.2057 467.869 69.0894 467.869 69.0894 467.869 69.0894 465.729 71.7754 464.693 72.7766 463.657 73.7087 462.621 74.9171 461.586 75.504 459.169 76.8504 457.098 76.7814 455.026 76.8504 451.919 76.9194 447.431 76.8504 443.288 76.4706 438.8 76.0909 435.693 75.2623 433.276 73.1909 430.859 71.0158 429.478 68.9099 428.788 66.217 427.062 60.486 427.062 58.4836 427.407 55.411 427.752 51.786 431.205 50.3015 432.586 50.3705 433.967 50.4395 434.657 51.13 435.348 52.2003 436.728 54.8241 435.693 57.2062 435.693 59.8301 440.526 61.0384 442.598 60.1753 444.669 58.8634 446.74 57.6205 448.812 54.7205 448.812 52.8908 450.883 53.4777 453.3 52.6836 455.717 51.1646 457.098 50.0598 458.824 46.8145 458.824 43.7764 458.824 41.3943 458.133 39.0812 457.443 37.6657 455.371 34.7657 452.264 34.1684 449.848 34.1684 449.848 28.1785 443.288 24.1771 439.145 25.382 439.49 28.4063 438.455 29.9806 437.764 30.9473 437.074 32.1833 436.038 32.9877 434.657 33.3985 432.586 33.9302 431.205 33.0809 430.169 32.2454 428.443 31.0578 427.752 28.1163 429.478 26.2589 430.514 24.9781 432.586 24.3152 433.621 24.5224 435.002 24.7951 436.383 25.6272 437.074 25.3303 438.109 25.0368 438.455 22.8445 438.455 22.0919 439.49 13.5127 435.002 10.9476 429.478 9.84969 427.752 3.18656 422.194 0.08631 417.844 0.08631" fill="#000000" fill-rule="nonzero" fill-opacity="1" transform="matrix(1 0 0 1.02703 286.23 1571.89)"/><path d="M-0.759077 135.433C-0.759077 137.945-2.7953 139.981-5.30711 139.981-7.81891 139.981-9.85513 137.945-9.85513 135.433-9.85513 132.921-7.81891 130.885-5.30711 130.885-2.7953 130.885-0.759076 132.921-0.759077 135.433Z" fill="#000000" fill-rule="nonzero" fill-opacity="1" transform="matrix(1 0 0 1.02703 734.697 1534.24)"/><path d="M438.109 38.9776 438.109 46.5383 445.705 46.5383 445.705 38.9776Z" fill="#0098D4" fill-rule="nonzero" fill-opacity="1" transform="matrix(1 0 0 1.02703 286.23 1571.89)"/><path d="M471.598 130.017 415.669 130.017 417.395 3.17621 422.297 2.42956 426.717 6.79788 428.788 11.3274 434.657 12.7326 437.419 16.9376 437.419 23.9528 431.55 23.1968 427.752 25.8931 427.062 30.4261 432.24 35.3871 437.764 32.7288 440.526 26.9737 444.324 26.9737 447.431 29.67 448.812 35.5597 454.681 36.699 457.788 43.6038 455.371 49.7491 451.229 51.6824 447.776 51.8896 444.669 57.6205 437.419 59.4503 437.419 53.5122 435.002 49.5074 430.169 49.3003 426.026 53.5122 426.371 63.2134 428.097 69.1516 434.657 76.1599 445.359 78.3349 455.717 78.3349 461.931 77.4718C464.348 75.1587 467.8 69.3242 467.8 69.3242" fill="#FFDD00" fill-rule="nonzero" fill-opacity="1" transform="matrix(-1 0 0 1.02703 1221.83 1571.89)"/><path d="M417.844 3.10371C425.405 3.10371 426.717 10.9786 427.407 11.9833 428.097 12.9845 430.514 12.9672 431.55 13.2192 433.276 13.7544 434.312 14.9316 435.348 16.1745 436.038 17.2413 436.383 18.819 436.038 22.3819 435.693 22.2473 433.967 21.4877 432.931 21.6086 431.55 21.7674 430.514 21.8744 429.133 22.7755 427.062 24.0632 426.717 24.7572 426.026 26.2589 425.336 27.8885 424.99 30.426 426.371 31.983 427.407 33.8404 427.407 33.5642 429.133 34.7657 430.514 35.8014 432.586 36.3883 434.657 35.974 436.383 35.6288 437.419 34.8347 438.8 33.5297 440.181 31.5549 441.217 28.8517 441.217 28.3856 443.288 27.8436 445.014 29.2625 445.705 30.3086 447.431 32.853 447.431 34.4688 447.431 36.9752 451.574 35.9049 456.062 38.3562 456.062 43.2586 456.062 48.1264 451.919 50.8538 447.086 49.2312 447.086 53.4086 445.014 55.4801 443.288 56.8265 441.907 57.8622 440.181 57.7241 438.455 57.7241 438.8 56.136 438.8 55.9289 438.8 54.2372 438.455 52.2693 437.764 50.1979 436.728 49.2312 435.693 48.2645 433.621 47.0907 431.55 47.6776 429.824 48.161 427.062 49.1622 426.026 50.9574 424.3 53.0634 424.3 54.5134 424.3 57.1372 424.3 60.417 424.99 63.9039 426.026 67.1837 427.062 70.4635 428.788 72.742 430.169 74.4682 431.55 76.298 434.312 77.5754 437.074 78.404 439.49 79.129 442.252 79.5433 446.395 79.7504 450.538 79.9576 453.3 79.854 456.062 79.7504 457.443 79.6814 458.133 79.6538 460.205 79.0945 461.586 78.7216 463.45 77.748 465.038 76.2635 466.246 75.138 467.282 72.8318 467.455 72.017 467.627 71.2057 467.869 69.0894 467.869 69.0894 467.869 69.0894 465.729 71.7754 464.693 72.7766 463.657 73.7087 462.621 74.9171 461.586 75.504 459.169 76.8504 457.098 76.7814 455.026 76.8504 451.919 76.9194 447.431 76.8504 443.288 76.4706 438.8 76.0909 435.693 75.2623 433.276 73.1909 430.859 71.0158 429.478 68.9099 428.788 66.217 427.062 60.486 427.062 58.4836 427.407 55.411 427.752 51.786 431.205 50.3015 432.586 50.3705 433.967 50.4395 434.657 51.13 435.348 52.2003 436.728 54.8241 435.693 57.2062 435.693 59.8301 440.526 61.0384 442.598 60.1753 444.669 58.8634 446.74 57.6205 448.812 54.7205 448.812 52.8908 450.883 53.4777 453.3 52.6836 455.717 51.1646 457.098 50.0598 458.824 46.8145 458.824 43.7764 458.824 41.3943 458.133 39.0812 457.443 37.6657 455.371 34.7657 452.264 34.1684 449.848 34.1684 449.848 28.1785 443.288 24.1771 439.145 25.382 439.49 28.4063 438.455 29.9806 437.764 30.9473 437.074 32.1833 436.038 32.9877 434.657 33.3985 432.586 33.9302 431.205 33.0809 430.169 32.2454 428.443 31.0578 427.752 28.1163 429.478 26.2589 430.514 24.9781 432.586 24.3152 433.621 24.5224 435.002 24.7951 436.383 25.6272 437.074 25.3303 438.109 25.0368 438.455 22.8445 438.455 22.0919 439.49 13.5127 435.002 10.9476 429.478 9.84969 427.752 3.18656 422.194 0.08631 417.844 0.08631" fill="#000000" fill-rule="nonzero" fill-opacity="1" transform="matrix(-1 0 0 1.02703 1221.83 1571.89)"/><path d="M-0.759077 135.433C-0.759077 137.945-2.7953 139.981-5.30711 139.981-7.81891 139.981-9.85513 137.945-9.85513 135.433-9.85513 132.921-7.81891 130.885-5.30711 130.885-2.7953 130.885-0.759076 132.921-0.759077 135.433Z" fill="#000000" fill-rule="nonzero" fill-opacity="1" transform="matrix(-1 0 0 1.02703 773.364 1534.24)"/><path d="M438.109 38.9776 438.109 46.5383 445.705 46.5383 445.705 38.9776Z" fill="#0098D4" fill-rule="nonzero" fill-opacity="1" transform="matrix(-1 0 0 1.02703 1221.83 1571.89)"/><path d="M471.598 130.017 415.669 130.017 417.395 3.17621 422.297 2.42956 426.717 6.79788 428.788 11.3274 434.657 12.7326 437.419 16.9376 437.419 23.9528 431.55 23.1968 427.752 25.8931 427.062 30.4261 432.24 35.3871 437.764 32.7288 440.526 26.9737 444.324 26.9737 447.431 29.67 448.812 35.5597 454.681 36.699 457.788 43.6038 455.371 49.7491 451.229 51.6824 447.776 51.8896 444.669 57.6205 437.419 59.4503 437.419 53.5122 435.002 49.5074 430.169 49.3003 426.026 53.5122 426.371 63.2134 428.097 69.1516 434.657 76.1599 445.359 78.3349 455.717 78.3349 461.931 77.4718C464.348 75.1587 467.8 69.3242 467.8 69.3242" fill="#FFDD00" fill-rule="nonzero" fill-opacity="1" transform="matrix(1 0 0 1.02703 286.23 1571.89)"/><path d="M417.844 3.10371C425.405 3.10371 426.717 10.9786 427.407 11.9833 428.097 12.9845 430.514 12.9672 431.55 13.2192 433.276 13.7544 434.312 14.9316 435.348 16.1745 436.038 17.2413 436.383 18.819 436.038 22.3819 435.693 22.2473 433.967 21.4877 432.931 21.6086 431.55 21.7674 430.514 21.8744 429.133 22.7755 427.062 24.0632 426.717 24.7572 426.026 26.2589 425.336 27.8885 424.99 30.426 426.371 31.983 427.407 33.8404 427.407 33.5642 429.133 34.7657 430.514 35.8014 432.586 36.3883 434.657 35.974 436.383 35.6288 437.419 34.8347 438.8 33.5297 440.181 31.5549 441.217 28.8517 441.217 28.3856 443.288 27.8436 445.014 29.2625 445.705 30.3086 447.431 32.853 447.431 34.4688 447.431 36.9752 451.574 35.9049 456.062 38.3562 456.062 43.2586 456.062 48.1264 451.919 50.8538 447.086 49.2312 447.086 53.4086 445.014 55.4801 443.288 56.8265 441.907 57.8622 440.181 57.7241 438.455 57.7241 438.8 56.136 438.8 55.9289 438.8 54.2372 438.455 52.2693 437.764 50.1979 436.728 49.2312 435.693 48.2645 433.621 47.0907 431.55 47.6776 429.824 48.161 427.062 49.1622 426.026 50.9574 424.3 53.0634 424.3 54.5134 424.3 57.1372 424.3 60.417 424.99 63.9039 426.026 67.1837 427.062 70.4635 428.788 72.742 430.169 74.4682 431.55 76.298 434.312 77.5754 437.074 78.404 439.49 79.129 442.252 79.5433 446.395 79.7504 450.538 79.9576 453.3 79.854 456.062 79.7504 457.443 79.6814 458.133 79.6538 460.205 79.0945 461.586 78.7216 463.45 77.748 465.038 76.2635 466.246 75.138 467.282 72.8318 467.455 72.017 467.627 71.2057 467.869 69.0894 467.869 69.0894 467.869 69.0894 465.729 71.7754 464.693 72.7766 463.657 73.7087 462.621 74.9171 461.586 75.504 459.169 76.8504 457.098 76.7814 455.026 76.8504 451.919 76.9194 447.431 76.8504 443.288 76.4706 438.8 76.0909 435.693 75.2623 433.276 73.1909 430.859 71.0158 429.478 68.9099 428.788 66.217 427.062 60.486 427.062 58.4836 427.407 55.411 427.752 51.786 431.205 50.3015 432.586 50.3705 433.967 50.4395 434.657 51.13 435.348 52.2003 436.728 54.8241 435.693 57.2062 435.693 59.8301 440.526 61.0384 442.598 60.1753 444.669 58.8634 446.74 57.6205 448.812 54.7205 448.812 52.8908 450.883 53.4777 453.3 52.6836 455.717 51.1646 457.098 50.0598 458.824 46.8145 458.824 43.7764 458.824 41.3943 458.133 39.0812 457.443 37.6657 455.371 34.7657 452.264 34.1684 449.848 34.1684 449.848 28.1785 443.288 24.1771 439.145 25.382 439.49 28.4063 438.455 29.9806 437.764 30.9473 437.074 32.1833 436.038 32.9877 434.657 33.3985 432.586 33.9302 431.205 33.0809 430.169 32.2454 428.443 31.0578 427.752 28.1163 429.478 26.2589 430.514 24.9781 432.586 24.3152 433.621 24.5224 435.002 24.7951 436.383 25.6272 437.074 25.3303 438.109 25.0368 438.455 22.8445 438.455 22.0919 439.49 13.5127 435.002 10.9476 429.478 9.84969 427.752 3.18656 422.194 0.08631 417.844 0.08631" fill="#000000" fill-rule="nonzero" fill-opacity="1" transform="matrix(1 0 0 1.02703 286.23 1571.89)"/><path d="M-0.759077 135.433C-0.759077 137.945-2.7953 139.981-5.30711 139.981-7.81891 139.981-9.85513 137.945-9.85513 135.433-9.85513 132.921-7.81891 130.885-5.30711 130.885-2.7953 130.885-0.759076 132.921-0.759077 135.433Z" fill="#000000" fill-rule="nonzero" fill-opacity="1" transform="matrix(1 0 0 1.02703 734.697 1534.24)"/><path d="M438.109 38.9776 438.109 46.5383 445.705 46.5383 445.705 38.9776Z" fill="#0098D4" fill-rule="nonzero" fill-opacity="1" transform="matrix(1 0 0 1.02703 286.23 1571.89)"/><path d="M467.8 46.6074C460.55 46.6074 458.133 54.6515 462.967 60.1408 455.717 57.9658 449.502 63.6622 452.61 68.9099 456.407 75.7802 464.002 72.4313 467.8 67.667 471.943 73.0528 479.538 75.0206 482.991 69.2206 486.788 63.1099 479.883 57.1027 472.979 60.0717 477.122 54.686 475.05 46.6074 467.8 46.6074Z" stroke="#000000" stroke-width="2.79644" stroke-linecap="butt" stroke-linejoin="round" stroke-miterlimit="4" stroke-opacity="1" fill="#0098D4" fill-rule="nonzero" fill-opacity="1" transform="matrix(1 0 0 1.02703 286.23 1571.89)"/><path d="M455.717 106.299 455.717 91.1433 480.574 91.1433 480.574 106.299Z" stroke="#000000" stroke-width="2.79437" stroke-linecap="butt" stroke-linejoin="miter" stroke-miterlimit="4" stroke-opacity="1" fill="#ED1C24" fill-rule="nonzero" fill-opacity="1" transform="matrix(1 0 0 1.02703 286.23 1571.89)"/><path d="M418.086 81.2004 418.086 40.1169" stroke="#000000" stroke-width="2.47433" stroke-linecap="butt" stroke-linejoin="miter" stroke-miterlimit="4" stroke-opacity="1" fill="none" fill-rule="nonzero" transform="matrix(1 0 0 1.02703 286.23 1571.89)"/><path d="M414.288 11.6104 414.288 19.1815 421.883 19.1815 421.883 11.6104Z" fill="#ED1C24" fill-rule="nonzero" fill-opacity="1" transform="matrix(1 0 0 1.02703 286.23 1571.89)"/><path d="M418.086 90.729 405.657 98.7386 418.086 106.748 430.169 98.7386Z" stroke="#000000" stroke-width="2.79437" stroke-linecap="butt" stroke-linejoin="miter" stroke-miterlimit="4" stroke-opacity="1" fill="#0098D4" fill-rule="nonzero" fill-opacity="1" transform="matrix(1 0 0 1.02703 286.23 1571.89)"/><path d="M420.153 15.0497C420.153 20.7248 416.133 25.3254 411.173 25.3254 406.213 25.3254 402.193 20.7248 402.193 15.0497 402.193 9.37456 406.213 4.77398 411.173 4.77398 416.133 4.77398 420.153 9.37456 420.153 15.0497Z" fill="#FFDD00" fill-rule="nonzero" fill-opacity="1" transform="matrix(1 0 0 1.02703 392 1570.01)"/><path d="M410.882 2.16867 410.882 4.71576C413.866 4.58476 415.772 5.93836 417.01 7.08819 419.891 9.73716 420.852 13.0265 420.066 16.9563 418.858 22.72 414.419 25.0779 409.689 25.0779L409.689 52.0334 412.92 51.262 412.92 27.9743C416.064 27.0719 418.276 25.4272 419.702 23.9718 424.185 19.387 424.243 13.0993 421.798 8.19435 419.178 3.98802 415.394 1.81935 410.882 2.16867Z" stroke="#000000" stroke-width="0.436644" stroke-linecap="butt" stroke-linejoin="miter" stroke-miterlimit="4" stroke-opacity="1" fill="#000000" fill-rule="nonzero" fill-opacity="1" transform="matrix(1 0 0 1.02703 392 1570.01)"/><path d="M397.084 100.559C397.084 104.675 393.748 108.011 389.632 108.011 385.516 108.011 382.18 104.675 382.18 100.559 382.18 96.4435 385.516 93.1071 389.632 93.1071 393.748 93.1071 397.084 96.4435 397.084 100.559Z" stroke="#FFDD00" stroke-width="5.82192" stroke-linecap="butt" stroke-linejoin="miter" stroke-miterlimit="4" stroke-opacity="1" fill="#000000" fill-rule="nonzero" fill-opacity="1" transform="matrix(1 0 0 1.02703 392 1570.01)"/><path d="M406.079 13.3613 406.079 20.9298 413.647 20.9298 413.647 13.3613 406.079 13.3613Z" fill="#ED1C24" fill-rule="nonzero" fill-opacity="1" transform="matrix(1 0 0 1.02703 392 1570.01)"/><path d="M13.1241 25.0779 13.1241 134.938M411.489 134.938 411.489 25.0779" stroke="#000000" stroke-width="5.07089" stroke-linecap="butt" stroke-linejoin="miter" stroke-miterlimit="4" stroke-opacity="1" fill="#FFDD00" fill-rule="nonzero" fill-opacity="1" transform="matrix(1 0 0 1.02703 392 1570.01)"/><path d="M411.464 120.659 13.0993 120.659M411.464 132.056 13.0993 132.056" stroke="#000000" stroke-width="4.07534" stroke-linecap="butt" stroke-linejoin="miter" stroke-miterlimit="4" stroke-opacity="1" fill="#FFDD00" fill-rule="nonzero" fill-opacity="1" transform="matrix(1 0 0 1.02703 392 1570.01)"/><path d="M23.4914 143.438 23.4914 399.311C23.4914 399.311 23.9426 428.712 25.1361 440.064 26.3733 451.272 27.625 468.01 31.9332 480.381 34.131 486.931 38.0463 497.41 44.887 508.326 49.0206 515.022 54.6824 522.008 61.9889 527.539 70.6781 534.234 75.0882 536.854 81.4341 539.765 90.6036 543.986 94.0095 545.005 100.908 546.897 108.39 548.789 115.172 549.953 121.634 550.535 128.65 551.263 135.898 551.554 141.676 551.845 148.168 552.136 164.324 552.573 169.127 552.573L255.582 552.573C260.385 552.573 276.396 552.136 282.945 551.845 288.622 551.554 295.899 551.263 302.885 550.535 309.435 549.953 316.13 548.789 323.699 546.897 330.54 545.005 334.033 544.131 343.202 539.765 349.461 536.854 353.973 534.234 362.56 527.539 369.838 522.008 375.514 515.022 379.735 508.326 386.576 497.41 390.36 486.931 392.689 480.381 397.055 468.01 398.219 451.272 399.384 440.064 400.694 428.712 401.13 399.311 401.13 399.311L401.13 143.438Z" stroke="#000000" stroke-width="4.39409" stroke-linecap="butt" stroke-linejoin="miter" stroke-miterlimit="4" stroke-opacity="1" fill="none" fill-rule="nonzero" transform="matrix(1 0 0 1.02703 392 1570.01)"/></g></g></g></g></g></svg>