<svg width="1027" height="925" xmlns="http://www.w3.org/2000/svg" xmlns:xlink="http://www.w3.org/1999/xlink" xml:space="preserve" overflow="hidden"><g transform="translate(-132 -1430)"><g><path d="M169.5 1576.84C169.5 1497.12 234.122 1432.5 313.836 1432.5L891.164 1432.5C970.878 1432.5 1035.5 1497.12 1035.5 1576.84L1035.5 2173.16C1035.5 2252.88 970.878 2317.5 891.164 2317.5L313.836 2317.5C234.122 2317.5 169.5 2252.88 169.5 2173.16Z" stroke="#0098D5" stroke-width="4.58333" stroke-linecap="butt" stroke-linejoin="miter" stroke-miterlimit="8" stroke-opacity="1" fill="#0091CD" fill-rule="evenodd" fill-opacity="1"/><text fill="#FFFFFF" fill-opacity="1" font-family="Playfair Display Black,Playfair Display Black_MSFontService,sans-serif" font-style="italic" font-variant="normal" font-weight="900" font-stretch="normal" font-size="202" text-anchor="start" direction="ltr" writing-mode="lr-tb" unicode-bidi="normal" text-decoration="none" transform="matrix(1 0 0 1 255.409 2188)">ByDash</text><text fill="#FFFFFF" fill-opacity="1" font-family="Playfair Display Black,Playfair Display Black_MSFontService,sans-serif" font-style="italic" font-variant="normal" font-weight="900" font-stretch="normal" font-size="202" text-anchor="start" direction="ltr" writing-mode="lr-tb" unicode-bidi="normal" text-decoration="none" transform="matrix(1 0 0 1 984.159 2188)"> </text><g><g><g><path d="M426.102 117.474 375.569 117.474 377.128 2.86979 381.558 2.19517 385.551 6.14208 387.422 10.2347 392.725 11.5042 395.221 15.3036 395.221 21.6421 389.918 20.959 386.486 23.3952 385.863 27.4909 390.542 31.9733 395.533 29.5715 398.028 24.3715 401.459 24.3715 404.267 26.8077 405.514 32.1293 410.817 33.1587 413.625 39.3974 411.441 44.9498 407.698 46.6966 404.579 46.8838 401.771 52.0619 395.221 53.7152 395.221 48.3499 393.037 44.7315 388.67 44.5443 384.927 48.3499 385.239 57.1152 386.798 62.4805 392.725 68.8128 402.395 70.778 411.753 70.778 417.368 69.9981C419.552 67.9082 422.671 62.6365 422.671 62.6365" fill="#FFDD00" fill-rule="nonzero" fill-opacity="1" transform="matrix(-1 0 0 1.02631 902.869 1487.51)"/><path d="M377.534 2.80429C384.365 2.80429 385.551 9.91951 386.175 10.8272 386.798 11.7318 388.982 11.7162 389.918 11.944 391.477 12.4275 392.413 13.4912 393.349 14.6141 393.973 15.578 394.285 17.0035 393.973 20.2227 393.661 20.101 392.101 19.4148 391.165 19.524 389.918 19.6675 388.982 19.7642 387.734 20.5783 385.863 21.7418 385.551 22.3688 384.927 23.7257 384.303 25.198 383.991 27.4908 385.239 28.8976 386.175 30.5758 386.175 30.3262 387.734 31.4118 388.982 32.3476 390.854 32.8779 392.725 32.5035 394.285 32.1916 395.221 31.4742 396.468 30.295 397.716 28.5108 398.652 26.0683 398.652 25.6472 400.523 25.1575 402.083 26.4395 402.707 27.3847 404.267 29.6837 404.267 31.1435 404.267 33.4082 408.01 32.4412 412.065 34.6559 412.065 39.0854 412.065 43.4836 408.322 45.9479 403.955 44.4818 403.955 48.2562 402.083 50.1278 400.523 51.3444 399.276 52.2802 397.716 52.1554 396.156 52.1554 396.468 50.7205 396.468 50.5333 396.468 49.0049 396.156 47.2268 395.533 45.3552 394.597 44.4818 393.661 43.6084 391.789 42.5478 389.918 43.0781 388.358 43.5148 385.863 44.4194 384.927 46.0415 383.367 47.9443 383.367 49.2544 383.367 51.6251 383.367 54.5885 383.991 57.739 384.927 60.7024 385.863 63.6658 387.422 65.7245 388.67 67.2842 389.918 68.9375 392.413 70.0916 394.909 70.8403 397.092 71.4953 399.588 71.8696 403.331 72.0568 407.074 72.244 409.57 72.1504 412.065 72.0568 413.313 71.9944 413.937 71.9695 415.808 71.4641 417.056 71.1272 418.741 70.2476 420.175 68.9063 421.267 67.8894 422.203 65.8056 422.359 65.0695 422.515 64.3364 422.733 62.4243 422.733 62.4243 422.733 62.4243 420.799 64.8511 419.863 65.7557 418.928 66.598 417.992 67.6897 417.056 68.22 414.872 69.4366 413.001 69.3742 411.129 69.4366 408.322 69.4989 404.267 69.4366 400.523 69.0934 396.468 68.7503 393.661 68.0017 391.477 66.1301 389.294 64.1649 388.046 62.2621 387.422 59.829 385.863 54.6509 385.863 52.8417 386.175 50.0654 386.486 46.7901 389.606 45.4488 390.854 45.5112 392.101 45.5736 392.725 46.1975 393.349 47.1645 394.597 49.5352 393.661 51.6875 393.661 54.0582 398.028 55.15 399.9 54.3701 401.771 53.1848 403.643 52.0618 405.514 49.4416 405.514 47.7883 407.386 48.3186 409.57 47.6012 411.753 46.2286 413.001 45.2305 414.561 42.2983 414.561 39.5533 414.561 37.4009 413.937 35.311 413.313 34.032 411.441 31.4118 408.634 30.8721 406.45 30.8721 406.45 25.4601 400.523 21.8448 396.78 22.9334 397.092 25.6659 396.156 27.0884 395.533 27.9618 394.909 29.0785 393.973 29.8053 392.725 30.1765 390.854 30.6569 389.606 29.8895 388.67 29.1347 387.11 28.0616 386.486 25.4039 388.046 23.7257 388.982 22.5684 390.854 21.9695 391.789 22.1567 393.037 22.4031 394.285 23.1549 394.909 22.8866 395.845 22.6215 396.156 20.6407 396.156 19.9607 397.092 12.2091 393.037 9.89143 388.046 8.89948 386.486 2.87915 381.464 0.0779836 377.534 0.0779836" fill="#000000" fill-rule="nonzero" fill-opacity="1" transform="matrix(-1 0 0 1.02631 902.869 1487.51)"/><path d="M-0.685848 122.368C-0.685848 124.637-2.52563 126.477-4.79512 126.477-7.06461 126.477-8.9044 124.637-8.9044 122.368-8.9044 120.098-7.06461 118.258-4.79512 118.258-2.52563 118.258-0.685847 120.098-0.685848 122.368Z" fill="#000000" fill-rule="nonzero" fill-opacity="1" transform="matrix(-1 0 0 1.02631 497.666 1453.51)"/><path d="M395.845 35.2174 395.845 42.0487 402.707 42.0487 402.707 35.2174Z" fill="#0098D4" fill-rule="nonzero" fill-opacity="1" transform="matrix(-1 0 0 1.02631 902.869 1487.51)"/><path d="M426.102 117.474 375.569 117.474 377.128 2.86979 381.558 2.19517 385.551 6.14208 387.422 10.2347 392.725 11.5042 395.221 15.3036 395.221 21.6421 389.918 20.959 386.486 23.3952 385.863 27.4909 390.542 31.9733 395.533 29.5715 398.028 24.3715 401.459 24.3715 404.267 26.8077 405.514 32.1293 410.817 33.1587 413.625 39.3974 411.441 44.9498 407.698 46.6966 404.579 46.8838 401.771 52.0619 395.221 53.7152 395.221 48.3499 393.037 44.7315 388.67 44.5443 384.927 48.3499 385.239 57.1152 386.798 62.4805 392.725 68.8128 402.395 70.778 411.753 70.778 417.368 69.9981C419.552 67.9082 422.671 62.6365 422.671 62.6365" fill="#FFDD00" fill-rule="nonzero" fill-opacity="1" transform="matrix(1 0 0 1.02631 147.756 1487.51)"/><path d="M377.534 2.80429C384.365 2.80429 385.551 9.91951 386.175 10.8272 386.798 11.7318 388.982 11.7162 389.918 11.944 391.477 12.4275 392.413 13.4912 393.349 14.6141 393.973 15.578 394.285 17.0035 393.973 20.2227 393.661 20.101 392.101 19.4148 391.165 19.524 389.918 19.6675 388.982 19.7642 387.734 20.5783 385.863 21.7418 385.551 22.3688 384.927 23.7257 384.303 25.198 383.991 27.4908 385.239 28.8976 386.175 30.5758 386.175 30.3262 387.734 31.4118 388.982 32.3476 390.854 32.8779 392.725 32.5035 394.285 32.1916 395.221 31.4742 396.468 30.295 397.716 28.5108 398.652 26.0683 398.652 25.6472 400.523 25.1575 402.083 26.4395 402.707 27.3847 404.267 29.6837 404.267 31.1435 404.267 33.4082 408.01 32.4412 412.065 34.6559 412.065 39.0854 412.065 43.4836 408.322 45.9479 403.955 44.4818 403.955 48.2562 402.083 50.1278 400.523 51.3444 399.276 52.2802 397.716 52.1554 396.156 52.1554 396.468 50.7205 396.468 50.5333 396.468 49.0049 396.156 47.2268 395.533 45.3552 394.597 44.4818 393.661 43.6084 391.789 42.5478 389.918 43.0781 388.358 43.5148 385.863 44.4194 384.927 46.0415 383.367 47.9443 383.367 49.2544 383.367 51.6251 383.367 54.5885 383.991 57.739 384.927 60.7024 385.863 63.6658 387.422 65.7245 388.67 67.2842 389.918 68.9375 392.413 70.0916 394.909 70.8403 397.092 71.4953 399.588 71.8696 403.331 72.0568 407.074 72.244 409.57 72.1504 412.065 72.0568 413.313 71.9944 413.937 71.9695 415.808 71.4641 417.056 71.1272 418.741 70.2476 420.175 68.9063 421.267 67.8894 422.203 65.8056 422.359 65.0695 422.515 64.3364 422.733 62.4243 422.733 62.4243 422.733 62.4243 420.799 64.8511 419.863 65.7557 418.928 66.598 417.992 67.6897 417.056 68.22 414.872 69.4366 413.001 69.3742 411.129 69.4366 408.322 69.4989 404.267 69.4366 400.523 69.0934 396.468 68.7503 393.661 68.0017 391.477 66.1301 389.294 64.1649 388.046 62.2621 387.422 59.829 385.863 54.6509 385.863 52.8417 386.175 50.0654 386.486 46.7901 389.606 45.4488 390.854 45.5112 392.101 45.5736 392.725 46.1975 393.349 47.1645 394.597 49.5352 393.661 51.6875 393.661 54.0582 398.028 55.15 399.9 54.3701 401.771 53.1848 403.643 52.0618 405.514 49.4416 405.514 47.7883 407.386 48.3186 409.57 47.6012 411.753 46.2286 413.001 45.2305 414.561 42.2983 414.561 39.5533 414.561 37.4009 413.937 35.311 413.313 34.032 411.441 31.4118 408.634 30.8721 406.45 30.8721 406.45 25.4601 400.523 21.8448 396.78 22.9334 397.092 25.6659 396.156 27.0884 395.533 27.9618 394.909 29.0785 393.973 29.8053 392.725 30.1765 390.854 30.6569 389.606 29.8895 388.67 29.1347 387.11 28.0616 386.486 25.4039 388.046 23.7257 388.982 22.5684 390.854 21.9695 391.789 22.1567 393.037 22.4031 394.285 23.1549 394.909 22.8866 395.845 22.6215 396.156 20.6407 396.156 19.9607 397.092 12.2091 393.037 9.89143 388.046 8.89948 386.486 2.87915 381.464 0.0779836 377.534 0.0779836" fill="#000000" fill-rule="nonzero" fill-opacity="1" transform="matrix(1 0 0 1.02631 147.756 1487.51)"/><path d="M-0.685848 122.368C-0.685848 124.637-2.52563 126.477-4.79512 126.477-7.06461 126.477-8.9044 124.637-8.9044 122.368-8.9044 120.098-7.06461 118.258-4.79512 118.258-2.52563 118.258-0.685847 120.098-0.685848 122.368Z" fill="#000000" fill-rule="nonzero" fill-opacity="1" transform="matrix(1 0 0 1.02631 552.959 1453.51)"/><path d="M395.845 35.2174 395.845 42.0487 402.707 42.0487 402.707 35.2174Z" fill="#0098D4" fill-rule="nonzero" fill-opacity="1" transform="matrix(1 0 0 1.02631 147.756 1487.51)"/><path d="M426.102 117.474 375.569 117.474 377.128 2.86979 381.558 2.19517 385.551 6.14208 387.422 10.2347 392.725 11.5042 395.221 15.3036 395.221 21.6421 389.918 20.959 386.486 23.3952 385.863 27.4909 390.542 31.9733 395.533 29.5715 398.028 24.3715 401.459 24.3715 404.267 26.8077 405.514 32.1293 410.817 33.1587 413.625 39.3974 411.441 44.9498 407.698 46.6966 404.579 46.8838 401.771 52.0619 395.221 53.7152 395.221 48.3499 393.037 44.7315 388.67 44.5443 384.927 48.3499 385.239 57.1152 386.798 62.4805 392.725 68.8128 402.395 70.778 411.753 70.778 417.368 69.9981C419.552 67.9082 422.671 62.6365 422.671 62.6365" fill="#FFDD00" fill-rule="nonzero" fill-opacity="1" transform="matrix(-1 0 0 1.02631 993.098 1487.51)"/><path d="M377.534 2.80429C384.365 2.80429 385.551 9.91951 386.175 10.8272 386.798 11.7318 388.982 11.7162 389.918 11.944 391.477 12.4275 392.413 13.4912 393.349 14.6141 393.973 15.578 394.285 17.0035 393.973 20.2227 393.661 20.101 392.101 19.4148 391.165 19.524 389.918 19.6675 388.982 19.7642 387.734 20.5783 385.863 21.7418 385.551 22.3688 384.927 23.7257 384.303 25.198 383.991 27.4908 385.239 28.8976 386.175 30.5758 386.175 30.3262 387.734 31.4118 388.982 32.3476 390.854 32.8779 392.725 32.5035 394.285 32.1916 395.221 31.4742 396.468 30.295 397.716 28.5108 398.652 26.0683 398.652 25.6472 400.523 25.1575 402.083 26.4395 402.707 27.3847 404.267 29.6837 404.267 31.1435 404.267 33.4082 408.01 32.4412 412.065 34.6559 412.065 39.0854 412.065 43.4836 408.322 45.9479 403.955 44.4818 403.955 48.2562 402.083 50.1278 400.523 51.3444 399.276 52.2802 397.716 52.1554 396.156 52.1554 396.468 50.7205 396.468 50.5333 396.468 49.0049 396.156 47.2268 395.533 45.3552 394.597 44.4818 393.661 43.6084 391.789 42.5478 389.918 43.0781 388.358 43.5148 385.863 44.4194 384.927 46.0415 383.367 47.9443 383.367 49.2544 383.367 51.6251 383.367 54.5885 383.991 57.739 384.927 60.7024 385.863 63.6658 387.422 65.7245 388.67 67.2842 389.918 68.9375 392.413 70.0916 394.909 70.8403 397.092 71.4953 399.588 71.8696 403.331 72.0568 407.074 72.244 409.57 72.1504 412.065 72.0568 413.313 71.9944 413.937 71.9695 415.808 71.4641 417.056 71.1272 418.741 70.2476 420.175 68.9063 421.267 67.8894 422.203 65.8056 422.359 65.0695 422.515 64.3364 422.733 62.4243 422.733 62.4243 422.733 62.4243 420.799 64.8511 419.863 65.7557 418.928 66.598 417.992 67.6897 417.056 68.22 414.872 69.4366 413.001 69.3742 411.129 69.4366 408.322 69.4989 404.267 69.4366 400.523 69.0934 396.468 68.7503 393.661 68.0017 391.477 66.1301 389.294 64.1649 388.046 62.2621 387.422 59.829 385.863 54.6509 385.863 52.8417 386.175 50.0654 386.486 46.7901 389.606 45.4488 390.854 45.5112 392.101 45.5736 392.725 46.1975 393.349 47.1645 394.597 49.5352 393.661 51.6875 393.661 54.0582 398.028 55.15 399.9 54.3701 401.771 53.1848 403.643 52.0618 405.514 49.4416 405.514 47.7883 407.386 48.3186 409.57 47.6012 411.753 46.2286 413.001 45.2305 414.561 42.2983 414.561 39.5533 414.561 37.4009 413.937 35.311 413.313 34.032 411.441 31.4118 408.634 30.8721 406.45 30.8721 406.45 25.4601 400.523 21.8448 396.78 22.9334 397.092 25.6659 396.156 27.0884 395.533 27.9618 394.909 29.0785 393.973 29.8053 392.725 30.1765 390.854 30.6569 389.606 29.8895 388.67 29.1347 387.11 28.0616 386.486 25.4039 388.046 23.7257 388.982 22.5684 390.854 21.9695 391.789 22.1567 393.037 22.4031 394.285 23.1549 394.909 22.8866 395.845 22.6215 396.156 20.6407 396.156 19.9607 397.092 12.2091 393.037 9.89143 388.046 8.89948 386.486 2.87915 381.464 0.0779836 377.534 0.0779836" fill="#000000" fill-rule="nonzero" fill-opacity="1" transform="matrix(-1 0 0 1.02631 993.098 1487.51)"/><path d="M-0.685848 122.368C-0.685848 124.637-2.52563 126.477-4.79512 126.477-7.06461 126.477-8.9044 124.637-8.9044 122.368-8.9044 120.098-7.06461 118.258-4.79512 118.258-2.52563 118.258-0.685847 120.098-0.685848 122.368Z" fill="#000000" fill-rule="nonzero" fill-opacity="1" transform="matrix(-1 0 0 1.02631 587.896 1453.51)"/><path d="M395.845 35.2174 395.845 42.0487 402.707 42.0487 402.707 35.2174Z" fill="#0098D4" fill-rule="nonzero" fill-opacity="1" transform="matrix(-1 0 0 1.02631 993.098 1487.51)"/><path d="M426.102 117.474 375.569 117.474 377.128 2.86979 381.558 2.19517 385.551 6.14208 387.422 10.2347 392.725 11.5042 395.221 15.3036 395.221 21.6421 389.918 20.959 386.486 23.3952 385.863 27.4909 390.542 31.9733 395.533 29.5715 398.028 24.3715 401.459 24.3715 404.267 26.8077 405.514 32.1293 410.817 33.1587 413.625 39.3974 411.441 44.9498 407.698 46.6966 404.579 46.8838 401.771 52.0619 395.221 53.7152 395.221 48.3499 393.037 44.7315 388.67 44.5443 384.927 48.3499 385.239 57.1152 386.798 62.4805 392.725 68.8128 402.395 70.778 411.753 70.778 417.368 69.9981C419.552 67.9082 422.671 62.6365 422.671 62.6365" fill="#FFDD00" fill-rule="nonzero" fill-opacity="1" transform="matrix(1 0 0 1.02631 147.756 1487.51)"/><path d="M377.534 2.80429C384.365 2.80429 385.551 9.91951 386.175 10.8272 386.798 11.7318 388.982 11.7162 389.918 11.944 391.477 12.4275 392.413 13.4912 393.349 14.6141 393.973 15.578 394.285 17.0035 393.973 20.2227 393.661 20.101 392.101 19.4148 391.165 19.524 389.918 19.6675 388.982 19.7642 387.734 20.5783 385.863 21.7418 385.551 22.3688 384.927 23.7257 384.303 25.198 383.991 27.4908 385.239 28.8976 386.175 30.5758 386.175 30.3262 387.734 31.4118 388.982 32.3476 390.854 32.8779 392.725 32.5035 394.285 32.1916 395.221 31.4742 396.468 30.295 397.716 28.5108 398.652 26.0683 398.652 25.6472 400.523 25.1575 402.083 26.4395 402.707 27.3847 404.267 29.6837 404.267 31.1435 404.267 33.4082 408.01 32.4412 412.065 34.6559 412.065 39.0854 412.065 43.4836 408.322 45.9479 403.955 44.4818 403.955 48.2562 402.083 50.1278 400.523 51.3444 399.276 52.2802 397.716 52.1554 396.156 52.1554 396.468 50.7205 396.468 50.5333 396.468 49.0049 396.156 47.2268 395.533 45.3552 394.597 44.4818 393.661 43.6084 391.789 42.5478 389.918 43.0781 388.358 43.5148 385.863 44.4194 384.927 46.0415 383.367 47.9443 383.367 49.2544 383.367 51.6251 383.367 54.5885 383.991 57.739 384.927 60.7024 385.863 63.6658 387.422 65.7245 388.67 67.2842 389.918 68.9375 392.413 70.0916 394.909 70.8403 397.092 71.4953 399.588 71.8696 403.331 72.0568 407.074 72.244 409.57 72.1504 412.065 72.0568 413.313 71.9944 413.937 71.9695 415.808 71.4641 417.056 71.1272 418.741 70.2476 420.175 68.9063 421.267 67.8894 422.203 65.8056 422.359 65.0695 422.515 64.3364 422.733 62.4243 422.733 62.4243 422.733 62.4243 420.799 64.8511 419.863 65.7557 418.928 66.598 417.992 67.6897 417.056 68.22 414.872 69.4366 413.001 69.3742 411.129 69.4366 408.322 69.4989 404.267 69.4366 400.523 69.0934 396.468 68.7503 393.661 68.0017 391.477 66.1301 389.294 64.1649 388.046 62.2621 387.422 59.829 385.863 54.6509 385.863 52.8417 386.175 50.0654 386.486 46.7901 389.606 45.4488 390.854 45.5112 392.101 45.5736 392.725 46.1975 393.349 47.1645 394.597 49.5352 393.661 51.6875 393.661 54.0582 398.028 55.15 399.9 54.3701 401.771 53.1848 403.643 52.0618 405.514 49.4416 405.514 47.7883 407.386 48.3186 409.57 47.6012 411.753 46.2286 413.001 45.2305 414.561 42.2983 414.561 39.5533 414.561 37.4009 413.937 35.311 413.313 34.032 411.441 31.4118 408.634 30.8721 406.45 30.8721 406.45 25.4601 400.523 21.8448 396.78 22.9334 397.092 25.6659 396.156 27.0884 395.533 27.9618 394.909 29.0785 393.973 29.8053 392.725 30.1765 390.854 30.6569 389.606 29.8895 388.67 29.1347 387.11 28.0616 386.486 25.4039 388.046 23.7257 388.982 22.5684 390.854 21.9695 391.789 22.1567 393.037 22.4031 394.285 23.1549 394.909 22.8866 395.845 22.6215 396.156 20.6407 396.156 19.9607 397.092 12.2091 393.037 9.89143 388.046 8.89948 386.486 2.87915 381.464 0.0779836 377.534 0.0779836" fill="#000000" fill-rule="nonzero" fill-opacity="1" transform="matrix(1 0 0 1.02631 147.756 1487.51)"/><path d="M-0.685848 122.368C-0.685848 124.637-2.52563 126.477-4.79512 126.477-7.06461 126.477-8.9044 124.637-8.9044 122.368-8.9044 120.098-7.06461 118.258-4.79512 118.258-2.52563 118.258-0.685847 120.098-0.685848 122.368Z" fill="#000000" fill-rule="nonzero" fill-opacity="1" transform="matrix(1 0 0 1.02631 552.959 1453.51)"/><path d="M395.845 35.2174 395.845 42.0487 402.707 42.0487 402.707 35.2174Z" fill="#0098D4" fill-rule="nonzero" fill-opacity="1" transform="matrix(1 0 0 1.02631 147.756 1487.51)"/><path d="M422.671 42.1111C416.12 42.1111 413.937 49.3792 418.304 54.3389 411.753 52.3738 406.138 57.5207 408.946 62.2621 412.377 68.4696 419.24 65.4438 422.671 61.1391 426.414 66.0053 433.277 67.7833 436.396 62.5428 439.827 57.0216 433.589 51.5939 427.35 54.2766 431.093 49.4104 429.221 42.1111 422.671 42.1111Z" stroke="#000000" stroke-width="2.52667" stroke-linecap="butt" stroke-linejoin="round" stroke-miterlimit="4" stroke-opacity="1" fill="#0098D4" fill-rule="nonzero" fill-opacity="1" transform="matrix(1 0 0 1.02631 147.756 1487.51)"/><path d="M411.753 96.0445 411.753 82.3506 434.212 82.3506 434.212 96.0445Z" stroke="#000000" stroke-width="2.5248" stroke-linecap="butt" stroke-linejoin="miter" stroke-miterlimit="4" stroke-opacity="1" fill="#ED1C24" fill-rule="nonzero" fill-opacity="1" transform="matrix(1 0 0 1.02631 147.756 1487.51)"/><path d="M377.752 73.3669 377.752 36.2468" stroke="#000000" stroke-width="2.23563" stroke-linecap="butt" stroke-linejoin="miter" stroke-miterlimit="4" stroke-opacity="1" fill="none" fill-rule="nonzero" transform="matrix(1 0 0 1.02631 147.756 1487.51)"/><path d="M374.321 10.4903 374.321 17.3311 381.184 17.3311 381.184 10.4903Z" fill="#ED1C24" fill-rule="nonzero" fill-opacity="1" transform="matrix(1 0 0 1.02631 147.756 1487.51)"/><path d="M377.752 81.9763 366.523 89.2132 377.752 96.4501 388.67 89.2132Z" stroke="#000000" stroke-width="2.5248" stroke-linecap="butt" stroke-linejoin="miter" stroke-miterlimit="4" stroke-opacity="1" fill="#0098D4" fill-rule="nonzero" fill-opacity="1" transform="matrix(1 0 0 1.02631 147.756 1487.51)"/><path d="M11.858 119.487 11.858 363.169C11.858 363.169 12.267 391.312 13.44 402.095 14.6236 412.747 15.6888 427.871 19.989 439.706 24.5918 452.331 28.7868 460.747 33.0345 466.928 37.2822 473.109 42.8055 479.553 49.7622 484.813 58.0471 491.125 61.3479 493.098 67.2789 496.123 74.1304 499.805 78.023 500.725 84.572 502.698 91.1211 504.671 98.7879 506.249 104.929 506.906 111.071 507.695 118.738 508.09 124.879 508.484 131.02 508.879 146.104 509.273 150.707 509.273L232.899 509.273C237.501 509.273 252.493 508.879 258.674 508.484 264.855 508.09 272.482 507.695 278.663 506.906 284.844 506.249 292.471 504.671 299.047 502.698 305.49 500.725 309.436 499.673 316.274 496.123 322.323 493.098 325.479 491.125 333.764 484.813 340.734 479.553 346.258 473.109 350.597 466.928 354.805 460.747 359.014 452.331 363.616 439.706 367.825 427.871 369.008 412.747 370.06 402.095 371.375 391.18 371.77 363.169 371.77 363.169L371.77 119.487" stroke="#000000" stroke-width="4.56329" stroke-linecap="butt" stroke-linejoin="miter" stroke-miterlimit="4" stroke-opacity="1" fill="#FFDD00" fill-rule="nonzero" fill-opacity="1" transform="matrix(1 0 0 1.02631 423 1485.82)"/><path d="M21.2252 129.6 21.2252 360.789C21.2252 360.789 21.6329 387.353 22.7112 397.611 23.829 407.737 24.96 422.86 28.8526 434.038 30.8384 439.956 34.3759 449.425 40.5567 459.288 44.2915 465.337 49.4071 471.649 56.0088 476.647 63.8597 482.696 67.8444 485.063 73.5781 487.693 81.863 491.507 84.9403 492.427 91.1737 494.137 97.9331 495.847 104.061 496.899 109.9 497.425 116.239 498.082 122.788 498.345 128.009 498.608 133.874 498.871 148.471 499.266 152.811 499.266L230.926 499.266C235.266 499.266 249.731 498.871 255.649 498.608 260.778 498.345 267.353 498.082 273.666 497.425 279.584 496.899 285.633 495.847 292.471 494.137 298.652 492.427 301.808 491.638 310.093 487.693 315.748 485.063 319.825 482.696 327.584 476.647 334.159 471.649 339.288 465.337 343.101 459.288 349.282 449.425 352.701 439.956 354.805 434.038 358.751 422.86 359.803 407.737 360.855 397.611 362.038 387.353 362.433 360.789 362.433 360.789L362.433 129.6Z" fill="#FFFFFF" fill-rule="nonzero" fill-opacity="1" transform="matrix(1 0 0 1.02631 423 1485.82)"/><path d="M426.102 117.474 375.569 117.474 377.128 2.86979 381.558 2.19517 385.551 6.14208 387.422 10.2347 392.725 11.5042 395.221 15.3036 395.221 21.6421 389.918 20.959 386.486 23.3952 385.863 27.4909 390.542 31.9733 395.533 29.5715 398.028 24.3715 401.459 24.3715 404.267 26.8077 405.514 32.1293 410.817 33.1587 413.625 39.3974 411.441 44.9498 407.698 46.6966 404.579 46.8838 401.771 52.0619 395.221 53.7152 395.221 48.3499 393.037 44.7315 388.67 44.5443 384.927 48.3499 385.239 57.1152 386.798 62.4805 392.725 68.8128 402.395 70.778 411.753 70.778 417.368 69.9981C419.552 67.9082 422.671 62.6365 422.671 62.6365" fill="#FFDD00" fill-rule="nonzero" fill-opacity="1" transform="matrix(1 0 0 1.02631 237.594 1487.51)"/><path d="M377.534 2.80429C384.365 2.80429 385.551 9.91951 386.175 10.8272 386.798 11.7318 388.982 11.7162 389.918 11.944 391.477 12.4275 392.413 13.4912 393.349 14.6141 393.973 15.578 394.285 17.0035 393.973 20.2227 393.661 20.101 392.101 19.4148 391.165 19.524 389.918 19.6675 388.982 19.7642 387.734 20.5783 385.863 21.7418 385.551 22.3688 384.927 23.7257 384.303 25.198 383.991 27.4908 385.239 28.8976 386.175 30.5758 386.175 30.3262 387.734 31.4118 388.982 32.3476 390.854 32.8779 392.725 32.5035 394.285 32.1916 395.221 31.4742 396.468 30.295 397.716 28.5108 398.652 26.0683 398.652 25.6472 400.523 25.1575 402.083 26.4395 402.707 27.3847 404.267 29.6837 404.267 31.1435 404.267 33.4082 408.01 32.4412 412.065 34.6559 412.065 39.0854 412.065 43.4836 408.322 45.9479 403.955 44.4818 403.955 48.2562 402.083 50.1278 400.523 51.3444 399.276 52.2802 397.716 52.1554 396.156 52.1554 396.468 50.7205 396.468 50.5333 396.468 49.0049 396.156 47.2268 395.533 45.3552 394.597 44.4818 393.661 43.6084 391.789 42.5478 389.918 43.0781 388.358 43.5148 385.863 44.4194 384.927 46.0415 383.367 47.9443 383.367 49.2544 383.367 51.6251 383.367 54.5885 383.991 57.739 384.927 60.7024 385.863 63.6658 387.422 65.7245 388.67 67.2842 389.918 68.9375 392.413 70.0916 394.909 70.8403 397.092 71.4953 399.588 71.8696 403.331 72.0568 407.074 72.244 409.57 72.1504 412.065 72.0568 413.313 71.9944 413.937 71.9695 415.808 71.4641 417.056 71.1272 418.741 70.2476 420.175 68.9063 421.267 67.8894 422.203 65.8056 422.359 65.0695 422.515 64.3364 422.733 62.4243 422.733 62.4243 422.733 62.4243 420.799 64.8511 419.863 65.7557 418.928 66.598 417.992 67.6897 417.056 68.22 414.872 69.4366 413.001 69.3742 411.129 69.4366 408.322 69.4989 404.267 69.4366 400.523 69.0934 396.468 68.7503 393.661 68.0017 391.477 66.1301 389.294 64.1649 388.046 62.2621 387.422 59.829 385.863 54.6509 385.863 52.8417 386.175 50.0654 386.486 46.7901 389.606 45.4488 390.854 45.5112 392.101 45.5736 392.725 46.1975 393.349 47.1645 394.597 49.5352 393.661 51.6875 393.661 54.0582 398.028 55.15 399.9 54.3701 401.771 53.1848 403.643 52.0618 405.514 49.4416 405.514 47.7883 407.386 48.3186 409.57 47.6012 411.753 46.2286 413.001 45.2305 414.561 42.2983 414.561 39.5533 414.561 37.4009 413.937 35.311 413.313 34.032 411.441 31.4118 408.634 30.8721 406.45 30.8721 406.45 25.4601 400.523 21.8448 396.78 22.9334 397.092 25.6659 396.156 27.0884 395.533 27.9618 394.909 29.0785 393.973 29.8053 392.725 30.1765 390.854 30.6569 389.606 29.8895 388.67 29.1347 387.11 28.0616 386.486 25.4039 388.046 23.7257 388.982 22.5684 390.854 21.9695 391.789 22.1567 393.037 22.4031 394.285 23.1549 394.909 22.8866 395.845 22.6215 396.156 20.6407 396.156 19.9607 397.092 12.2091 393.037 9.89143 388.046 8.89948 386.486 2.87915 381.464 0.0779836 377.534 0.0779836" fill="#000000" fill-rule="nonzero" fill-opacity="1" transform="matrix(1 0 0 1.02631 237.594 1487.51)"/><path d="M-0.685848 122.368C-0.685848 124.637-2.52563 126.477-4.79512 126.477-7.06461 126.477-8.9044 124.637-8.9044 122.368-8.9044 120.098-7.06461 118.258-4.79512 118.258-2.52563 118.258-0.685847 120.098-0.685848 122.368Z" fill="#000000" fill-rule="nonzero" fill-opacity="1" transform="matrix(1 0 0 1.02631 642.797 1453.51)"/><path d="M395.845 35.2174 395.845 42.0487 402.707 42.0487 402.707 35.2174Z" fill="#0098D4" fill-rule="nonzero" fill-opacity="1" transform="matrix(1 0 0 1.02631 237.594 1487.51)"/><path d="M426.102 117.474 375.569 117.474 377.128 2.86979 381.558 2.19517 385.551 6.14208 387.422 10.2347 392.725 11.5042 395.221 15.3036 395.221 21.6421 389.918 20.959 386.486 23.3952 385.863 27.4909 390.542 31.9733 395.533 29.5715 398.028 24.3715 401.459 24.3715 404.267 26.8077 405.514 32.1293 410.817 33.1587 413.625 39.3974 411.441 44.9498 407.698 46.6966 404.579 46.8838 401.771 52.0619 395.221 53.7152 395.221 48.3499 393.037 44.7315 388.67 44.5443 384.927 48.3499 385.239 57.1152 386.798 62.4805 392.725 68.8128 402.395 70.778 411.753 70.778 417.368 69.9981C419.552 67.9082 422.671 62.6365 422.671 62.6365" fill="#FFDD00" fill-rule="nonzero" fill-opacity="1" transform="matrix(-1 0 0 1.02631 1082.94 1487.51)"/><path d="M377.534 2.80429C384.365 2.80429 385.551 9.91951 386.175 10.8272 386.798 11.7318 388.982 11.7162 389.918 11.944 391.477 12.4275 392.413 13.4912 393.349 14.6141 393.973 15.578 394.285 17.0035 393.973 20.2227 393.661 20.101 392.101 19.4148 391.165 19.524 389.918 19.6675 388.982 19.7642 387.734 20.5783 385.863 21.7418 385.551 22.3688 384.927 23.7257 384.303 25.198 383.991 27.4908 385.239 28.8976 386.175 30.5758 386.175 30.3262 387.734 31.4118 388.982 32.3476 390.854 32.8779 392.725 32.5035 394.285 32.1916 395.221 31.4742 396.468 30.295 397.716 28.5108 398.652 26.0683 398.652 25.6472 400.523 25.1575 402.083 26.4395 402.707 27.3847 404.267 29.6837 404.267 31.1435 404.267 33.4082 408.01 32.4412 412.065 34.6559 412.065 39.0854 412.065 43.4836 408.322 45.9479 403.955 44.4818 403.955 48.2562 402.083 50.1278 400.523 51.3444 399.276 52.2802 397.716 52.1554 396.156 52.1554 396.468 50.7205 396.468 50.5333 396.468 49.0049 396.156 47.2268 395.533 45.3552 394.597 44.4818 393.661 43.6084 391.789 42.5478 389.918 43.0781 388.358 43.5148 385.863 44.4194 384.927 46.0415 383.367 47.9443 383.367 49.2544 383.367 51.6251 383.367 54.5885 383.991 57.739 384.927 60.7024 385.863 63.6658 387.422 65.7245 388.67 67.2842 389.918 68.9375 392.413 70.0916 394.909 70.8403 397.092 71.4953 399.588 71.8696 403.331 72.0568 407.074 72.244 409.57 72.1504 412.065 72.0568 413.313 71.9944 413.937 71.9695 415.808 71.4641 417.056 71.1272 418.741 70.2476 420.175 68.9063 421.267 67.8894 422.203 65.8056 422.359 65.0695 422.515 64.3364 422.733 62.4243 422.733 62.4243 422.733 62.4243 420.799 64.8511 419.863 65.7557 418.928 66.598 417.992 67.6897 417.056 68.22 414.872 69.4366 413.001 69.3742 411.129 69.4366 408.322 69.4989 404.267 69.4366 400.523 69.0934 396.468 68.7503 393.661 68.0017 391.477 66.1301 389.294 64.1649 388.046 62.2621 387.422 59.829 385.863 54.6509 385.863 52.8417 386.175 50.0654 386.486 46.7901 389.606 45.4488 390.854 45.5112 392.101 45.5736 392.725 46.1975 393.349 47.1645 394.597 49.5352 393.661 51.6875 393.661 54.0582 398.028 55.15 399.9 54.3701 401.771 53.1848 403.643 52.0618 405.514 49.4416 405.514 47.7883 407.386 48.3186 409.57 47.6012 411.753 46.2286 413.001 45.2305 414.561 42.2983 414.561 39.5533 414.561 37.4009 413.937 35.311 413.313 34.032 411.441 31.4118 408.634 30.8721 406.45 30.8721 406.45 25.4601 400.523 21.8448 396.78 22.9334 397.092 25.6659 396.156 27.0884 395.533 27.9618 394.909 29.0785 393.973 29.8053 392.725 30.1765 390.854 30.6569 389.606 29.8895 388.67 29.1347 387.11 28.0616 386.486 25.4039 388.046 23.7257 388.982 22.5684 390.854 21.9695 391.789 22.1567 393.037 22.4031 394.285 23.1549 394.909 22.8866 395.845 22.6215 396.156 20.6407 396.156 19.9607 397.092 12.2091 393.037 9.89143 388.046 8.89948 386.486 2.87915 381.464 0.0779836 377.534 0.0779836" fill="#000000" fill-rule="nonzero" fill-opacity="1" transform="matrix(-1 0 0 1.02631 1082.94 1487.51)"/><path d="M-0.685848 122.368C-0.685848 124.637-2.52563 126.477-4.79512 126.477-7.06461 126.477-8.9044 124.637-8.9044 122.368-8.9044 120.098-7.06461 118.258-4.79512 118.258-2.52563 118.258-0.685847 120.098-0.685848 122.368Z" fill="#000000" fill-rule="nonzero" fill-opacity="1" transform="matrix(-1 0 0 1.02631 677.733 1453.51)"/><path d="M395.845 35.2174 395.845 42.0487 402.707 42.0487 402.707 35.2174Z" fill="#0098D4" fill-rule="nonzero" fill-opacity="1" transform="matrix(-1 0 0 1.02631 1082.94 1487.51)"/><path d="M426.102 117.474 375.569 117.474 377.128 2.86979 381.558 2.19517 385.551 6.14208 387.422 10.2347 392.725 11.5042 395.221 15.3036 395.221 21.6421 389.918 20.959 386.486 23.3952 385.863 27.4909 390.542 31.9733 395.533 29.5715 398.028 24.3715 401.459 24.3715 404.267 26.8077 405.514 32.1293 410.817 33.1587 413.625 39.3974 411.441 44.9498 407.698 46.6966 404.579 46.8838 401.771 52.0619 395.221 53.7152 395.221 48.3499 393.037 44.7315 388.67 44.5443 384.927 48.3499 385.239 57.1152 386.798 62.4805 392.725 68.8128 402.395 70.778 411.753 70.778 417.368 69.9981C419.552 67.9082 422.671 62.6365 422.671 62.6365" fill="#FFDD00" fill-rule="nonzero" fill-opacity="1" transform="matrix(1 0 0 1.02631 237.594 1487.51)"/><path d="M377.534 2.80429C384.365 2.80429 385.551 9.91951 386.175 10.8272 386.798 11.7318 388.982 11.7162 389.918 11.944 391.477 12.4275 392.413 13.4912 393.349 14.6141 393.973 15.578 394.285 17.0035 393.973 20.2227 393.661 20.101 392.101 19.4148 391.165 19.524 389.918 19.6675 388.982 19.7642 387.734 20.5783 385.863 21.7418 385.551 22.3688 384.927 23.7257 384.303 25.198 383.991 27.4908 385.239 28.8976 386.175 30.5758 386.175 30.3262 387.734 31.4118 388.982 32.3476 390.854 32.8779 392.725 32.5035 394.285 32.1916 395.221 31.4742 396.468 30.295 397.716 28.5108 398.652 26.0683 398.652 25.6472 400.523 25.1575 402.083 26.4395 402.707 27.3847 404.267 29.6837 404.267 31.1435 404.267 33.4082 408.01 32.4412 412.065 34.6559 412.065 39.0854 412.065 43.4836 408.322 45.9479 403.955 44.4818 403.955 48.2562 402.083 50.1278 400.523 51.3444 399.276 52.2802 397.716 52.1554 396.156 52.1554 396.468 50.7205 396.468 50.5333 396.468 49.0049 396.156 47.2268 395.533 45.3552 394.597 44.4818 393.661 43.6084 391.789 42.5478 389.918 43.0781 388.358 43.5148 385.863 44.4194 384.927 46.0415 383.367 47.9443 383.367 49.2544 383.367 51.6251 383.367 54.5885 383.991 57.739 384.927 60.7024 385.863 63.6658 387.422 65.7245 388.67 67.2842 389.918 68.9375 392.413 70.0916 394.909 70.8403 397.092 71.4953 399.588 71.8696 403.331 72.0568 407.074 72.244 409.57 72.1504 412.065 72.0568 413.313 71.9944 413.937 71.9695 415.808 71.4641 417.056 71.1272 418.741 70.2476 420.175 68.9063 421.267 67.8894 422.203 65.8056 422.359 65.0695 422.515 64.3364 422.733 62.4243 422.733 62.4243 422.733 62.4243 420.799 64.8511 419.863 65.7557 418.928 66.598 417.992 67.6897 417.056 68.22 414.872 69.4366 413.001 69.3742 411.129 69.4366 408.322 69.4989 404.267 69.4366 400.523 69.0934 396.468 68.7503 393.661 68.0017 391.477 66.1301 389.294 64.1649 388.046 62.2621 387.422 59.829 385.863 54.6509 385.863 52.8417 386.175 50.0654 386.486 46.7901 389.606 45.4488 390.854 45.5112 392.101 45.5736 392.725 46.1975 393.349 47.1645 394.597 49.5352 393.661 51.6875 393.661 54.0582 398.028 55.15 399.9 54.3701 401.771 53.1848 403.643 52.0618 405.514 49.4416 405.514 47.7883 407.386 48.3186 409.57 47.6012 411.753 46.2286 413.001 45.2305 414.561 42.2983 414.561 39.5533 414.561 37.4009 413.937 35.311 413.313 34.032 411.441 31.4118 408.634 30.8721 406.45 30.8721 406.45 25.4601 400.523 21.8448 396.78 22.9334 397.092 25.6659 396.156 27.0884 395.533 27.9618 394.909 29.0785 393.973 29.8053 392.725 30.1765 390.854 30.6569 389.606 29.8895 388.67 29.1347 387.11 28.0616 386.486 25.4039 388.046 23.7257 388.982 22.5684 390.854 21.9695 391.789 22.1567 393.037 22.4031 394.285 23.1549 394.909 22.8866 395.845 22.6215 396.156 20.6407 396.156 19.9607 397.092 12.2091 393.037 9.89143 388.046 8.89948 386.486 2.87915 381.464 0.0779836 377.534 0.0779836" fill="#000000" fill-rule="nonzero" fill-opacity="1" transform="matrix(1 0 0 1.02631 237.594 1487.51)"/><path d="M-0.685848 122.368C-0.685848 124.637-2.52563 126.477-4.79512 126.477-7.06461 126.477-8.9044 124.637-8.9044 122.368-8.9044 120.098-7.06461 118.258-4.79512 118.258-2.52563 118.258-0.685847 120.098-0.685848 122.368Z" fill="#000000" fill-rule="nonzero" fill-opacity="1" transform="matrix(1 0 0 1.02631 642.797 1453.51)"/><path d="M395.845 35.2174 395.845 42.0487 402.707 42.0487 402.707 35.2174Z" fill="#0098D4" fill-rule="nonzero" fill-opacity="1" transform="matrix(1 0 0 1.02631 237.594 1487.51)"/><path d="M422.671 42.1111C416.12 42.1111 413.937 49.3792 418.304 54.3389 411.753 52.3738 406.138 57.5207 408.946 62.2621 412.377 68.4696 419.24 65.4438 422.671 61.1391 426.414 66.0053 433.277 67.7833 436.396 62.5428 439.827 57.0216 433.589 51.5939 427.35 54.2766 431.093 49.4104 429.221 42.1111 422.671 42.1111Z" stroke="#000000" stroke-width="2.52667" stroke-linecap="butt" stroke-linejoin="round" stroke-miterlimit="4" stroke-opacity="1" fill="#0098D4" fill-rule="nonzero" fill-opacity="1" transform="matrix(1 0 0 1.02631 237.594 1487.51)"/><path d="M411.753 96.0445 411.753 82.3506 434.212 82.3506 434.212 96.0445Z" stroke="#000000" stroke-width="2.5248" stroke-linecap="butt" stroke-linejoin="miter" stroke-miterlimit="4" stroke-opacity="1" fill="#ED1C24" fill-rule="nonzero" fill-opacity="1" transform="matrix(1 0 0 1.02631 237.594 1487.51)"/><path d="M377.752 73.3669 377.752 36.2468" stroke="#000000" stroke-width="2.23563" stroke-linecap="butt" stroke-linejoin="miter" stroke-miterlimit="4" stroke-opacity="1" fill="none" fill-rule="nonzero" transform="matrix(1 0 0 1.02631 237.594 1487.51)"/><path d="M374.321 10.4903 374.321 17.3311 381.184 17.3311 381.184 10.4903Z" fill="#ED1C24" fill-rule="nonzero" fill-opacity="1" transform="matrix(1 0 0 1.02631 237.594 1487.51)"/><path d="M377.752 81.9763 366.523 89.2132 377.752 96.4501 388.67 89.2132Z" stroke="#000000" stroke-width="2.5248" stroke-linecap="butt" stroke-linejoin="miter" stroke-miterlimit="4" stroke-opacity="1" fill="#0098D4" fill-rule="nonzero" fill-opacity="1" transform="matrix(1 0 0 1.02631 237.594 1487.51)"/><path d="M426.102 117.474 375.569 117.474 377.128 2.86979 381.558 2.19517 385.551 6.14208 387.422 10.2347 392.725 11.5042 395.221 15.3036 395.221 21.6421 389.918 20.959 386.486 23.3952 385.863 27.4909 390.542 31.9733 395.533 29.5715 398.028 24.3715 401.459 24.3715 404.267 26.8077 405.514 32.1293 410.817 33.1587 413.625 39.3974 411.441 44.9498 407.698 46.6966 404.579 46.8838 401.771 52.0619 395.221 53.7152 395.221 48.3499 393.037 44.7315 388.67 44.5443 384.927 48.3499 385.239 57.1152 386.798 62.4805 392.725 68.8128 402.395 70.778 411.753 70.778 417.368 69.9981C419.552 67.9082 422.671 62.6365 422.671 62.6365" fill="#FFDD00" fill-rule="nonzero" fill-opacity="1" transform="matrix(1 0 0 1.02631 57.4112 1487.51)"/><path d="M377.534 2.80429C384.365 2.80429 385.551 9.91951 386.175 10.8272 386.798 11.7318 388.982 11.7162 389.918 11.944 391.477 12.4275 392.413 13.4912 393.349 14.6141 393.973 15.578 394.285 17.0035 393.973 20.2227 393.661 20.101 392.101 19.4148 391.165 19.524 389.918 19.6675 388.982 19.7642 387.734 20.5783 385.863 21.7418 385.551 22.3688 384.927 23.7257 384.303 25.198 383.991 27.4908 385.239 28.8976 386.175 30.5758 386.175 30.3262 387.734 31.4118 388.982 32.3476 390.854 32.8779 392.725 32.5035 394.285 32.1916 395.221 31.4742 396.468 30.295 397.716 28.5108 398.652 26.0683 398.652 25.6472 400.523 25.1575 402.083 26.4395 402.707 27.3847 404.267 29.6837 404.267 31.1435 404.267 33.4082 408.01 32.4412 412.065 34.6559 412.065 39.0854 412.065 43.4836 408.322 45.9479 403.955 44.4818 403.955 48.2562 402.083 50.1278 400.523 51.3444 399.276 52.2802 397.716 52.1554 396.156 52.1554 396.468 50.7205 396.468 50.5333 396.468 49.0049 396.156 47.2268 395.533 45.3552 394.597 44.4818 393.661 43.6084 391.789 42.5478 389.918 43.0781 388.358 43.5148 385.863 44.4194 384.927 46.0415 383.367 47.9443 383.367 49.2544 383.367 51.6251 383.367 54.5885 383.991 57.739 384.927 60.7024 385.863 63.6658 387.422 65.7245 388.67 67.2842 389.918 68.9375 392.413 70.0916 394.909 70.8403 397.092 71.4953 399.588 71.8696 403.331 72.0568 407.074 72.244 409.57 72.1504 412.065 72.0568 413.313 71.9944 413.937 71.9695 415.808 71.4641 417.056 71.1272 418.741 70.2476 420.175 68.9063 421.267 67.8894 422.203 65.8056 422.359 65.0695 422.515 64.3364 422.733 62.4243 422.733 62.4243 422.733 62.4243 420.799 64.8511 419.863 65.7557 418.928 66.598 417.992 67.6897 417.056 68.22 414.872 69.4366 413.001 69.3742 411.129 69.4366 408.322 69.4989 404.267 69.4366 400.523 69.0934 396.468 68.7503 393.661 68.0017 391.477 66.1301 389.294 64.1649 388.046 62.2621 387.422 59.829 385.863 54.6509 385.863 52.8417 386.175 50.0654 386.486 46.7901 389.606 45.4488 390.854 45.5112 392.101 45.5736 392.725 46.1975 393.349 47.1645 394.597 49.5352 393.661 51.6875 393.661 54.0582 398.028 55.15 399.9 54.3701 401.771 53.1848 403.643 52.0618 405.514 49.4416 405.514 47.7883 407.386 48.3186 409.57 47.6012 411.753 46.2286 413.001 45.2305 414.561 42.2983 414.561 39.5533 414.561 37.4009 413.937 35.311 413.313 34.032 411.441 31.4118 408.634 30.8721 406.45 30.8721 406.45 25.4601 400.523 21.8448 396.78 22.9334 397.092 25.6659 396.156 27.0884 395.533 27.9618 394.909 29.0785 393.973 29.8053 392.725 30.1765 390.854 30.6569 389.606 29.8895 388.67 29.1347 387.11 28.0616 386.486 25.4039 388.046 23.7257 388.982 22.5684 390.854 21.9695 391.789 22.1567 393.037 22.4031 394.285 23.1549 394.909 22.8866 395.845 22.6215 396.156 20.6407 396.156 19.9607 397.092 12.2091 393.037 9.89143 388.046 8.89948 386.486 2.87915 381.464 0.0779836 377.534 0.0779836" fill="#000000" fill-rule="nonzero" fill-opacity="1" transform="matrix(1 0 0 1.02631 57.4112 1487.51)"/><path d="M-0.685848 122.368C-0.685848 124.637-2.52563 126.477-4.79512 126.477-7.06461 126.477-8.9044 124.637-8.9044 122.368-8.9044 120.098-7.06461 118.258-4.79512 118.258-2.52563 118.258-0.685847 120.098-0.685848 122.368Z" fill="#000000" fill-rule="nonzero" fill-opacity="1" transform="matrix(1 0 0 1.02631 462.614 1453.51)"/><path d="M395.845 35.2174 395.845 42.0487 402.707 42.0487 402.707 35.2174Z" fill="#0098D4" fill-rule="nonzero" fill-opacity="1" transform="matrix(1 0 0 1.02631 57.4112 1487.51)"/><path d="M422.671 42.1111C416.12 42.1111 413.937 49.3792 418.304 54.3389 411.753 52.3738 406.138 57.5207 408.946 62.2621 412.377 68.4696 419.24 65.4438 422.671 61.1391 426.414 66.0053 433.277 67.7833 436.396 62.5428 439.827 57.0216 433.589 51.5939 427.35 54.2766 431.093 49.4104 429.221 42.1111 422.671 42.1111Z" stroke="#000000" stroke-width="2.52667" stroke-linecap="butt" stroke-linejoin="round" stroke-miterlimit="4" stroke-opacity="1" fill="#0098D4" fill-rule="nonzero" fill-opacity="1" transform="matrix(1 0 0 1.02631 57.4112 1487.51)"/><path d="M411.753 96.0445 411.753 82.3506 434.212 82.3506 434.212 96.0445Z" stroke="#000000" stroke-width="2.5248" stroke-linecap="butt" stroke-linejoin="miter" stroke-miterlimit="4" stroke-opacity="1" fill="#ED1C24" fill-rule="nonzero" fill-opacity="1" transform="matrix(1 0 0 1.02631 57.4112 1487.51)"/><path d="M379.621 13.5978C379.621 18.7254 375.988 22.8822 371.507 22.8822 367.026 22.8822 363.393 18.7254 363.393 13.5978 363.393 8.47018 367.026 4.31342 371.507 4.31342 375.988 4.31342 379.621 8.47018 379.621 13.5978Z" fill="#FFDD00" fill-rule="nonzero" fill-opacity="1" transform="matrix(-1 0 0 1.02631 806.606 1485.82)"/><path d="M371.244 1.95945 371.244 4.26082C373.94 4.14247 375.662 5.36548 376.78 6.40438 379.384 8.79781 380.252 11.7699 379.542 15.3205 378.45 20.5282 374.439 22.6586 370.165 22.6586L370.165 47.0137 373.085 46.3167 373.085 25.2756C375.925 24.4603 377.924 22.9742 379.213 21.6592 383.264 17.5167 383.316 11.8356 381.107 7.40384 378.74 3.60329 375.321 1.64384 371.244 1.95945Z" stroke="#000000" stroke-width="0.39452" stroke-linecap="butt" stroke-linejoin="miter" stroke-miterlimit="4" stroke-opacity="1" fill="#000000" fill-rule="nonzero" fill-opacity="1" transform="matrix(-1 0 0 1.02631 806.606 1485.82)"/><path d="M358.777 90.8581C358.777 94.5767 355.762 97.5912 352.044 97.5912 348.325 97.5912 345.311 94.5767 345.311 90.8581 345.311 87.1395 348.325 84.1249 352.044 84.1249 355.762 84.1249 358.777 87.1395 358.777 90.8581Z" stroke="#FFDD00" stroke-width="5.26027" stroke-linecap="butt" stroke-linejoin="miter" stroke-miterlimit="4" stroke-opacity="1" fill="#000000" fill-rule="nonzero" fill-opacity="1" transform="matrix(-1 0 0 1.02631 806.606 1485.82)"/><path d="M366.904 12.0723 366.904 18.9107 373.742 18.9107 373.742 12.0723 366.904 12.0723Z" fill="#ED1C24" fill-rule="nonzero" fill-opacity="1" transform="matrix(-1 0 0 1.02631 806.606 1485.82)"/><path d="M186.608 499.463 32.8767 129.534 128.864 129.863 281.148 497.03 303.899 490.849 326.913 477.699 344.535 457.447 353.083 438.247 22.08 329.227 21.1989 330.674 88.7277 493.611 65.714 483.748 49.8542 470.992 39.0575 456.92 28.6685 434.433 25.4992 423.649 253.795 498.871ZM353.096 438.312 223.956 130.455 262.093 129.298 362.696 162.411 362.301 129.561 319.299 130.021 362.17 233.293 362.17 255.649 21.3041 143.079 20.9096 235.792 362.301 348.625 359.803 407.408 356.647 427.266Z" stroke="#000000" stroke-width="2.63014" stroke-linecap="butt" stroke-linejoin="miter" stroke-miterlimit="4" stroke-opacity="1" fill="#0090CF" fill-rule="nonzero" fill-opacity="1" transform="matrix(1 0 0 1.02631 423 1485.82)"/><path d="M426.102 117.474 375.569 117.474 377.128 2.86979 381.558 2.19517 385.551 6.14208 387.422 10.2347 392.725 11.5042 395.221 15.3036 395.221 21.6421 389.918 20.959 386.486 23.3952 385.863 27.4909 390.542 31.9733 395.533 29.5715 398.028 24.3715 401.459 24.3715 404.267 26.8077 405.514 32.1293 410.817 33.1587 413.625 39.3974 411.441 44.9498 407.698 46.6966 404.579 46.8838 401.771 52.0619 395.221 53.7152 395.221 48.3499 393.037 44.7315 388.67 44.5443 384.927 48.3499 385.239 57.1152 386.798 62.4805 392.725 68.8128 402.395 70.778 411.753 70.778 417.368 69.9981C419.552 67.9082 422.671 62.6365 422.671 62.6365" fill="#FFDD00" fill-rule="nonzero" fill-opacity="1" transform="matrix(1 0 0 1.02631 327.434 1487.51)"/><path d="M377.534 2.80429C384.365 2.80429 385.551 9.91951 386.175 10.8272 386.798 11.7318 388.982 11.7162 389.918 11.944 391.477 12.4275 392.413 13.4912 393.349 14.6141 393.973 15.578 394.285 17.0035 393.973 20.2227 393.661 20.101 392.101 19.4148 391.165 19.524 389.918 19.6675 388.982 19.7642 387.734 20.5783 385.863 21.7418 385.551 22.3688 384.927 23.7257 384.303 25.198 383.991 27.4908 385.239 28.8976 386.175 30.5758 386.175 30.3262 387.734 31.4118 388.982 32.3476 390.854 32.8779 392.725 32.5035 394.285 32.1916 395.221 31.4742 396.468 30.295 397.716 28.5108 398.652 26.0683 398.652 25.6472 400.523 25.1575 402.083 26.4395 402.707 27.3847 404.267 29.6837 404.267 31.1435 404.267 33.4082 408.01 32.4412 412.065 34.6559 412.065 39.0854 412.065 43.4836 408.322 45.9479 403.955 44.4818 403.955 48.2562 402.083 50.1278 400.523 51.3444 399.276 52.2802 397.716 52.1554 396.156 52.1554 396.468 50.7205 396.468 50.5333 396.468 49.0049 396.156 47.2268 395.533 45.3552 394.597 44.4818 393.661 43.6084 391.789 42.5478 389.918 43.0781 388.358 43.5148 385.863 44.4194 384.927 46.0415 383.367 47.9443 383.367 49.2544 383.367 51.6251 383.367 54.5885 383.991 57.739 384.927 60.7024 385.863 63.6658 387.422 65.7245 388.67 67.2842 389.918 68.9375 392.413 70.0916 394.909 70.8403 397.092 71.4953 399.588 71.8696 403.331 72.0568 407.074 72.244 409.57 72.1504 412.065 72.0568 413.313 71.9944 413.937 71.9695 415.808 71.4641 417.056 71.1272 418.741 70.2476 420.175 68.9063 421.267 67.8894 422.203 65.8056 422.359 65.0695 422.515 64.3364 422.733 62.4243 422.733 62.4243 422.733 62.4243 420.799 64.8511 419.863 65.7557 418.928 66.598 417.992 67.6897 417.056 68.22 414.872 69.4366 413.001 69.3742 411.129 69.4366 408.322 69.4989 404.267 69.4366 400.523 69.0934 396.468 68.7503 393.661 68.0017 391.477 66.1301 389.294 64.1649 388.046 62.2621 387.422 59.829 385.863 54.6509 385.863 52.8417 386.175 50.0654 386.486 46.7901 389.606 45.4488 390.854 45.5112 392.101 45.5736 392.725 46.1975 393.349 47.1645 394.597 49.5352 393.661 51.6875 393.661 54.0582 398.028 55.15 399.9 54.3701 401.771 53.1848 403.643 52.0618 405.514 49.4416 405.514 47.7883 407.386 48.3186 409.57 47.6012 411.753 46.2286 413.001 45.2305 414.561 42.2983 414.561 39.5533 414.561 37.4009 413.937 35.311 413.313 34.032 411.441 31.4118 408.634 30.8721 406.45 30.8721 406.45 25.4601 400.523 21.8448 396.78 22.9334 397.092 25.6659 396.156 27.0884 395.533 27.9618 394.909 29.0785 393.973 29.8053 392.725 30.1765 390.854 30.6569 389.606 29.8895 388.67 29.1347 387.11 28.0616 386.486 25.4039 388.046 23.7257 388.982 22.5684 390.854 21.9695 391.789 22.1567 393.037 22.4031 394.285 23.1549 394.909 22.8866 395.845 22.6215 396.156 20.6407 396.156 19.9607 397.092 12.2091 393.037 9.89143 388.046 8.89948 386.486 2.87915 381.464 0.0779836 377.534 0.0779836" fill="#000000" fill-rule="nonzero" fill-opacity="1" transform="matrix(1 0 0 1.02631 327.434 1487.51)"/><path d="M-0.685848 122.368C-0.685848 124.637-2.52563 126.477-4.79512 126.477-7.06461 126.477-8.9044 124.637-8.9044 122.368-8.9044 120.098-7.06461 118.258-4.79512 118.258-2.52563 118.258-0.685847 120.098-0.685848 122.368Z" fill="#000000" fill-rule="nonzero" fill-opacity="1" transform="matrix(1 0 0 1.02631 732.637 1453.51)"/><path d="M395.845 35.2174 395.845 42.0487 402.707 42.0487 402.707 35.2174Z" fill="#0098D4" fill-rule="nonzero" fill-opacity="1" transform="matrix(1 0 0 1.02631 327.434 1487.51)"/><path d="M426.102 117.474 375.569 117.474 377.128 2.86979 381.558 2.19517 385.551 6.14208 387.422 10.2347 392.725 11.5042 395.221 15.3036 395.221 21.6421 389.918 20.959 386.486 23.3952 385.863 27.4909 390.542 31.9733 395.533 29.5715 398.028 24.3715 401.459 24.3715 404.267 26.8077 405.514 32.1293 410.817 33.1587 413.625 39.3974 411.441 44.9498 407.698 46.6966 404.579 46.8838 401.771 52.0619 395.221 53.7152 395.221 48.3499 393.037 44.7315 388.67 44.5443 384.927 48.3499 385.239 57.1152 386.798 62.4805 392.725 68.8128 402.395 70.778 411.753 70.778 417.368 69.9981C419.552 67.9082 422.671 62.6365 422.671 62.6365" fill="#FFDD00" fill-rule="nonzero" fill-opacity="1" transform="matrix(-1 0 0 1.02631 1172.78 1487.51)"/><path d="M377.534 2.80429C384.365 2.80429 385.551 9.91951 386.175 10.8272 386.798 11.7318 388.982 11.7162 389.918 11.944 391.477 12.4275 392.413 13.4912 393.349 14.6141 393.973 15.578 394.285 17.0035 393.973 20.2227 393.661 20.101 392.101 19.4148 391.165 19.524 389.918 19.6675 388.982 19.7642 387.734 20.5783 385.863 21.7418 385.551 22.3688 384.927 23.7257 384.303 25.198 383.991 27.4908 385.239 28.8976 386.175 30.5758 386.175 30.3262 387.734 31.4118 388.982 32.3476 390.854 32.8779 392.725 32.5035 394.285 32.1916 395.221 31.4742 396.468 30.295 397.716 28.5108 398.652 26.0683 398.652 25.6472 400.523 25.1575 402.083 26.4395 402.707 27.3847 404.267 29.6837 404.267 31.1435 404.267 33.4082 408.01 32.4412 412.065 34.6559 412.065 39.0854 412.065 43.4836 408.322 45.9479 403.955 44.4818 403.955 48.2562 402.083 50.1278 400.523 51.3444 399.276 52.2802 397.716 52.1554 396.156 52.1554 396.468 50.7205 396.468 50.5333 396.468 49.0049 396.156 47.2268 395.533 45.3552 394.597 44.4818 393.661 43.6084 391.789 42.5478 389.918 43.0781 388.358 43.5148 385.863 44.4194 384.927 46.0415 383.367 47.9443 383.367 49.2544 383.367 51.6251 383.367 54.5885 383.991 57.739 384.927 60.7024 385.863 63.6658 387.422 65.7245 388.67 67.2842 389.918 68.9375 392.413 70.0916 394.909 70.8403 397.092 71.4953 399.588 71.8696 403.331 72.0568 407.074 72.244 409.57 72.1504 412.065 72.0568 413.313 71.9944 413.937 71.9695 415.808 71.4641 417.056 71.1272 418.741 70.2476 420.175 68.9063 421.267 67.8894 422.203 65.8056 422.359 65.0695 422.515 64.3364 422.733 62.4243 422.733 62.4243 422.733 62.4243 420.799 64.8511 419.863 65.7557 418.928 66.598 417.992 67.6897 417.056 68.22 414.872 69.4366 413.001 69.3742 411.129 69.4366 408.322 69.4989 404.267 69.4366 400.523 69.0934 396.468 68.7503 393.661 68.0017 391.477 66.1301 389.294 64.1649 388.046 62.2621 387.422 59.829 385.863 54.6509 385.863 52.8417 386.175 50.0654 386.486 46.7901 389.606 45.4488 390.854 45.5112 392.101 45.5736 392.725 46.1975 393.349 47.1645 394.597 49.5352 393.661 51.6875 393.661 54.0582 398.028 55.15 399.9 54.3701 401.771 53.1848 403.643 52.0618 405.514 49.4416 405.514 47.7883 407.386 48.3186 409.57 47.6012 411.753 46.2286 413.001 45.2305 414.561 42.2983 414.561 39.5533 414.561 37.4009 413.937 35.311 413.313 34.032 411.441 31.4118 408.634 30.8721 406.45 30.8721 406.45 25.4601 400.523 21.8448 396.78 22.9334 397.092 25.6659 396.156 27.0884 395.533 27.9618 394.909 29.0785 393.973 29.8053 392.725 30.1765 390.854 30.6569 389.606 29.8895 388.67 29.1347 387.11 28.0616 386.486 25.4039 388.046 23.7257 388.982 22.5684 390.854 21.9695 391.789 22.1567 393.037 22.4031 394.285 23.1549 394.909 22.8866 395.845 22.6215 396.156 20.6407 396.156 19.9607 397.092 12.2091 393.037 9.89143 388.046 8.89948 386.486 2.87915 381.464 0.0779836 377.534 0.0779836" fill="#000000" fill-rule="nonzero" fill-opacity="1" transform="matrix(-1 0 0 1.02631 1172.78 1487.51)"/><path d="M-0.685848 122.368C-0.685848 124.637-2.52563 126.477-4.79512 126.477-7.06461 126.477-8.9044 124.637-8.9044 122.368-8.9044 120.098-7.06461 118.258-4.79512 118.258-2.52563 118.258-0.685847 120.098-0.685848 122.368Z" fill="#000000" fill-rule="nonzero" fill-opacity="1" transform="matrix(-1 0 0 1.02631 767.573 1453.51)"/><path d="M395.845 35.2174 395.845 42.0487 402.707 42.0487 402.707 35.2174Z" fill="#0098D4" fill-rule="nonzero" fill-opacity="1" transform="matrix(-1 0 0 1.02631 1172.78 1487.51)"/><path d="M426.102 117.474 375.569 117.474 377.128 2.86979 381.558 2.19517 385.551 6.14208 387.422 10.2347 392.725 11.5042 395.221 15.3036 395.221 21.6421 389.918 20.959 386.486 23.3952 385.863 27.4909 390.542 31.9733 395.533 29.5715 398.028 24.3715 401.459 24.3715 404.267 26.8077 405.514 32.1293 410.817 33.1587 413.625 39.3974 411.441 44.9498 407.698 46.6966 404.579 46.8838 401.771 52.0619 395.221 53.7152 395.221 48.3499 393.037 44.7315 388.67 44.5443 384.927 48.3499 385.239 57.1152 386.798 62.4805 392.725 68.8128 402.395 70.778 411.753 70.778 417.368 69.9981C419.552 67.9082 422.671 62.6365 422.671 62.6365" fill="#FFDD00" fill-rule="nonzero" fill-opacity="1" transform="matrix(1 0 0 1.02631 327.434 1487.51)"/><path d="M377.534 2.80429C384.365 2.80429 385.551 9.91951 386.175 10.8272 386.798 11.7318 388.982 11.7162 389.918 11.944 391.477 12.4275 392.413 13.4912 393.349 14.6141 393.973 15.578 394.285 17.0035 393.973 20.2227 393.661 20.101 392.101 19.4148 391.165 19.524 389.918 19.6675 388.982 19.7642 387.734 20.5783 385.863 21.7418 385.551 22.3688 384.927 23.7257 384.303 25.198 383.991 27.4908 385.239 28.8976 386.175 30.5758 386.175 30.3262 387.734 31.4118 388.982 32.3476 390.854 32.8779 392.725 32.5035 394.285 32.1916 395.221 31.4742 396.468 30.295 397.716 28.5108 398.652 26.0683 398.652 25.6472 400.523 25.1575 402.083 26.4395 402.707 27.3847 404.267 29.6837 404.267 31.1435 404.267 33.4082 408.01 32.4412 412.065 34.6559 412.065 39.0854 412.065 43.4836 408.322 45.9479 403.955 44.4818 403.955 48.2562 402.083 50.1278 400.523 51.3444 399.276 52.2802 397.716 52.1554 396.156 52.1554 396.468 50.7205 396.468 50.5333 396.468 49.0049 396.156 47.2268 395.533 45.3552 394.597 44.4818 393.661 43.6084 391.789 42.5478 389.918 43.0781 388.358 43.5148 385.863 44.4194 384.927 46.0415 383.367 47.9443 383.367 49.2544 383.367 51.6251 383.367 54.5885 383.991 57.739 384.927 60.7024 385.863 63.6658 387.422 65.7245 388.67 67.2842 389.918 68.9375 392.413 70.0916 394.909 70.8403 397.092 71.4953 399.588 71.8696 403.331 72.0568 407.074 72.244 409.57 72.1504 412.065 72.0568 413.313 71.9944 413.937 71.9695 415.808 71.4641 417.056 71.1272 418.741 70.2476 420.175 68.9063 421.267 67.8894 422.203 65.8056 422.359 65.0695 422.515 64.3364 422.733 62.4243 422.733 62.4243 422.733 62.4243 420.799 64.8511 419.863 65.7557 418.928 66.598 417.992 67.6897 417.056 68.22 414.872 69.4366 413.001 69.3742 411.129 69.4366 408.322 69.4989 404.267 69.4366 400.523 69.0934 396.468 68.7503 393.661 68.0017 391.477 66.1301 389.294 64.1649 388.046 62.2621 387.422 59.829 385.863 54.6509 385.863 52.8417 386.175 50.0654 386.486 46.7901 389.606 45.4488 390.854 45.5112 392.101 45.5736 392.725 46.1975 393.349 47.1645 394.597 49.5352 393.661 51.6875 393.661 54.0582 398.028 55.15 399.9 54.3701 401.771 53.1848 403.643 52.0618 405.514 49.4416 405.514 47.7883 407.386 48.3186 409.57 47.6012 411.753 46.2286 413.001 45.2305 414.561 42.2983 414.561 39.5533 414.561 37.4009 413.937 35.311 413.313 34.032 411.441 31.4118 408.634 30.8721 406.45 30.8721 406.45 25.4601 400.523 21.8448 396.78 22.9334 397.092 25.6659 396.156 27.0884 395.533 27.9618 394.909 29.0785 393.973 29.8053 392.725 30.1765 390.854 30.6569 389.606 29.8895 388.67 29.1347 387.11 28.0616 386.486 25.4039 388.046 23.7257 388.982 22.5684 390.854 21.9695 391.789 22.1567 393.037 22.4031 394.285 23.1549 394.909 22.8866 395.845 22.6215 396.156 20.6407 396.156 19.9607 397.092 12.2091 393.037 9.89143 388.046 8.89948 386.486 2.87915 381.464 0.0779836 377.534 0.0779836" fill="#000000" fill-rule="nonzero" fill-opacity="1" transform="matrix(1 0 0 1.02631 327.434 1487.51)"/><path d="M-0.685848 122.368C-0.685848 124.637-2.52563 126.477-4.79512 126.477-7.06461 126.477-8.9044 124.637-8.9044 122.368-8.9044 120.098-7.06461 118.258-4.79512 118.258-2.52563 118.258-0.685847 120.098-0.685848 122.368Z" fill="#000000" fill-rule="nonzero" fill-opacity="1" transform="matrix(1 0 0 1.02631 732.637 1453.51)"/><path d="M395.845 35.2174 395.845 42.0487 402.707 42.0487 402.707 35.2174Z" fill="#0098D4" fill-rule="nonzero" fill-opacity="1" transform="matrix(1 0 0 1.02631 327.434 1487.51)"/><path d="M422.671 42.1111C416.12 42.1111 413.937 49.3792 418.304 54.3389 411.753 52.3738 406.138 57.5207 408.946 62.2621 412.377 68.4696 419.24 65.4438 422.671 61.1391 426.414 66.0053 433.277 67.7833 436.396 62.5428 439.827 57.0216 433.589 51.5939 427.35 54.2766 431.093 49.4104 429.221 42.1111 422.671 42.1111Z" stroke="#000000" stroke-width="2.52667" stroke-linecap="butt" stroke-linejoin="round" stroke-miterlimit="4" stroke-opacity="1" fill="#0098D4" fill-rule="nonzero" fill-opacity="1" transform="matrix(1 0 0 1.02631 327.434 1487.51)"/><path d="M411.753 96.0445 411.753 82.3506 434.212 82.3506 434.212 96.0445Z" stroke="#000000" stroke-width="2.5248" stroke-linecap="butt" stroke-linejoin="miter" stroke-miterlimit="4" stroke-opacity="1" fill="#ED1C24" fill-rule="nonzero" fill-opacity="1" transform="matrix(1 0 0 1.02631 327.434 1487.51)"/><path d="M377.752 73.3669 377.752 36.2468" stroke="#000000" stroke-width="2.23563" stroke-linecap="butt" stroke-linejoin="miter" stroke-miterlimit="4" stroke-opacity="1" fill="none" fill-rule="nonzero" transform="matrix(1 0 0 1.02631 327.434 1487.51)"/><path d="M374.321 10.4903 374.321 17.3311 381.184 17.3311 381.184 10.4903Z" fill="#ED1C24" fill-rule="nonzero" fill-opacity="1" transform="matrix(1 0 0 1.02631 327.434 1487.51)"/><path d="M377.752 81.9763 366.523 89.2132 377.752 96.4501 388.67 89.2132Z" stroke="#000000" stroke-width="2.5248" stroke-linecap="butt" stroke-linejoin="miter" stroke-miterlimit="4" stroke-opacity="1" fill="#0098D4" fill-rule="nonzero" fill-opacity="1" transform="matrix(1 0 0 1.02631 327.434 1487.51)"/><path d="M379.621 13.5978C379.621 18.7254 375.988 22.8822 371.507 22.8822 367.026 22.8822 363.393 18.7254 363.393 13.5978 363.393 8.47018 367.026 4.31342 371.507 4.31342 375.988 4.31342 379.621 8.47018 379.621 13.5978Z" fill="#FFDD00" fill-rule="nonzero" fill-opacity="1" transform="matrix(1 0 0 1.02631 423 1485.82)"/><path d="M371.244 1.95945 371.244 4.26082C373.94 4.14247 375.662 5.36548 376.78 6.40438 379.384 8.79781 380.252 11.7699 379.542 15.3205 378.45 20.5282 374.439 22.6586 370.165 22.6586L370.165 47.0137 373.085 46.3167 373.085 25.2756C375.925 24.4603 377.924 22.9742 379.213 21.6592 383.264 17.5167 383.316 11.8356 381.107 7.40384 378.74 3.60329 375.321 1.64384 371.244 1.95945Z" stroke="#000000" stroke-width="0.39452" stroke-linecap="butt" stroke-linejoin="miter" stroke-miterlimit="4" stroke-opacity="1" fill="#000000" fill-rule="nonzero" fill-opacity="1" transform="matrix(1 0 0 1.02631 423 1485.82)"/><path d="M358.777 90.8581C358.777 94.5767 355.762 97.5912 352.044 97.5912 348.325 97.5912 345.311 94.5767 345.311 90.8581 345.311 87.1395 348.325 84.1249 352.044 84.1249 355.762 84.1249 358.777 87.1395 358.777 90.8581Z" stroke="#FFDD00" stroke-width="5.26027" stroke-linecap="butt" stroke-linejoin="miter" stroke-miterlimit="4" stroke-opacity="1" fill="#000000" fill-rule="nonzero" fill-opacity="1" transform="matrix(1 0 0 1.02631 423 1485.82)"/><path d="M366.904 12.0723 366.904 18.9107 373.742 18.9107 373.742 12.0723 366.904 12.0723Z" fill="#ED1C24" fill-rule="nonzero" fill-opacity="1" transform="matrix(1 0 0 1.02631 423 1485.82)"/><path d="M11.858 22.6586 11.858 121.92M371.792 121.92 371.792 22.6586" stroke="#000000" stroke-width="4.5817" stroke-linecap="butt" stroke-linejoin="miter" stroke-miterlimit="4" stroke-opacity="1" fill="#FFDD00" fill-rule="nonzero" fill-opacity="1" transform="matrix(1 0 0 1.02631 423 1485.82)"/><path d="M371.77 109.019 11.8356 109.019M371.77 119.316 11.8356 119.316" stroke="#000000" stroke-width="3.68219" stroke-linecap="butt" stroke-linejoin="miter" stroke-miterlimit="4" stroke-opacity="1" fill="#FFDD00" fill-rule="nonzero" fill-opacity="1" transform="matrix(1 0 0 1.02631 423 1485.82)"/><path d="M21.2252 129.6 21.2252 360.789C21.2252 360.789 21.6329 387.353 22.7112 397.611 23.829 407.737 24.96 422.86 28.8526 434.038 30.8384 439.956 34.3759 449.425 40.5567 459.288 44.2915 465.337 49.4071 471.649 56.0088 476.647 63.8597 482.696 67.8444 485.063 73.5781 487.693 81.863 491.507 84.9403 492.427 91.1737 494.137 97.9331 495.847 104.061 496.899 109.9 497.425 116.239 498.082 122.788 498.345 128.009 498.608 133.874 498.871 148.471 499.266 152.811 499.266L230.926 499.266C235.266 499.266 249.731 498.871 255.649 498.608 260.778 498.345 267.353 498.082 273.666 497.425 279.584 496.899 285.633 495.847 292.471 494.137 298.652 492.427 301.808 491.638 310.093 487.693 315.748 485.063 319.825 482.696 327.584 476.647 334.159 471.649 339.288 465.337 343.101 459.288 349.282 449.425 352.701 439.956 354.805 434.038 358.751 422.86 359.803 407.737 360.855 397.611 362.038 387.353 362.433 360.789 362.433 360.789L362.433 129.6Z" stroke="#000000" stroke-width="3.97019" stroke-linecap="butt" stroke-linejoin="miter" stroke-miterlimit="4" stroke-opacity="1" fill="none" fill-rule="nonzero" transform="matrix(1 0 0 1.02631 423 1485.82)"/></g></g></g></g></g></svg>